<?xml version="1.0" encoding="utf-8"?>
<!-- Generator: Adobe Illustrator 16.0.0, SVG Export Plug-In . SVG Version: 6.00 Build 0)  -->
<!DOCTYPE svg PUBLIC "-//W3C//DTD SVG 1.1//EN" "http://www.w3.org/Graphics/SVG/1.1/DTD/svg11.dtd">
<svg version="1.1" id="Capa_1" xmlns="http://www.w3.org/2000/svg" xmlns:xlink="http://www.w3.org/1999/xlink" x="0px" y="0px"
	 width="166.966px" height="167.188px" viewBox="0 0 166.966 167.188" enable-background="new 0 0 166.966 167.188"
	 xml:space="preserve">
<g>
	<rect fill="#BBD5C5" width="166.966" height="167.147"/>
	<path fill="#FFFFFF" d="M75.987,167.144l56.804-0.019c0.286-3.517,1.328-23.694-10.062-29.321l-32-14.496l-9.319,5.3l-7.519-4.817
		l-31.321,14.036c-11.364,5.614-10.087,25.801-9.791,29.317H65.96H75.987z"/>
	<path fill="#F2F2F2" d="M81.409,128.607l9.319-5.3l32,14.496c11.391,5.627,10.349,25.805,10.062,29.321l-49.625,0.019h-1.708
		L81.409,128.607z"/>
	<path fill="#FFFFFF" d="M24.937,167.188c-0.402-5.566-1.08-26.4,12.015-32.875l32.75-13.564l-3.772-2.459
		c-29.885,17.182-45.362,8.092-46.453,44.873c0,0-0.165,3.463,0.294,3.983L24.937,167.188z"/>
	<path fill="#FFFFFF" d="M139.546,167.188c0.402-5.566,1.08-26.4-12.016-32.875l-32.75-13.564l3.773-2.459
		c29.885,17.182,45.361,8.092,46.453,44.873c0,0,0.164,3.463-0.295,3.983L139.546,167.188z"/>
	<path fill="#FFFFFF" d="M57.044,87.423c0,0,0,0.371,0,0.74c0,1.486,0.752,2.594,1.492,2.594c1.854,7.041,4.931,10.071,7.838,14.623
		c0,0,5.411,6.592,14.668,9.15c0,0,7.571-0.894,17.322-9.102c3.278-2.76,6.858-8.738,8.333-14.672c0.742,0,1.482-1.484,1.482-2.594
		v-0.369c0.367-1.113,1.135-2.219,1.48-3.704c0.746-1.849,2.613-7.782,0.746-9.263c-0.746-0.387-1.475-0.387-2.227,0.732
		c0,0,2.967-14.078,0.752-20.374c-4.449-15.556-41.134-19.647-41.134-10.007c-15.569,4.449-12.595,19.269-10.37,30.381
		c0,0-1.125-1.119-2.609,0c-1.854,1.861,0,6.312,0.744,8.53C55.945,85.575,56.688,86.681,57.044,87.423z"/>
	<path fill="#F2F2F2" d="M81.568,41.773v72.789c0,0,7.566-0.888,17.324-9.103c3.272-2.756,6.861-8.734,8.336-14.666
		c0.741,0,1.479-1.492,1.479-2.596v-0.371c0.361-1.107,1.131-2.218,1.477-3.707c0.744-1.842,2.612-7.783,0.744-9.264
		c-0.744-0.378-1.475-0.378-2.221,0.737c0,0,2.967-14.081,0.746-20.373c-2.664-9.334-16.943-14.538-27.936-15.132L81.568,41.773z"/>
</g>
</svg>
