<?xml version="1.0" encoding="utf-8"?>
<!-- Generator: Adobe Illustrator 16.0.0, SVG Export Plug-In . SVG Version: 6.00 Build 0)  -->
<!DOCTYPE svg PUBLIC "-//W3C//DTD SVG 1.1//EN" "http://www.w3.org/Graphics/SVG/1.1/DTD/svg11.dtd">
<svg version="1.1" id="Capa_1" xmlns="http://www.w3.org/2000/svg" xmlns:xlink="http://www.w3.org/1999/xlink" x="0px" y="0px"
	 width="250.307px" height="391.114px" viewBox="0 0 250.307 391.114" enable-background="new 0 0 250.307 391.114"
	 xml:space="preserve">
<g>
	<rect x="1" y="1.159" fill="none" stroke="#FFFFFF" stroke-width="2" stroke-miterlimit="10" width="248.307" height="388.886"/>
	<circle fill="none" stroke="#FFFFFF" stroke-width="2" stroke-miterlimit="10" cx="125.152" cy="195.064" r="35.55"/>
	<path fill="none" stroke="#FFFFFF" stroke-width="2" stroke-miterlimit="10" d="M95.676,326.512
		c6.387-9.455,17.207-15.105,29.477-15.105c11.955,0,22.531,5.9,28.975,14.949L95.676,326.512z"/>
	
		<rect x="47.592" y="326.487" fill="none" stroke="#FFFFFF" stroke-width="2" stroke-miterlimit="10" width="156.2" height="63.559"/>
	<path fill="none" stroke="#FFFFFF" stroke-width="2" stroke-miterlimit="10" d="M155.708,63.587
		C149.32,73.042,138.5,79.26,126.23,79.26c-11.955,0-22.531-5.899-28.974-14.948L155.708,63.587z"/>
	<rect x="47.592" y="1" fill="none" stroke="#FFFFFF" stroke-width="2" stroke-miterlimit="10" width="156.2" height="63.179"/>
	
		<rect x="89.335" y="369.364" fill="none" stroke="#FFFFFF" stroke-width="2" stroke-miterlimit="10" width="71.636" height="20.75"/>
	
		<rect x="89.335" y="1.429" fill="none" stroke="#FFFFFF" stroke-width="2" stroke-miterlimit="10" width="71.636" height="21.007"/>
	<path fill="none" stroke="#FFFFFF" stroke-width="2" stroke-miterlimit="10" d="M1.809,380.081c5.355,0,9.693,4.342,9.693,9.695"/>
	<path fill="none" stroke="#FFFFFF" stroke-width="2" stroke-miterlimit="10" d="M239.881,389.776c0-5.355,4.339-9.695,9.694-9.695"
		/>
	<path fill="none" stroke="#FFFFFF" stroke-width="2" stroke-miterlimit="10" d="M249.575,11.124c-5.355,0-9.694-4.34-9.694-9.695"
		/>
	<path fill="none" stroke="#FFFFFF" stroke-width="2" stroke-miterlimit="10" d="M11.502,1.429c0,5.355-4.338,9.695-9.693,9.695"/>
	<line fill="none" stroke="#FFFFFF" stroke-width="2" stroke-miterlimit="10" x1="1" y1="195.064" x2="248.768" y2="195.064"/>
</g>
</svg>
