<?xml version="1.0" encoding="utf-8"?>
<!-- Generator: Adobe Illustrator 16.0.0, SVG Export Plug-In . SVG Version: 6.00 Build 0)  -->
<!DOCTYPE svg PUBLIC "-//W3C//DTD SVG 1.1//EN" "http://www.w3.org/Graphics/SVG/1.1/DTD/svg11.dtd">
<svg version="1.1" id="Capa_1" xmlns="http://www.w3.org/2000/svg" xmlns:xlink="http://www.w3.org/1999/xlink" x="0px" y="0px"
	 width="19.615px" height="22.294px" viewBox="0 0 19.615 22.294" enable-background="new 0 0 19.615 22.294" xml:space="preserve">
<g>
	<g>
		<circle cx="9.808" cy="12.487" r="9.808"/>
		<g>
			<g>
				<g>
					<g>
						<ellipse cx="6.042" cy="13.033" rx="1.007" ry="1.431"/>
					</g>
				</g>
			</g>
			<g>
				<g>
					<g>
						<ellipse cx="13.572" cy="13.033" rx="1.007" ry="1.431"/>
					</g>
				</g>
			</g>
		</g>
		<g>
			<g>
				<g>
					<path d="M7.644,12.093c-0.12,0-0.229-0.078-0.265-0.198c-0.297-1.005-1.303-1.773-2.504-1.909
						C4.723,9.968,4.614,9.832,4.631,9.68c0.018-0.151,0.153-0.262,0.307-0.243c1.418,0.16,2.613,1.086,2.972,2.302
						c0.042,0.147-0.04,0.3-0.187,0.344C7.696,12.09,7.67,12.093,7.644,12.093z"/>
				</g>
			</g>
			<g>
				<g>
					<path d="M11.971,12.093c-0.025,0-0.051-0.003-0.078-0.011c-0.146-0.044-0.229-0.196-0.188-0.344
						c0.358-1.216,1.553-2.142,2.973-2.302c0.154-0.019,0.289,0.092,0.306,0.243s-0.093,0.288-0.243,0.306
						c-1.202,0.136-2.208,0.904-2.504,1.909C12.201,12.015,12.09,12.093,11.971,12.093z"/>
				</g>
			</g>
		</g>
		<g>
			<g>
				<path d="M11.781,17.661c-0.108,0-0.218-0.04-0.303-0.12c-0.411-0.383-0.973-0.606-1.58-0.63
					c-0.674-0.029-1.314,0.202-1.758,0.626C7.962,17.707,7.68,17.7,7.51,17.522s-0.163-0.46,0.016-0.63
					c0.617-0.59,1.496-0.907,2.408-0.872c0.82,0.032,1.585,0.34,2.152,0.868c0.18,0.168,0.189,0.449,0.021,0.63
					C12.02,17.613,11.901,17.661,11.781,17.661z"/>
			</g>
		</g>
	</g>
	<g>
		<linearGradient id="SVGID_1_" gradientUnits="userSpaceOnUse" x1="9.8081" y1="19.6143" x2="9.8081" y2="0">
			<stop  offset="0" style="stop-color:#00C359"/>
			<stop  offset="0.1193" style="stop-color:#07BD5B"/>
			<stop  offset="0.2904" style="stop-color:#1AAE62"/>
			<stop  offset="0.4927" style="stop-color:#39946D"/>
			<stop  offset="0.7189" style="stop-color:#64717C"/>
			<stop  offset="0.9622" style="stop-color:#9B4490"/>
			<stop  offset="1" style="stop-color:#A43C93"/>
		</linearGradient>
		<circle fill="url(#SVGID_1_)" cx="9.808" cy="9.807" r="9.808"/>
		<g>
			<g>
				<g>
					<g>
						<ellipse fill="#562912" cx="6.042" cy="10.353" rx="1.007" ry="1.431"/>
					</g>
				</g>
			</g>
			<g>
				<g>
					<g>
						<ellipse fill="#562912" cx="13.572" cy="10.353" rx="1.007" ry="1.431"/>
					</g>
				</g>
			</g>
		</g>
		<g>
			<g>
				<g>
					<path fill="#562912" d="M7.644,9.413c-0.12,0-0.229-0.078-0.265-0.198C7.082,8.21,6.076,7.441,4.875,7.306
						C4.723,7.288,4.614,7.151,4.631,7c0.018-0.151,0.153-0.262,0.307-0.243c1.418,0.16,2.613,1.086,2.972,2.302
						c0.042,0.147-0.04,0.3-0.187,0.344C7.696,9.41,7.67,9.413,7.644,9.413z"/>
				</g>
			</g>
			<g>
				<g>
					<path fill="#562912" d="M11.971,9.413c-0.025,0-0.051-0.003-0.078-0.011c-0.146-0.044-0.229-0.196-0.188-0.344
						c0.358-1.216,1.553-2.142,2.973-2.302C14.832,6.738,14.967,6.849,14.983,7s-0.093,0.288-0.243,0.306
						c-1.202,0.136-2.208,0.904-2.504,1.909C12.201,9.335,12.09,9.413,11.971,9.413z"/>
				</g>
			</g>
		</g>
		<g>
			<g>
				<path fill="#562912" d="M11.781,14.98c-0.108,0-0.218-0.04-0.303-0.12c-0.411-0.383-0.973-0.606-1.58-0.63
					c-0.674-0.029-1.314,0.202-1.758,0.626c-0.179,0.17-0.461,0.163-0.631-0.015s-0.163-0.46,0.016-0.63
					c0.617-0.59,1.496-0.907,2.408-0.872c0.82,0.032,1.585,0.34,2.152,0.868c0.18,0.168,0.189,0.449,0.021,0.63
					C12.02,14.933,11.901,14.98,11.781,14.98z"/>
			</g>
		</g>
	</g>
</g>
</svg>
