<?xml version="1.0" encoding="utf-8"?>
<!-- Generator: Adobe Illustrator 16.0.0, SVG Export Plug-In . SVG Version: 6.00 Build 0)  -->
<!DOCTYPE svg PUBLIC "-//W3C//DTD SVG 1.1//EN" "http://www.w3.org/Graphics/SVG/1.1/DTD/svg11.dtd">
<svg version="1.1" id="Capa_1" xmlns="http://www.w3.org/2000/svg" xmlns:xlink="http://www.w3.org/1999/xlink" x="0px" y="0px"
	 width="19.615px" height="22.295px" viewBox="0 0 19.615 22.295" enable-background="new 0 0 19.615 22.295" xml:space="preserve">
<g>
	<g>
		<circle cx="9.808" cy="12.488" r="9.808"/>
		<g>
			<g>
				<path d="M15.015,9.096c0,0.303-0.062,0.584-0.172,0.818c-0.071,0.152-0.262,0.217-0.396,0.117
					c-0.145-0.105-0.31-0.166-0.483-0.166s-0.338,0.061-0.481,0.166c-0.134,0.1-0.326,0.035-0.396-0.117
					c-0.109-0.234-0.172-0.516-0.172-0.818c0-0.822,0.47-1.492,1.05-1.492S15.015,8.273,15.015,9.096z"/>
			</g>
			<g>
				<path d="M6.701,9.096c0,0.303-0.063,0.584-0.172,0.818c-0.072,0.152-0.263,0.217-0.396,0.117
					c-0.145-0.105-0.31-0.166-0.483-0.166c-0.173,0-0.337,0.061-0.481,0.166c-0.134,0.1-0.326,0.035-0.396-0.117
					C4.663,9.68,4.6,9.398,4.6,9.096c0-0.822,0.47-1.492,1.05-1.492C6.23,7.604,6.701,8.273,6.701,9.096z"/>
			</g>
		</g>
		<g>
			<g>
				<path d="M4.82,12.928c-0.29,0-0.49,0.279-0.413,0.559c0.514,1.871,2.731,3.279,5.397,3.279c2.683,0,4.912-1.426,5.407-3.314
					c0.07-0.266-0.146-0.523-0.423-0.523H4.82z"/>
			</g>
			<g>
				<g>
					<path d="M9.803,13.66c1.456,0,2.791-0.275,3.849-0.732H5.955C7.014,13.385,8.349,13.66,9.803,13.66z"/>
				</g>
				<g>
					<path d="M9.896,15.746c-0.773,0-1.469,0.299-1.962,0.775c0.584,0.158,1.213,0.244,1.87,0.244c0.711,0,1.388-0.104,2.011-0.285
						C11.324,16.027,10.647,15.746,9.896,15.746z"/>
				</g>
			</g>
		</g>
	</g>
	<g>
		<linearGradient id="SVGID_1_" gradientUnits="userSpaceOnUse" x1="9.8081" y1="19.6152" x2="9.8081" y2="0">
			<stop  offset="0" style="stop-color:#A43C93"/>
			<stop  offset="0.0933" style="stop-color:#845688"/>
			<stop  offset="0.2321" style="stop-color:#5C777A"/>
			<stop  offset="0.375" style="stop-color:#3B936E"/>
			<stop  offset="0.5207" style="stop-color:#21A865"/>
			<stop  offset="0.6705" style="stop-color:#0FB75E"/>
			<stop  offset="0.8268" style="stop-color:#04C05A"/>
			<stop  offset="1" style="stop-color:#00C359"/>
		</linearGradient>
		<circle fill="url(#SVGID_1_)" cx="9.808" cy="9.808" r="9.808"/>
		<g>
			<g>
				<path fill="#562912" d="M15.015,6.415c0,0.303-0.062,0.585-0.172,0.819c-0.071,0.151-0.262,0.217-0.396,0.117
					c-0.145-0.105-0.31-0.166-0.483-0.166s-0.338,0.06-0.481,0.166c-0.134,0.1-0.326,0.034-0.396-0.117
					C12.977,7,12.914,6.718,12.914,6.415c0-0.822,0.47-1.491,1.05-1.491S15.015,5.593,15.015,6.415z"/>
			</g>
			<g>
				<path fill="#562912" d="M6.701,6.415c0,0.303-0.063,0.585-0.172,0.819C6.457,7.386,6.267,7.451,6.133,7.352
					c-0.145-0.105-0.31-0.166-0.483-0.166c-0.173,0-0.337,0.06-0.481,0.166c-0.134,0.1-0.326,0.034-0.396-0.117
					C4.663,7,4.6,6.718,4.6,6.415c0-0.822,0.47-1.491,1.05-1.491C6.23,4.924,6.701,5.593,6.701,6.415z"/>
			</g>
		</g>
		<g>
			<g>
				<path fill="#562912" d="M4.82,10.248c-0.29,0-0.49,0.279-0.413,0.559c0.514,1.871,2.731,3.278,5.397,3.278
					c2.683,0,4.912-1.426,5.407-3.313c0.07-0.267-0.146-0.523-0.423-0.523H4.82z"/>
			</g>
			<g>
				<g>
					<path fill="#FFFFFF" d="M9.803,10.98c1.456,0,2.791-0.275,3.849-0.732H5.955C7.014,10.705,8.349,10.98,9.803,10.98z"/>
				</g>
				<g>
					<path fill="#CC342F" d="M9.896,13.066c-0.773,0-1.469,0.299-1.962,0.775c0.584,0.157,1.213,0.243,1.87,0.243
						c0.711,0,1.388-0.103,2.011-0.285C11.324,13.347,10.647,13.066,9.896,13.066z"/>
				</g>
			</g>
		</g>
	</g>
</g>
</svg>
