<?xml version="1.0" encoding="utf-8"?>
<!-- Generator: Adobe Illustrator 16.0.0, SVG Export Plug-In . SVG Version: 6.00 Build 0)  -->
<!DOCTYPE svg PUBLIC "-//W3C//DTD SVG 1.1//EN" "http://www.w3.org/Graphics/SVG/1.1/DTD/svg11.dtd">
<svg version="1.1" id="Capa_1" xmlns="http://www.w3.org/2000/svg" xmlns:xlink="http://www.w3.org/1999/xlink" x="0px" y="0px"
	 width="19.256px" height="21.832px" viewBox="0 0 19.256 21.832" enable-background="new 0 0 19.256 21.832" xml:space="preserve">
<g>
	<g>
		<path fill-rule="evenodd" clip-rule="evenodd" d="M12.107,9.44c0.684,0.053,1.215-0.031,1.752-0.061
			c1.289-0.07,2.578,0.037,3.863,0.121c1.203,0.078,1.926,1.602,1.281,2.611c-0.184,0.287-0.254,0.461-0.029,0.783
			c0.467,0.664,0.342,1.605-0.289,2.172c-0.318,0.285-0.354,0.525-0.254,0.916c0.156,0.604,0.121,1.223-0.301,1.736
			c-0.182,0.221-0.164,0.4-0.055,0.633c0.229,0.488,0.105,0.977-0.098,1.428c-0.24,0.533-0.666,0.824-1.277,0.822
			c-0.963-0.002-1.926-0.014-2.885,0.025c-2.229,0.088-4.453-0.029-6.68-0.023c-0.283,0-0.561-0.027-0.82-0.152
			c-0.406-0.193-0.699-0.496-0.756-0.947c-0.301-2.332-0.406-4.674-0.105-7.01c0.195-1.504,0.828-2.836,1.908-3.912
			c0.738-0.732,1.268-1.627,1.953-2.396c0.23-0.256,0.283-0.586,0.295-0.92c0.01-0.375,0-0.75,0.025-1.123
			c0.053-0.793,0.584-1.357,1.375-1.443c1.062-0.117,2.168,0.26,2.359,1.723c0.176,1.32-0.023,2.566-0.631,3.75
			C12.541,8.563,12.348,8.956,12.107,9.44z"/>
		<path fill-rule="evenodd" clip-rule="evenodd" d="M0.066,16.483c0-1.477-0.008-2.953,0.002-4.43
			c0.006-0.76,0.215-0.953,0.982-0.922c0.865,0.035,1.73,0.086,2.596,0.141c0.6,0.039,0.801,0.232,0.783,0.842
			c-0.08,2.602,0.08,5.203,0.016,7.805c-0.008,0.279,0.012,0.562,0.031,0.842c0.049,0.695-0.301,1.148-0.959,1.057
			C2.693,21.7,1.889,21.771,1.07,21.825c-0.836,0.055-1.107-0.209-1.066-1.123c0.061-1.404,0.016-2.812,0.016-4.219
			C0.035,16.483,0.051,16.483,0.066,16.483z"/>
	</g>
	<g>
		<linearGradient id="SVGID_1_" gradientUnits="userSpaceOnUse" x1="12.2656" y1="17.9805" x2="12.2656" y2="0">
			<stop  offset="0" style="stop-color:#A43C93"/>
			<stop  offset="0.0481" style="stop-color:#904B89"/>
			<stop  offset="0.1651" style="stop-color:#646B74"/>
			<stop  offset="0.2837" style="stop-color:#408662"/>
			<stop  offset="0.4023" style="stop-color:#249B55"/>
			<stop  offset="0.5208" style="stop-color:#10AA4B"/>
			<stop  offset="0.6395" style="stop-color:#04B345"/>
			<stop  offset="0.7585" style="stop-color:#00B643"/>
			<stop  offset="1" style="stop-color:#00C359"/>
		</linearGradient>
		<path fill-rule="evenodd" clip-rule="evenodd" fill="url(#SVGID_1_)" d="M12.107,6.76c0.684,0.053,1.215-0.03,1.752-0.06
			c1.289-0.071,2.578,0.036,3.863,0.12c1.203,0.078,1.926,1.602,1.281,2.611c-0.184,0.287-0.254,0.462-0.029,0.783
			c0.467,0.664,0.342,1.605-0.289,2.173c-0.318,0.285-0.354,0.524-0.254,0.915c0.156,0.604,0.121,1.224-0.301,1.736
			c-0.182,0.221-0.164,0.4-0.055,0.634c0.229,0.487,0.105,0.976-0.098,1.427c-0.24,0.533-0.666,0.825-1.277,0.823
			c-0.963-0.003-1.926-0.014-2.885,0.024c-2.229,0.088-4.453-0.028-6.68-0.022c-0.283,0-0.561-0.028-0.82-0.152
			c-0.406-0.194-0.699-0.497-0.756-0.948c-0.301-2.332-0.406-4.673-0.105-7.01C5.65,8.311,6.283,6.979,7.363,5.903
			C8.102,5.17,8.631,4.276,9.316,3.507c0.23-0.256,0.283-0.586,0.295-0.92c0.01-0.375,0-0.751,0.025-1.124
			c0.053-0.792,0.584-1.356,1.375-1.443c1.062-0.116,2.168,0.261,2.359,1.724c0.176,1.319-0.023,2.566-0.631,3.749
			C12.541,5.883,12.348,6.276,12.107,6.76z"/>
		<linearGradient id="SVGID_2_" gradientUnits="userSpaceOnUse" x1="2.2407" y1="19.1514" x2="2.2407" y2="8.4492">
			<stop  offset="0" style="stop-color:#A43C93"/>
			<stop  offset="0.0481" style="stop-color:#904B89"/>
			<stop  offset="0.1651" style="stop-color:#646B74"/>
			<stop  offset="0.2837" style="stop-color:#408662"/>
			<stop  offset="0.4023" style="stop-color:#249B55"/>
			<stop  offset="0.5208" style="stop-color:#10AA4B"/>
			<stop  offset="0.6395" style="stop-color:#04B345"/>
			<stop  offset="0.7585" style="stop-color:#00B643"/>
			<stop  offset="1" style="stop-color:#00C359"/>
		</linearGradient>
		<path fill-rule="evenodd" clip-rule="evenodd" fill="url(#SVGID_2_)" d="M0.066,13.804c0-1.478-0.008-2.954,0.002-4.431
			c0.006-0.76,0.215-0.953,0.982-0.921c0.865,0.035,1.73,0.085,2.596,0.14c0.6,0.039,0.801,0.232,0.783,0.842
			c-0.08,2.602,0.08,5.203,0.016,7.806c-0.008,0.279,0.012,0.562,0.031,0.842c0.049,0.694-0.301,1.147-0.959,1.056
			c-0.824-0.116-1.629-0.047-2.447,0.008c-0.836,0.055-1.107-0.209-1.066-1.122c0.061-1.404,0.016-2.812,0.016-4.219
			C0.035,13.804,0.051,13.804,0.066,13.804z"/>
	</g>
</g>
</svg>
