<?xml version="1.0" encoding="utf-8"?>
<!-- Generator: Adobe Illustrator 16.0.0, SVG Export Plug-In . SVG Version: 6.00 Build 0)  -->
<!DOCTYPE svg PUBLIC "-//W3C//DTD SVG 1.1//EN" "http://www.w3.org/Graphics/SVG/1.1/DTD/svg11.dtd">
<svg version="1.1" id="Capa_1" xmlns="http://www.w3.org/2000/svg" xmlns:xlink="http://www.w3.org/1999/xlink" x="0px" y="0px"
	 width="19.256px" height="21.832px" viewBox="0 0 19.256 21.832" enable-background="new 0 0 19.256 21.832" xml:space="preserve">
<g>
	<g>
		<path fill-rule="evenodd" clip-rule="evenodd" d="M12.107,15.072c0.684-0.052,1.215,0.03,1.752,0.06
			c1.289,0.071,2.578-0.036,3.863-0.12c1.203-0.078,1.926-1.602,1.281-2.611c-0.184-0.287-0.254-0.462-0.029-0.783
			c0.467-0.664,0.342-1.605-0.289-2.173c-0.318-0.285-0.354-0.524-0.254-0.915c0.156-0.604,0.121-1.224-0.301-1.735
			c-0.182-0.222-0.164-0.401-0.055-0.635c0.229-0.487,0.105-0.976-0.098-1.427c-0.24-0.533-0.666-0.825-1.277-0.823
			c-0.963,0.003-1.926,0.014-2.885-0.024c-2.229-0.088-4.453,0.028-6.68,0.022c-0.283,0-0.561,0.028-0.82,0.152
			C5.91,4.253,5.617,4.556,5.561,5.007C5.26,7.339,5.154,9.68,5.455,12.017c0.195,1.504,0.828,2.836,1.908,3.911
			c0.738,0.733,1.268,1.627,1.953,2.396c0.23,0.256,0.283,0.586,0.295,0.92c0.01,0.375,0,0.751,0.025,1.124
			c0.053,0.792,0.584,1.356,1.375,1.443c1.062,0.116,2.168-0.261,2.359-1.724c0.176-1.319-0.023-2.566-0.631-3.749
			C12.541,15.949,12.348,15.555,12.107,15.072z"/>
		<path fill-rule="evenodd" clip-rule="evenodd" d="M0.066,8.028c0,1.478-0.008,2.954,0.002,4.432
			c0.006,0.759,0.215,0.952,0.982,0.92c0.865-0.035,1.73-0.085,2.596-0.14c0.6-0.039,0.801-0.232,0.783-0.842
			C4.35,9.796,4.51,7.195,4.445,4.593C4.438,4.313,4.457,4.031,4.477,3.75c0.049-0.694-0.301-1.147-0.959-1.056
			C2.693,2.811,1.889,2.742,1.07,2.687C0.234,2.632-0.037,2.896,0.004,3.809C0.064,5.213,0.02,6.622,0.02,8.028
			C0.035,8.028,0.051,8.028,0.066,8.028z"/>
	</g>
	<g>
		<linearGradient id="SVGID_1_" gradientUnits="userSpaceOnUse" x1="12.2656" y1="19.1514" x2="12.2656" y2="1.1709">
			<stop  offset="0" style="stop-color:#A43C93"/>
			<stop  offset="0.0761" style="stop-color:#8F4C89"/>
			<stop  offset="0.314" style="stop-color:#52796B"/>
			<stop  offset="0.5162" style="stop-color:#269A55"/>
			<stop  offset="0.6723" style="stop-color:#0AAE48"/>
			<stop  offset="0.7635" style="stop-color:#00B643"/>
			<stop  offset="1" style="stop-color:#00C359"/>
		</linearGradient>
		<path fill-rule="evenodd" clip-rule="evenodd" fill="url(#SVGID_1_)" d="M12.107,12.392c0.684-0.052,1.215,0.03,1.752,0.06
			c1.289,0.071,2.578-0.036,3.863-0.12c1.203-0.078,1.926-1.602,1.281-2.611c-0.184-0.287-0.254-0.462-0.029-0.783
			c0.467-0.664,0.342-1.605-0.289-2.173c-0.318-0.285-0.354-0.524-0.254-0.915c0.156-0.604,0.121-1.224-0.301-1.735
			c-0.182-0.222-0.164-0.401-0.055-0.635c0.229-0.487,0.105-0.976-0.098-1.427c-0.24-0.533-0.666-0.825-1.277-0.823
			c-0.963,0.003-1.926,0.014-2.885-0.024c-2.229-0.088-4.453,0.028-6.68,0.022c-0.283,0-0.561,0.028-0.82,0.152
			C5.91,1.573,5.617,1.876,5.561,2.327C5.26,4.659,5.154,7,5.455,9.337c0.195,1.504,0.828,2.836,1.908,3.911
			c0.738,0.733,1.268,1.627,1.953,2.396c0.23,0.256,0.283,0.586,0.295,0.92c0.01,0.375,0,0.751,0.025,1.124
			c0.053,0.792,0.584,1.356,1.375,1.443c1.062,0.116,2.168-0.261,2.359-1.724c0.176-1.319-0.023-2.566-0.631-3.749
			C12.541,13.269,12.348,12.875,12.107,12.392z"/>
		<linearGradient id="SVGID_2_" gradientUnits="userSpaceOnUse" x1="2.2407" y1="10.7026" x2="2.2407" y2="0">
			<stop  offset="0" style="stop-color:#A43C93"/>
			<stop  offset="0.0761" style="stop-color:#8F4C89"/>
			<stop  offset="0.314" style="stop-color:#52796B"/>
			<stop  offset="0.5162" style="stop-color:#269A55"/>
			<stop  offset="0.6723" style="stop-color:#0AAE48"/>
			<stop  offset="0.7635" style="stop-color:#00B643"/>
			<stop  offset="1" style="stop-color:#00C359"/>
		</linearGradient>
		<path fill-rule="evenodd" clip-rule="evenodd" fill="url(#SVGID_2_)" d="M0.066,5.348c0,1.478-0.008,2.954,0.002,4.432
			c0.006,0.759,0.215,0.952,0.982,0.92c0.865-0.035,1.73-0.085,2.596-0.14c0.6-0.039,0.801-0.232,0.783-0.842
			C4.35,7.116,4.51,4.515,4.445,1.913C4.438,1.633,4.457,1.351,4.477,1.07c0.049-0.694-0.301-1.147-0.959-1.056
			C2.693,0.131,1.889,0.062,1.07,0.007C0.234-0.048-0.037,0.216,0.004,1.129C0.064,2.533,0.02,3.941,0.02,5.348
			C0.035,5.348,0.051,5.348,0.066,5.348z"/>
	</g>
</g>
</svg>
