<?xml version="1.0" encoding="utf-8"?>
<!-- Generator: Adobe Illustrator 16.0.0, SVG Export Plug-In . SVG Version: 6.00 Build 0)  -->
<!DOCTYPE svg PUBLIC "-//W3C//DTD SVG 1.1//EN" "http://www.w3.org/Graphics/SVG/1.1/DTD/svg11.dtd">
<svg version="1.1" id="Capa_1" xmlns="http://www.w3.org/2000/svg" xmlns:xlink="http://www.w3.org/1999/xlink" x="0px" y="0px"
	 width="35.092px" height="26.356px" viewBox="0 0 35.092 26.356" enable-background="new 0 0 35.092 26.356" xml:space="preserve">
<g>
	<g>
		<path fill="#FFFFFF" d="M7.367,8.766c0,0,0,0.069,0,0.136c0,0.275,0.139,0.48,0.276,0.48c0.343,1.302,0.911,1.862,1.448,2.705
			c0,0,0.174,0.205,0.484,0.476l0.008,0.918l2.369,1.578l2.749-1.597v-1.124c0.103-0.08,0.204-0.154,0.31-0.243
			c0.605-0.51,1.268-1.616,1.541-2.713c0.137,0,0.273-0.275,0.273-0.48V8.834c0.068-0.206,0.209-0.411,0.273-0.686
			c0.139-0.341,0.482-1.439,0.139-1.714c-0.027-0.014-0.055-0.021-0.082-0.029c-0.077,0.009-0.154,0.055-0.232,0.172
			c0,0,0.01-0.051,0.026-0.136c-0.041,0.028-0.083,0.067-0.124,0.129c0,0,0.549-2.604,0.139-3.768
			c-0.486-1.701-3.05-2.653-5.07-2.786c-1.398-0.092-2.538,0.205-2.538,0.935c-2.88,0.823-2.329,3.564-1.919,5.62
			c0,0-0.207-0.206-0.481,0c-0.343,0.344,0,1.167,0.137,1.578C7.164,8.423,7.3,8.628,7.367,8.766z"/>
		<path fill="#FFFFFF" d="M15.539,25.297h6.301c0.056-0.682,0.284-4.66-1.919-5.747l-6.19-2.805l-1.803,1.025l-1.454-0.932
			l-6.06,2.715c-2.198,1.086-1.964,5.062-1.908,5.743h6.419"/>
		<path fill="#FFFFFF" d="M3.394,18.941l6.335-2.624l-0.663-0.512c-5.781,3.324-8.841,1.602-9.052,8.717
			c0,0-0.169,0.734,0.689,0.842h0.35C0.977,24.413,0.797,20.225,3.394,18.941z"/>
		<path fill="#FFFFFF" d="M12.06,17.69l1.701-0.977l6.192,2.842c2.202,1.09,1.974,5.066,1.917,5.748h-6.352h-3.178h-0.347v-7.539
			L12.06,17.69z"/>
		<path fill="#FFFFFF" d="M15.17,15.772l-0.634,0.452l6.355,2.651c2.607,1.289,2.428,5.479,2.352,6.428h0.235
			c0,0,0.856,0.064,0.813-0.836C23.972,17.619,21.042,18.913,15.17,15.772z"/>
	</g>
	<g>
		<defs>
			<path id="SVGID_1_" d="M26.037,26.356c0,0,0.498-6.369-2.787-8.262l-5.973-3.284l2.154-9.655l3.518-1.924l5.043,1.924
				l1.726,4.114l-1.128,5.242l5.973,4.446l0.53,4.711l-0.663,2.455L26.037,26.356z"/>
		</defs>
		<clipPath id="SVGID_2_">
			<use xlink:href="#SVGID_1_"  overflow="visible"/>
		</clipPath>
		<g clip-path="url(#SVGID_2_)">
			<path fill="#FFFFFF" d="M20.015,10.964c0,0,0,0.055,0,0.108c0,0.217,0.109,0.379,0.218,0.379c0.271,1.029,0.72,1.47,1.144,2.135
				c0,0,0.137,0.162,0.383,0.375l0.005,0.726l1.914,1.233l2.127-1.249v-0.887c0.081-0.062,0.16-0.121,0.243-0.191
				c0.479-0.402,1.002-1.275,1.217-2.142c0.108,0,0.217-0.217,0.217-0.379v-0.053c0.053-0.162,0.166-0.325,0.216-0.542
				c0.109-0.27,0.382-1.136,0.109-1.353c-0.021-0.011-0.042-0.018-0.064-0.023c-0.061,0.007-0.122,0.043-0.185,0.136
				c0,0,0.01-0.041,0.021-0.107c-0.032,0.022-0.064,0.053-0.098,0.102c0,0,0.434-2.056,0.109-2.975
				c-0.384-1.343-2.408-2.095-4.003-2.2c-1.104-0.073-2.003,0.162-2.003,0.738c-2.274,0.65-1.84,2.814-1.515,4.437
				c0,0-0.165-0.163-0.381,0c-0.271,0.272,0,0.922,0.108,1.245C19.854,10.694,19.962,10.857,20.015,10.964z"/>
			<path fill="#FFFFFF" d="M26.505,23.991h5.129c0.045-0.554,0.231-3.793-1.562-4.68l-4.955-2.365l-1.469,0.701l-1.295-0.779
				l-4.907,2.447c-1.79,0.885-1.6,4.122-1.554,4.676h5.227"/>
			<path fill="#FFFFFF" d="M16.693,18.696l5.159-2.137l-0.595-0.388c-4.707,2.707-7.145,1.274-7.316,7.067
				c0,0-0.137,0.6,0.562,0.686h0.286C14.726,23.151,14.58,19.741,16.693,18.696z"/>
			<path fill="#FFFFFF" d="M26.257,16.179l-0.475,0.374l5.175,2.16c2.122,1.049,1.977,4.461,1.914,5.232h0.192
				c0,0,0.697,0.053,0.662-0.68C33.464,17.69,31.039,18.737,26.257,16.179z"/>
		</g>
	</g>
</g>
</svg>
