<?xml version="1.0" encoding="utf-8"?>
<!-- Generator: Adobe Illustrator 16.0.0, SVG Export Plug-In . SVG Version: 6.00 Build 0)  -->
<!DOCTYPE svg PUBLIC "-//W3C//DTD SVG 1.1//EN" "http://www.w3.org/Graphics/SVG/1.1/DTD/svg11.dtd">
<svg version="1.1" id="Capa_1" xmlns="http://www.w3.org/2000/svg" xmlns:xlink="http://www.w3.org/1999/xlink" x="0px" y="0px"
	 width="46.543px" height="47.133px" viewBox="0 0 46.543 47.133" enable-background="new 0 0 46.543 47.133" xml:space="preserve">
<g>
	<path fill="#00B643" d="M21.807,4.275c0.276-0.563,0.842-0.915,1.467-0.915s1.195,0.352,1.472,0.915l5.264,10.677
		c0.241,0.481,0.701,0.816,1.236,0.896l11.786,1.712c0.617,0.089,1.129,0.522,1.321,1.116c0.191,0.592,0.03,1.244-0.415,1.68
		l-8.524,8.312c-0.388,0.374-0.562,0.918-0.474,1.448l2.011,11.74c0.108,0.614-0.146,1.233-0.65,1.604
		c-0.504,0.365-1.172,0.414-1.725,0.125l-10.54-5.542c-0.478-0.255-1.048-0.255-1.524,0L11.967,43.58
		c-0.548,0.294-1.217,0.245-1.726-0.12c-0.503-0.371-0.753-0.99-0.651-1.604l2.01-11.74c0.095-0.53-0.084-1.074-0.468-1.448
		l-8.529-8.312c-0.446-0.436-0.606-1.087-0.415-1.68c0.193-0.594,0.705-1.027,1.325-1.116l11.784-1.712
		c0.535-0.08,0.998-0.415,1.234-0.896L21.807,4.275z M21.807,4.275"/>
	<path fill="#00A643" d="M24.036,38.043l10.54,5.542c0.553,0.289,1.221,0.24,1.725-0.125c0.504-0.371,0.759-0.99,0.65-1.604
		l-2.011-11.74c-0.088-0.53,0.086-1.074,0.474-1.448l8.524-8.312c0.445-0.436,0.606-1.087,0.415-1.68
		c-0.192-0.594-0.704-1.027-1.321-1.116l-11.786-1.712c-0.535-0.08-0.995-0.415-1.236-0.896L24.746,4.275
		c-0.277-0.563-0.848-0.915-1.472-0.915c-0.001,0-0.001,0-0.002,0v34.491C23.534,37.852,23.798,37.915,24.036,38.043z"/>
</g>
</svg>
