<?xml version="1.0" encoding="utf-8"?>
<!-- Generator: Adobe Illustrator 16.0.0, SVG Export Plug-In . SVG Version: 6.00 Build 0)  -->
<!DOCTYPE svg PUBLIC "-//W3C//DTD SVG 1.1//EN" "http://www.w3.org/Graphics/SVG/1.1/DTD/svg11.dtd">
<svg version="1.1" id="Capa_1" xmlns="http://www.w3.org/2000/svg" xmlns:xlink="http://www.w3.org/1999/xlink" x="0px" y="0px"
	 width="46.544px" height="47.133px" viewBox="0 0 46.544 47.133" enable-background="new 0 0 46.544 47.133" xml:space="preserve">
<g>
	<path fill-rule="evenodd" clip-rule="evenodd" fill="#00B643" d="M19.738,35.261c-0.918,0-1.658,0.563-1.658,1.48
		c0,0.193,0.178,0.37,0.178,0.563h10.036c0-0.193,0-0.37,0-0.563c0-0.917-0.741-1.48-1.481-1.48H26.25v-9.089h0.563
		c0.74,0,1.481-0.563,1.481-1.495c0-0.37-0.179-0.739-0.385-1.109c-0.533,0.193-1.096,0.37-1.658,0.37
		c-0.918,0.193-2.042,0.193-2.96,0.193c-1.125,0-2.042,0-2.989-0.193c-0.563,0-1.096-0.177-1.659-0.37
		c-0.207,0.37-0.562,0.739-0.562,1.109c0,0.933,0.74,1.495,1.658,1.495H20.3v9.089H19.738z M24.948,8.543l-1.303-4.825l-1.48,4.825
		l0,0l0,0h-4.648l3.731,3.152l0,0l0,0l-1.303,5.018l3.523-3.167h0.178l0,0l3.73,3.167l-1.302-5.018h-0.208h0.208l3.701-3.152h-4.618
		l0,0H24.948z M46.5,1.305C46.322,0.565,45.759,0,45.197,0H1.353C0.612,0,0.05,0.565,0.05,1.305
		c-0.384,4.826,1.48,9.828,5.033,13.543c0.739,0.933,1.836,1.674,2.96,2.223c0.918,0.754,2.221,1.302,2.96,2.41
		c0.385,0.933,0,1.867-0.917,2.044l-0.178,0.192c-0.74,0-1.303-0.74-1.303-1.48c0-0.756-0.562-1.125-1.125-1.125
		c-0.562,0-1.124,0.369-1.124,1.125c0,1.48,0.947,2.783,2.427,3.331c0.384,0.193,0.739,0.193,1.125,0.193
		c0.918,0,1.866-0.565,2.576-1.304c0.563-0.74,0.947-1.672,0.769-2.59c2.042,1.48,4.441,2.59,7.047,2.959
		c0.947,0.193,1.865,0.369,2.989,0.369c0.918,0,2.042-0.176,2.96-0.369c2.606-0.369,5.034-1.479,7.076-2.959
		c-0.207,0.918,0,1.85,0.74,2.59c0.532,0.738,1.657,1.304,2.575,1.304c0.385,0,0.771,0,1.125-0.193
		c1.48-0.548,2.428-1.851,2.428-3.331c0-0.756-0.563-1.125-1.125-1.125c-0.563,0-1.125,0.369-1.125,1.125
		c0,0.74-0.533,1.48-1.303,1.48c0,0-0.176,0-0.355-0.192c-0.739-0.177-1.302-1.111-0.739-2.044c0.739-1.108,1.865-1.656,2.959-2.41
		c1.125-0.549,2.043-1.29,2.99-2.223C45.02,11.133,46.856,6.131,46.5,1.305L46.5,1.305z M2.093,2.413V2.236h5.033
		C6.74,3.524,6.564,5.02,6.564,6.321c0,3.331,0.917,6.483,2.604,9.09C4.698,12.628,2.093,7.609,2.093,2.413L2.093,2.413z
		 M37.412,15.411c1.657-2.606,2.575-5.759,2.575-9.09c0-1.302-0.176-2.797-0.532-4.085h5.003v0.177
		C44.458,7.609,41.675,12.628,37.412,15.411L37.412,15.411z M34.066,46.584v-5.758c0-0.177-0.208-0.369-0.563-0.369h-1.51
		c-0.355,0-0.534-0.37-0.534-0.563v-1.11c0-0.177-0.384-0.561-0.562-0.561h-4.086h-7.075h-4.087c-0.355,0-0.562,0.384-0.562,0.561
		v1.11c0,0.193-0.178,0.563-0.563,0.563h-1.479c-0.355,0-0.74,0.192-0.74,0.369v5.758c0,0.37,0.385,0.549,0.74,0.549h20.457
		C33.858,47.133,34.066,46.954,34.066,46.584L34.066,46.584z"/>
</g>
<g>
	<defs>
		<rect id="SVGID_1_" x="22.738" y="-3.527" width="26.75" height="53.5"/>
	</defs>
	<clipPath id="SVGID_2_">
		<use xlink:href="#SVGID_1_"  overflow="visible"/>
	</clipPath>
	<g clip-path="url(#SVGID_2_)">
		<path fill-rule="evenodd" clip-rule="evenodd" fill="#00A643" d="M19.738,35.261c-0.918,0-1.658,0.563-1.658,1.48
			c0,0.193,0.178,0.37,0.178,0.563h10.036c0-0.193,0-0.37,0-0.563c0-0.917-0.741-1.48-1.481-1.48H26.25v-9.089h0.563
			c0.74,0,1.481-0.563,1.481-1.495c0-0.37-0.179-0.739-0.385-1.109c-0.533,0.193-1.096,0.37-1.658,0.37
			c-0.918,0.193-2.042,0.193-2.96,0.193c-1.125,0-2.042,0-2.989-0.193c-0.563,0-1.096-0.177-1.659-0.37
			c-0.207,0.37-0.562,0.739-0.562,1.109c0,0.933,0.74,1.495,1.658,1.495H20.3v9.089H19.738z M24.948,8.543l-1.303-4.825l-1.48,4.825
			l0,0l0,0h-4.648l3.731,3.152l0,0l0,0l-1.303,5.018l3.523-3.167h0.178l0,0l3.73,3.167l-1.302-5.018h-0.208h0.208l3.701-3.152
			h-4.618l0,0H24.948z M46.5,1.305C46.322,0.565,45.759,0,45.197,0H1.353C0.612,0,0.05,0.565,0.05,1.305
			c-0.384,4.826,1.48,9.828,5.033,13.543c0.739,0.933,1.836,1.674,2.96,2.223c0.918,0.754,2.221,1.302,2.96,2.41
			c0.385,0.933,0,1.867-0.917,2.044l-0.178,0.192c-0.74,0-1.303-0.74-1.303-1.48c0-0.756-0.562-1.125-1.125-1.125
			c-0.562,0-1.124,0.369-1.124,1.125c0,1.48,0.947,2.783,2.427,3.331c0.384,0.193,0.739,0.193,1.125,0.193
			c0.918,0,1.866-0.565,2.576-1.304c0.563-0.74,0.947-1.672,0.769-2.59c2.042,1.48,4.441,2.59,7.047,2.959
			c0.947,0.193,1.865,0.369,2.989,0.369c0.918,0,2.042-0.176,2.96-0.369c2.606-0.369,5.034-1.479,7.076-2.959
			c-0.207,0.918,0,1.85,0.74,2.59c0.532,0.738,1.657,1.304,2.575,1.304c0.385,0,0.771,0,1.125-0.193
			c1.48-0.548,2.428-1.851,2.428-3.331c0-0.756-0.563-1.125-1.125-1.125c-0.563,0-1.125,0.369-1.125,1.125
			c0,0.74-0.533,1.48-1.303,1.48c0,0-0.176,0-0.355-0.192c-0.739-0.177-1.302-1.111-0.739-2.044c0.739-1.108,1.865-1.656,2.959-2.41
			c1.125-0.549,2.043-1.29,2.99-2.223C45.02,11.133,46.856,6.131,46.5,1.305L46.5,1.305z M2.093,2.413V2.236h5.033
			C6.74,3.524,6.564,5.02,6.564,6.321c0,3.331,0.917,6.483,2.604,9.09C4.698,12.628,2.093,7.609,2.093,2.413L2.093,2.413z
			 M37.412,15.411c1.657-2.606,2.575-5.759,2.575-9.09c0-1.302-0.176-2.797-0.532-4.085h5.003v0.177
			C44.458,7.609,41.675,12.628,37.412,15.411L37.412,15.411z M34.066,46.584v-5.758c0-0.177-0.208-0.369-0.563-0.369h-1.51
			c-0.355,0-0.534-0.37-0.534-0.563v-1.11c0-0.177-0.384-0.561-0.562-0.561h-4.086h-7.075h-4.087c-0.355,0-0.562,0.384-0.562,0.561
			v1.11c0,0.193-0.178,0.563-0.563,0.563h-1.479c-0.355,0-0.74,0.192-0.74,0.369v5.758c0,0.37,0.385,0.549,0.74,0.549h20.457
			C33.858,47.133,34.066,46.954,34.066,46.584L34.066,46.584z"/>
	</g>
</g>
<g opacity="0.1">
	<path fill="#FFFFFF" d="M8.738,4.098c0.75,6.125,1.125,11.25,6.75,14.75c5.125,3.25,1.75-2.875,0.5-4.75
		c-2.375-3.375-3.375-8.75-7.25-10.875"/>
</g>
</svg>
