<?xml version="1.0" encoding="utf-8"?>
<!-- Generator: Adobe Illustrator 16.0.0, SVG Export Plug-In . SVG Version: 6.00 Build 0)  -->
<!DOCTYPE svg PUBLIC "-//W3C//DTD SVG 1.1//EN" "http://www.w3.org/Graphics/SVG/1.1/DTD/svg11.dtd">
<svg version="1.1" id="Capa_1" xmlns="http://www.w3.org/2000/svg" xmlns:xlink="http://www.w3.org/1999/xlink" x="0px" y="0px"
	 width="29.916px" height="27.067px" viewBox="0 0 29.916 27.067" enable-background="new 0 0 29.916 27.067" xml:space="preserve">
<g>
	<g>
		<path fill-rule="evenodd" clip-rule="evenodd" fill="#FFFFFF" d="M0,14.857c0.017,0.106,0.028,0.212,0.051,0.316
			c0.104,0.485,0.347,0.896,0.669,1.267c0.354,0.406,0.777,0.73,1.233,1.013c0.638,0.393,1.32,0.682,2.029,0.914
			c0.581,0.19,1.173,0.335,1.773,0.445c0.667,0.122,1.34,0.197,2.017,0.235c0.599,0.032,1.199,0.039,1.796,0.003
			c0.403-0.024,0.804-0.061,1.205-0.103c0.644-0.069,1.278-0.19,1.904-0.353c0.968-0.25,1.897-0.59,2.757-1.107
			c0.523-0.315,1.002-0.685,1.387-1.165c0.3-0.371,0.515-0.784,0.594-1.26c0.07-0.435,0.01-0.854-0.163-1.257
			c-0.186-0.432-0.469-0.793-0.807-1.112c-0.551-0.521-1.194-0.9-1.882-1.213c-0.778-0.353-1.588-0.606-2.425-0.776
			c-0.438-0.089-0.881-0.166-1.325-0.224c-0.907-0.121-1.818-0.153-2.73-0.117c-0.407,0.017-0.816,0.043-1.224,0.082
			c-0.679,0.067-1.347,0.191-2.003,0.377c-0.038,0.01-0.076,0.021-0.115,0.033c-0.002,0-0.005,0.003-0.01,0.009
			c0.13,0.121,0.259,0.24,0.388,0.359c0.171,0.158,0.342,0.314,0.512,0.474c0.026,0.025,0.049,0.032,0.087,0.024
			c0.75-0.167,1.511-0.249,2.279-0.265c0.48-0.01,0.958-0.009,1.438,0.004c0.498,0.012,0.992,0.064,1.486,0.134
			c0.765,0.109,1.518,0.275,2.25,0.518c0.716,0.239,1.403,0.538,2.026,0.969c0.334,0.23,0.639,0.493,0.872,0.829
			c0.138,0.197,0.239,0.411,0.273,0.651c0.037,0.266-0.026,0.513-0.149,0.746c-0.166,0.322-0.414,0.576-0.69,0.805
			c-0.411,0.338-0.871,0.597-1.353,0.817c-0.722,0.329-1.475,0.558-2.248,0.726c-0.469,0.101-0.941,0.178-1.418,0.23
			c-0.778,0.087-1.558,0.117-2.34,0.088c-0.495-0.019-0.988-0.061-1.481-0.125c-0.71-0.094-1.411-0.237-2.096-0.443
			c-0.729-0.221-1.435-0.502-2.084-0.906c-0.394-0.245-0.759-0.525-1.045-0.896c-0.178-0.232-0.311-0.486-0.341-0.784
			c-0.026-0.234,0.028-0.453,0.13-0.663c0.153-0.317,0.385-0.571,0.65-0.797c0.379-0.327,0.805-0.581,1.256-0.796
			c0.019-0.008,0.052-0.001,0.073,0.01c0.537,0.309,1.073,0.619,1.608,0.929C5.21,13.728,5.604,13.956,6,14.183
			c0.113,0.066,0.217,0.281,0.189,0.41c-0.105,0.464,0.066,0.83,0.416,1.118c0.348,0.286,0.753,0.388,1.191,0.272
			c0.503-0.132,0.797-0.48,0.902-0.981c0.094-0.45-0.013-0.853-0.351-1.177c-0.218-0.211-0.486-0.322-0.786-0.347
			c-0.154-0.013-0.306,0.03-0.454,0.078c-0.09,0.029-0.176,0.065-0.265,0.098c-0.166,0.059-0.333,0.047-0.47-0.053
			c-0.865-0.631-1.726-1.269-2.588-1.906c-0.138-0.102-0.267-0.213-0.405-0.313c-0.213-0.156-0.432-0.301-0.644-0.458
			c-0.513-0.374-1.032-0.742-1.533-1.132c-0.359-0.281-1.061-0.167-1.17,0.5c-0.036,0.224,0.017,0.423,0.204,0.568
			c0.046,0.034,0.101,0.057,0.151,0.085c0.533,0.308,1.066,0.615,1.599,0.923C2,11.876,2.013,11.885,2.021,11.891
			c-0.173,0.117-0.347,0.228-0.515,0.349c-0.451,0.33-0.848,0.711-1.137,1.196c-0.2,0.333-0.328,0.691-0.36,1.08
			c0,0.012-0.005,0.024-0.009,0.037C0,14.654,0,14.756,0,14.857z"/>
		<path fill-rule="evenodd" clip-rule="evenodd" fill="#FFFFFF" d="M7.894,27.067c-0.018-0.003-0.035-0.007-0.053-0.009
			c-0.401-0.036-0.803-0.066-1.204-0.11c-0.675-0.075-1.339-0.202-1.994-0.375c-0.326-0.087-0.646-0.195-0.969-0.291
			c-0.031-0.01-0.046-0.025-0.042-0.058c0.003-0.011,0.002-0.022,0.002-0.033c0-2.298,0-4.597,0-6.895c0-0.023,0-0.046,0-0.078
			c1.416,0.486,2.87,0.725,4.36,0.798c0,0.023,0,0.043,0,0.062c0,2.312,0,4.623,0,6.934c0,0.018-0.001,0.036-0.003,0.054
			C7.959,27.067,7.926,27.067,7.894,27.067z"/>
		<path fill-rule="evenodd" clip-rule="evenodd" fill="#FFFFFF" d="M9.453,27.067c-0.002-0.022-0.003-0.043-0.003-0.065
			c0-2.303,0-4.608,0-6.912c0-0.023,0-0.046,0-0.073c1.491-0.073,2.945-0.312,4.362-0.798c0,0.027,0,0.047,0,0.067
			c0,2.306,0,4.611,0,6.917c0,0.052-0.015,0.071-0.062,0.087c-0.697,0.237-1.409,0.417-2.135,0.539
			c-0.336,0.056-0.675,0.108-1.013,0.146c-0.331,0.038-0.663,0.057-0.994,0.084c-0.019,0.002-0.038,0.006-0.058,0.009
			C9.519,27.067,9.485,27.067,9.453,27.067z"/>
		<path fill-rule="evenodd" clip-rule="evenodd" fill="#FFFFFF" d="M17.444,22.859c-0.015,0.109-0.027,0.218-0.048,0.327
			c-0.087,0.438-0.29,0.822-0.57,1.166c-0.308,0.381-0.68,0.69-1.085,0.961c-0.138,0.093-0.281,0.179-0.423,0.269
			c-0.015,0.009-0.03,0.016-0.054,0.029c0-0.026,0-0.045,0-0.065c0-2.307,0-4.614-0.001-6.921c0-0.046,0.014-0.071,0.053-0.093
			c0.481-0.284,0.929-0.61,1.31-1.022c0.329-0.354,0.592-0.749,0.725-1.219c0.041-0.144,0.057-0.295,0.084-0.443
			c0.002-0.015,0.008-0.028,0.01-0.042C17.444,18.156,17.444,20.509,17.444,22.859z"/>
		<path fill-rule="evenodd" clip-rule="evenodd" fill="#FFFFFF" d="M0,15.839c0.024,0.241,0.078,0.475,0.167,0.7
			c0.163,0.415,0.421,0.764,0.735,1.076c0.365,0.362,0.781,0.655,1.223,0.914c0.042,0.025,0.057,0.053,0.057,0.103
			c0,2.301,0,4.603,0,6.905c0,0.021,0,0.042,0,0.068c-0.01-0.001-0.017-0.001-0.021-0.004c-0.529-0.31-1.018-0.668-1.423-1.131
			c-0.291-0.332-0.519-0.699-0.644-1.125C0.032,23.134,0,22.919,0,22.699c0-2.262,0-4.523,0-6.785C0,15.889,0,15.864,0,15.839z"/>
	</g>
	<path fill="#FFFFFF" d="M28.944,8.006c0.126,0.058,0.23,0.012,0.232-0.12c0.009-2.473-0.036-4.473-0.022-6.946h-0.03
		c0-0.135-0.08-0.304-0.209-0.371c-0.059-0.03-0.116-0.056-0.174-0.083c-2.491-1.146-4.232,0.02-6.73,0.582
		c-1.466,0.329-2.93,0.452-4.389-0.219c-0.012-0.005-0.021-0.01-0.031-0.014V0.619c0.002-0.157-0.088-0.29-0.221-0.351
		c-0.048-0.022-0.101-0.034-0.16-0.034C17,0.231,16.828,0.402,16.826,0.613l-0.028,6.321L16.741,19.04c0,0.104,0.042,0.2,0.109,0.27
		c0.033,0.032,0.07,0.058,0.114,0.078c0.047,0.022,0.1,0.035,0.155,0.034c0.213,0.002,0.384-0.168,0.385-0.38L17.61,8.266
		c0.011,0.005,0.021,0.009,0.031,0.014c3.952,1.817,7.168-2.18,11.12-0.363L28.944,8.006z M29.916,0.94"/>
</g>
</svg>
