<?xml version="1.0" encoding="utf-8"?>
<!-- Generator: Adobe Illustrator 16.0.0, SVG Export Plug-In . SVG Version: 6.00 Build 0)  -->
<!DOCTYPE svg PUBLIC "-//W3C//DTD SVG 1.1//EN" "http://www.w3.org/Graphics/SVG/1.1/DTD/svg11.dtd">
<svg version="1.1" id="Capa_1" xmlns="http://www.w3.org/2000/svg" xmlns:xlink="http://www.w3.org/1999/xlink" x="0px" y="0px"
	 width="46.543px" height="47.133px" viewBox="100.771 0.4 46.543 47.133" enable-background="new 100.771 0.4 46.543 47.133"
	 xml:space="preserve">
<g>
	<g>
		<path fill="#00B643" d="M110.315,20.3v-6.925h2.377c0.849,0,1.546,0.271,2.094,0.811s0.825,1.234,0.825,2.079v1.149
			c0,0.849-0.276,1.543-0.825,2.079c-0.548,0.538-1.245,0.807-2.094,0.807H110.315z M111.705,14.445v4.785h0.918
			c0.498,0,0.888-0.166,1.17-0.502c0.281-0.337,0.424-0.775,0.424-1.318v-1.153c0-0.536-0.143-0.972-0.424-1.307
			c-0.282-0.337-0.672-0.505-1.17-0.505H111.705z"/>
	</g>
	<g>
		<path fill="#00B643" d="M121.559,1.785c-1.568,0-2.841,0.648-2.841,1.448v20.373h-9.041c-0.907,0-1.641,0.575-1.641,1.283
			c0,0,13.545,19.884,14.777,20.846c0.374,0.292,0.744,0.395,1.084,0.411V1.785H121.559z"/>
		<path fill="#00A643" d="M125.274,45.734l14.775-20.846c0-0.708-0.733-1.283-1.641-1.283h-9.04V3.233
			c0-0.8-1.273-1.448-2.841-1.448h-2.632v44.361C124.674,46.186,125.274,45.734,125.274,45.734z"/>
	</g>
</g>
</svg>
