<?xml version="1.0" encoding="utf-8"?>
<!-- Generator: Adobe Illustrator 16.0.0, SVG Export Plug-In . SVG Version: 6.00 Build 0)  -->
<!DOCTYPE svg PUBLIC "-//W3C//DTD SVG 1.1//EN" "http://www.w3.org/Graphics/SVG/1.1/DTD/svg11.dtd">
<svg version="1.1" id="Capa_1" xmlns="http://www.w3.org/2000/svg" xmlns:xlink="http://www.w3.org/1999/xlink" x="0px" y="0px"
	 width="115.499px" height="134.044px" viewBox="0 0 115.499 134.044" enable-background="new 0 0 115.499 134.044"
	 xml:space="preserve">
<g>
	<g>
		<g>
			<path fill-rule="evenodd" clip-rule="evenodd" fill="#FFFFFF" d="M56.87,37.833c-1.083,0.046-2.571,0.078-4.044,0.178
				c-1.301,0.087-2.593,0.233-3.879,0.391c-1.92,0.234-3.803,0.574-5.657,0.975c-0.92,0.197-1.831,0.413-2.742,0.632
				c-1.158,0.281-1.788-0.254-1.618-0.861c0.042-0.15,0.145-0.301,0.262-0.434c0.849-0.956,1.67-1.821,2.535-2.772
				c0.08-0.088,0.199-0.174,0.332-0.231c1.826-0.765,3.804-1.466,5.849-1.944c1.942-0.453,3.937-0.765,5.978-0.934
				c1.723-0.144,3.453-0.179,5.189-0.12c1.384,0.046,2.755,0.155,4.115,0.33c2.063,0.266,4.056,0.676,5.981,1.229
				c1.306,0.376,2.798,1.028,4.018,1.513c0.364,0.143,0.507,0.379,0.703,0.592c0.774,0.846,1.29,1.493,2.048,2.344
				c0.461,0.514,0.024,0.87-0.647,1.184c-0.429,0.2-0.886,0.206-1.371,0.094c-1.132-0.263-2.255-0.55-3.408-0.763
				c-1.725-0.323-3.462-0.624-5.215-0.87c-1.74-0.244-3.513-0.385-5.293-0.457C59.095,37.872,58.181,37.864,56.87,37.833z"/>
			<path fill-rule="evenodd" clip-rule="evenodd" fill="#FFFFFF" d="M67.286,32.687c-6.547-1.699-13.08-1.699-19.654,0.004
				c0.037-0.249,0.058-0.479,0.11-0.703c0.188-0.813,0.349-1.632,0.592-2.438c0.458-1.538,1.121-3.027,1.984-4.472
				c0.592-0.993,1.275-1.952,2.06-2.873c0.814-0.957,1.731-1.858,2.771-2.691c0.072-0.058,0.203-0.1,0.313-0.11
				c1.332-0.118,2.662-0.121,3.994,0c0.129,0.013,0.279,0.071,0.368,0.143c1.067,0.855,1.994,1.786,2.827,2.771
				c1.067,1.265,1.939,2.597,2.646,3.989c0.652,1.29,1.169,2.61,1.506,3.962c0.187,0.748,0.323,1.503,0.481,2.255
				C67.293,32.568,67.286,32.616,67.286,32.687z"/>
			<path fill-rule="evenodd" clip-rule="evenodd" fill="#FFFFFF" d="M53.561,19.369c-0.384,0.375-0.764,0.712-1.098,1.075
				c-0.548,0.597-1.097,1.194-1.592,1.814c-1.442,1.798-2.487,3.718-3.256,5.725c-0.488,1.274-0.822,2.569-1.08,3.877
				c-0.067,0.332-0.103,0.667-0.144,1c-0.013,0.105-0.077,0.155-0.206,0.2c-1.166,0.425-2.332,0.854-3.491,1.291
				c-0.316,0.12-0.609,0.137-0.938,0.284c-0.013-0.064-0.031-0.108-0.031-0.155c0.003-1.464-0.004-2.792,0.014-4.256
				c0.018-1.563,0.503-3.052,1.382-4.47c0.914-1.474,2.201-2.749,3.849-3.828c1.628-1.069,3.482-1.852,5.552-2.359
				c0.3-0.074,0.605-0.131,0.91-0.195C53.46,19.363,53.495,19.369,53.561,19.369z"/>
			<path fill-rule="evenodd" clip-rule="evenodd" fill="#FFFFFF" d="M73.186,34.682c-0.385-0.169-0.735-0.255-1.108-0.397
				c-1.063-0.403-2.128-0.801-3.208-1.181c-0.239-0.085-0.33-0.184-0.348-0.365c-0.137-1.229-0.429-2.439-0.807-3.638
				c-0.349-1.111-0.775-2.206-1.353-3.264c-0.432-0.789-0.89-1.576-1.394-2.343c-0.938-1.434-2.106-2.764-3.48-3.998
				c-0.037-0.032-0.066-0.068-0.124-0.13c0.1,0.007,0.161,0.005,0.217,0.017c2.166,0.436,4.118,1.169,5.859,2.211
				c1.494,0.894,2.721,1.951,3.682,3.172c0.882,1.121,1.528,2.312,1.799,3.597c0.144,0.671,0.255,1.354,0.276,2.032
				c0.041,1.402,0.013,2.722,0.01,4.124C73.208,34.566,73.197,34.613,73.186,34.682z"/>
			<path fill-rule="evenodd" clip-rule="evenodd" fill="#FFFFFF" d="M77.248,41.084c0.532,0.528,0.399,1.35-0.313,1.84
				c-0.609,0.422-1.315,0.544-2.133,0.34c-1.635-0.407-3.271-0.821-4.923-1.188c-1.894-0.418-3.831-0.713-5.788-0.937
				c-1.608-0.184-3.226-0.321-4.853-0.357c-1.277-0.028-2.557-0.027-3.833,0.022c-1.339,0.05-2.682,0.143-4.013,0.275
				c-2.38,0.235-4.72,0.618-7.011,1.137c-1.342,0.304-2.669,0.637-3.989,0.987c-0.738,0.197-1.426,0.225-2.103-0.103
				c-0.909-0.44-1.191-1.339-0.614-2.021c0.146,0.115,0.272,0.239,0.429,0.336c0.586,0.375,1.265,0.462,1.994,0.282
				c0.981-0.24,1.949-0.509,2.932-0.749c2.572-0.621,5.198-1.089,7.875-1.395c2.836-0.323,5.694-0.451,8.563-0.333
				c1.468,0.062,2.937,0.181,4.395,0.329c2.631,0.265,5.207,0.728,7.732,1.329c1.04,0.249,2.067,0.523,3.1,0.785
				c1.009,0.258,1.793,0.096,2.468-0.514C77.189,41.13,77.22,41.109,77.248,41.084z"/>
			<path fill-rule="evenodd" clip-rule="evenodd" fill="#FFFFFF" d="M59.306,18.677c-1.23,0-2.443,0-3.659,0
				c-0.095-0.436-0.11-0.616,0.538-0.792c0.841-0.229,1.696-0.22,2.54-0.01C59.289,18.016,59.405,18.194,59.306,18.677z"/>
		</g>
		<polygon fill="#FFFFFF" points="48.402,83.893 55.35,78.205 49.204,72.559 43.365,75.425 		"/>
		<polygon fill="#FFFFFF" points="66.075,84.196 71.155,75.556 64.848,72.559 58.649,78.162 		"/>
		<path fill="#FFFFFF" d="M73.409,76.378l-6.712,11.394l-4.142-3.6l-4.309,17.624c0.285,0.111,0.726,0.312,0.917,0.464
			c0.763,0.605,1.068,1.564,0.889,2.458l7.043,0.066l28.579-0.187c0,0,0.694,0.047,1.379-0.264c0.679-0.326,1.334-1.017,1.259-2.483
			C97.362,81.575,88.938,83.307,73.409,76.378z"/>
		<polygon fill="#FFFFFF" points="61.736,83.461 57.086,79.421 57.055,79.434 52.577,83.229 57.488,100.832 		"/>
		<path fill="#FFFFFF" d="M56.611,101.924c0,0,0.065-0.022,0.165-0.053l-5.009-17.956l-4.042,3.427l-6.488-11.26
			c-15.937,7.654-23.379,4.266-24.014,25.755c0,0-0.552,2.429,2.281,2.783h30.178l4.38,0.042l1.58-1.995
			C55.91,102.331,56.245,102.084,56.611,101.924z"/>
		<path fill="#FFFFFF" d="M40.992,47.278c-1.101,1.108,0,3.756,0.441,5.08c0.232,0.883,0.67,1.541,0.882,1.985c0,0,0,0.219,0,0.438
			c0,0.882,0.445,1.545,0.887,1.545c1.108,4.194,2.939,5.996,4.668,8.706c0,0,3.071,3.703,8.738,5.446c0,0,0.252-0.033,0.703-0.138
			v-0.013c0.744-0.169,2.074-0.561,3.814-1.417c1.64-0.808,3.628-2.024,5.792-3.848c1.953-1.645,4.089-5.202,4.962-8.736
			c0.016,0,0.031-0.01,0.047-0.013c0.003-0.002,0.003-0.009,0.011-0.01c0.045,0,0.087-0.021,0.136-0.034
			c0.371-0.203,0.689-0.925,0.689-1.489v-0.22c0.216-0.664,0.673-1.321,0.883-2.204c0.441-1.102,1.555-4.639,0.441-5.522
			c-0.055-0.026-0.114-0.028-0.175-0.009c-0.316,0.118-0.703,0.612-0.926,0.664c-0.117,0.049-0.2,0.019-0.223-0.212l-0.079-1.075
			c-14.712-5.435-27.9-1.059-30.101-0.248c-0.033,0.709-0.037,1.323-0.037,1.323S41.87,46.614,40.992,47.278z"/>
	</g>
	<path fill="#FFFFFF" d="M58.208,134.044c-1.836,0-3.189-0.947-3.61-1.284l-9.855-7.294H15.067C6.758,125.466,0,118.708,0,110.401
		V14.754L0.154,0h115.345v110.401c0,8.307-6.761,15.064-15.07,15.064H71.197l-9.579,7.336
		C60.676,133.592,59.468,134.044,58.208,134.044z M5.308,5.203l-0.103,9.579v95.619c0,5.436,4.424,9.859,9.862,9.859H46.46
		l11.421,8.464c0.045,0.029,0.235,0.114,0.327,0.114h0.003c0.003,0,0.053-0.015,0.157-0.1l11.063-8.479h30.997
		c5.44,0,9.866-4.424,9.866-9.859V5.203H5.308z"/>
</g>
</svg>
