<?xml version="1.0" encoding="utf-8"?>
<!-- Generator: Adobe Illustrator 16.0.0, SVG Export Plug-In . SVG Version: 6.00 Build 0)  -->
<!DOCTYPE svg PUBLIC "-//W3C//DTD SVG 1.1//EN" "http://www.w3.org/Graphics/SVG/1.1/DTD/svg11.dtd">
<svg version="1.1" id="Capa_1" xmlns="http://www.w3.org/2000/svg" xmlns:xlink="http://www.w3.org/1999/xlink" x="0px" y="0px"
	 width="106.414px" height="123.5px" viewBox="0 0 106.414 123.5" enable-background="new 0 0 106.414 123.5" xml:space="preserve">
<g>
	<path fill="#FFFFFF" d="M53.63,123.5c-1.691,0-2.938-0.873-3.326-1.184l-9.081-6.72h-27.34C6.227,115.597,0,109.37,0,101.717
		V13.593L0.143,0h106.271v101.717c0,7.653-6.229,13.88-13.885,13.88H65.597l-8.825,6.759C55.903,123.083,54.79,123.5,53.63,123.5z
		 M4.891,4.794l-0.095,8.825v88.098c0,5.008,4.076,9.084,9.087,9.084h28.923l10.522,7.798c0.041,0.027,0.217,0.105,0.302,0.105
		h0.003c0.002,0,0.048-0.014,0.145-0.092l10.193-7.812h28.559c5.013,0,9.09-4.076,9.09-9.084V4.794H4.891z"/>
	<g>
		<polygon fill="#FFFFFF" points="50.142,75.503 44.546,71.594 42.764,72.399 45.532,78.586 		"/>
		<path fill="#FFFFFF" d="M60.976,84.401l-8.196-7.328l-0.293-0.35l-8.511,7.764l-4.51-11.146
			c-14.628,7.303-21.439,3.791-22.01,23.088c0,0-0.485,2.135,2.008,2.447h26.539l15.314,0.143l25.133-0.164
			c0,0,0.609,0.043,1.212-0.231c0.598-0.286,1.174-0.894,1.109-2.184c-0.837-17.832-7.097-16.125-20.753-22.22"/>
		<polygon fill="#F2F2F2" points="54.99,75.627 59.804,78.751 63.732,72.8 61.374,71.823 		"/>
		<path fill="#F2F2F2" d="M67.911,74.133c13.319,5.821,20.238,4.792,21.064,22.371c0.06,1.29-0.511,1.897-1.108,2.184
			c-0.604,0.274-1.212,0.229-1.212,0.229l-34.209,0.072l0.048-22.282l8.481,7.694L67.911,74.133z"/>
		<path fill="#FFFFFF" d="M52.704,31.222l-0.002,0.014c5.371,0.546,11.057,2.363,15.543,6.911
			c-0.173-2.579-1.051-9.272-5.428-12.052c-3.261-2.067-6.532-3.099-10.113-3.177c-1.039-0.021-2.095,0.027-3.193,0.167
			c-8.896,1.131-12.336,9.426-12.336,9.426c0,0.035,0.005,0.064,0.005,0.095C40.088,31.83,46.167,30.548,52.704,31.222z"/>
		<path fill="#FFFFFF" d="M66.097,55.505c0.016,0,0.029-0.009,0.043-0.012c0.005-0.002,0.005-0.008,0.011-0.01
			c0.043,0,0.08-0.018,0.124-0.03c0.342-0.187,0.635-0.851,0.635-1.368v-0.201c0.197-0.611,0.619-1.215,0.811-2.027
			c0.406-1.013,1.43-4.266,0.406-5.076c-0.051-0.023-0.104-0.026-0.161-0.008c-0.291,0.107-0.646,0.562-0.851,0.609
			c-0.108,0.045-0.184,0.018-0.205-0.194l-0.202-2.741c-4.617-1.427-9.806-3.029-14.003-3.419c-0.737-0.065-1.448-0.108-2.116-0.089
			c-7.097,0.164-11.179,3.18-11.179,3.18c-0.262,0.522-0.277,3.069-0.277,3.069s-0.622-0.611-1.43,0
			c-1.012,1.018,0,3.452,0.406,4.669c0.213,0.812,0.617,1.416,0.811,1.825c0,0,0,0.202,0,0.403c0,0.811,0.409,1.42,0.816,1.42
			c1.018,3.855,2.7,5.511,4.291,8.004c0,0,2.822,3.403,8.031,5.005c0,0,0.232-0.029,0.646-0.126v-0.012
			c0.684-0.156,1.906-0.517,3.506-1.303c1.508-0.743,3.336-1.86,5.325-3.537C63.331,62.022,65.294,58.754,66.097,55.505z"/>
		<path fill="#F2F2F2" d="M56.253,67.138c1.508-0.746,3.338-1.863,5.331-3.543c1.793-1.514,3.753-4.781,4.561-8.029
			c0.017,0,0.027-0.005,0.038-0.01c0.005-0.006,0.005-0.012,0.011-0.017c0.037,0,0.083-0.011,0.126-0.029
			c0.34-0.181,0.639-0.849,0.639-1.365V53.94c0.193-0.606,0.616-1.212,0.805-2.025c0.412-1.012,1.43-4.262,0.412-5.072
			c-0.057-0.027-0.107-0.027-0.167-0.011c-0.291,0.113-0.644,0.567-0.851,0.608c-0.105,0.043-0.181,0.016-0.199-0.193l-0.205-2.738
			c-4.62-1.43-9.752-3.218-14.687-3.549l0.048,27.615C52.796,68.419,54.653,67.919,56.253,67.138z"/>
		<path fill="#F2F2F2" d="M68.293,38.206c-0.178-2.574-1.056-9.273-5.433-12.052c-3.258-2.067-6.532-3.099-10.113-3.177l0.027,8.258
			C58.143,31.781,63.802,33.661,68.293,38.206z"/>
		<path fill="#FFFFFF" d="M63.759,39.342l0.191-1.05c0.1-0.25-0.035-0.518-0.285-0.778c-0.805-0.509-1.64-0.95-2.477-1.338
			c-2.752-1.276-5.657-1.952-8.484-2.251c-4.723-0.501-9.224,0.057-12.398,0.689c-1.753,0.353-3.094,0.721-3.861,0.947
			c-0.436,0.662-1.335,3.045-1.335,3.045c-0.536,0.935-0.026,1.428-0.026,1.428c0.826,1.24,1.128,1.499,1.895,1.022
			c0,0,4.303-4.171,14.447-3.915c0,0,0.49-0.019,1.279,0.009v-0.027c2.237,0.087,7.262-0.204,10.15,2.435
			C62.854,39.558,63.544,40.16,63.759,39.342z"/>
		<path fill="#F2F2F2" d="M52.704,37.15c0,0,7.262-0.231,10.15,2.407c0,0,0.689,0.603,0.904-0.216l0.191-1.05
			c0.1-0.25-0.035-0.518-0.285-0.778c-0.805-0.509-1.64-0.95-2.477-1.338c-2.752-1.276-5.657-1.952-8.484-2.251"/>
	</g>
</g>
</svg>
