<?xml version="1.0" encoding="utf-8"?>
<!-- Generator: Adobe Illustrator 16.0.0, SVG Export Plug-In . SVG Version: 6.00 Build 0)  -->
<!DOCTYPE svg PUBLIC "-//W3C//DTD SVG 1.1//EN" "http://www.w3.org/Graphics/SVG/1.1/DTD/svg11.dtd">
<svg version="1.1" id="Capa_1" xmlns="http://www.w3.org/2000/svg" xmlns:xlink="http://www.w3.org/1999/xlink" x="0px" y="0px"
	 width="58.208px" height="55.559px" viewBox="0 -0.974 58.208 55.559" enable-background="new 0 -0.974 58.208 55.559"
	 xml:space="preserve">
<g>
	<path fill="#00B643" d="M20.1,2.262c-6.797,1.938-5.499,8.412-4.527,13.269c0,0-0.494-0.486-1.138,0
		c-0.81,0.812,0,2.755,0.322,3.724c0.167,0.649,0.491,1.132,0.648,1.458c0,0,0,0.159,0,0.32c0,0.648,0.329,1.134,0.651,1.134
		c0.808,3.074,2.153,4.399,3.424,6.387c0,0,2.241,3.074,4.669,3.193l1.934,0.018V0.05C22.788-0.162,20.1,0.539,20.1,2.262z"/>
	<g>
		<path fill="#00B643" d="M22.965,36.128l-3.257-3.436l-0.097-0.008C7.133,39.862,0.668,36.065,0.216,51.421
			c0,0-0.364,1.586,1.487,1.818h24.376V33.708L22.965,36.128z"/>
	</g>
	<g opacity="0.3">
		<path fill="#CECECE" d="M1.381,45.932c-0.107,1.27-0.318,3.598,0.106,4.764c0.529,1.375,1.167,1.164,2.647,1.271
			c2.011,0.205,6.141,0.734,7.303-1.59c1.164-2.33-1.059-3.707-1.903-5.396c-2.437-4.449,5.291-9.002,8.466-9.844v-0.85
			c-3.6,3.809-9.738,3.064-13.443,6.244C2.861,41.909,1.697,43.817,1.381,45.932z"/>
	</g>
	<path fill="#00A643" d="M36.026,33.936c-0.801-0.381-1.626-0.791-2.486-1.254l-0.034,0.008l-3.374,3.611l-3.73-2.844l-0.317,0.248
		v19.531h0.651h0.321h4.625l1.434-14.332L36.026,33.936z"/>
	<path fill="#00A643" d="M33.457,28.575c1.136-1.489,2.991-3.817,3.639-6.412c0.326,0,0.645-0.647,0.645-1.134v-0.16
		c0.159-0.485,0.496-0.968,0.647-1.617c0.326-0.807,1.14-3.401,0.326-4.048c-0.326-0.163-0.646-0.163-0.974,0.324
		c0,0,1.299-6.151,0.326-8.898c-1.147-4.02-7.209-6.269-11.982-6.581V31.76l3.575,0.037C29.658,31.8,31.381,31.264,33.457,28.575z"
		/>
	<polygon fill="#FFFFFF" points="49.837,40.696 50.235,40.007 49.824,40.682 	"/>
	<polygon fill="#FFFFFF" points="54.583,24.685 53.312,24.055 54.583,24.723 	"/>
	<path fill="#FFFFFF" d="M40.704,45.678c-0.303-0.238-0.653-0.467-1.047-0.67l-0.024,0.039c0.034,0.023,0.076,0.043,0.106,0.061
		C40.103,45.282,40.413,45.475,40.704,45.678z"/>
	<path fill="#00B643" d="M46.55,20.719l-8.338,14.206l-2.815,4.801c-0.08,0.172-0.152,0.352-0.201,1.041l-0.813,12.029
		c0,0,0,0.211,0.067,0.445l0,0c0.015,0.051,0.037,0.102,0.06,0.156l0.099-0.156l0,0l0.993-1.621l0.084-0.137
		c-0.007-0.055-0.009-0.1-0.009-0.1l0.373-7.305c0.711-0.016,2.586,0.365,3.582,0.969l0.024-0.039l4.68-7.627l8.363-13.626
		L46.55,20.719z"/>
	<polygon fill="#EBEBEB" points="52.711,23.742 52.7,23.755 53.312,24.055 	"/>
	<polygon fill="#EBEBEB" points="50.235,40.007 54.583,32.862 54.583,32.471 	"/>
	<path fill="#00A643" d="M54.583,24.723l-1.271-0.668l-0.608-0.299l-8.364,13.625l-4.68,7.627c0.394,0.203,0.742,0.432,1.047,0.67
		c1.016,0.709,1.626,1.555,1.868,2.232l-5.98,3.791c-0.571,0.35-0.785,0.154-0.864-0.049c-0.027-0.064-0.04-0.119-0.043-0.172
		l-0.084,0.137c0,0,0.001,0,0.002,0.002l-0.995,1.619l-0.1,0.158c0.026,0.057,0.052,0.109,0.087,0.162
		c0.228,0.072,0.534,0.053,0.98-0.162l0.258-0.158h0.002l10.002-6.219c0.337-0.25,0.424-0.42,0.59-0.756l3.397-5.582l0.411-0.676
		l4.349-7.539l3.435-5.95L54.583,24.723z"/>
</g>
</svg>
