<?xml version="1.0" encoding="utf-8"?>
<!-- Generator: Adobe Illustrator 16.0.0, SVG Export Plug-In . SVG Version: 6.00 Build 0)  -->
<!DOCTYPE svg PUBLIC "-//W3C//DTD SVG 1.1//EN" "http://www.w3.org/Graphics/SVG/1.1/DTD/svg11.dtd">
<svg version="1.1" id="Capa_1" xmlns="http://www.w3.org/2000/svg" xmlns:xlink="http://www.w3.org/1999/xlink" x="0px" y="0px"
	 width="30.161px" height="27.794px" viewBox="0 0 30.161 27.794" enable-background="new 0 0 30.161 27.794" xml:space="preserve">
<g>
	<path fill="#00B643" d="M10.416,1.399c-3.461,0.988-2.8,4.285-2.307,6.758c0,0-0.25-0.249-0.578,0
		c-0.412,0.412,0,1.402,0.163,1.895c0.086,0.33,0.251,0.577,0.331,0.741c0,0,0,0.081,0,0.165c0,0.328,0.167,0.576,0.332,0.576
		c0.411,1.567,1.097,2.239,1.742,3.253c0,0,1.142,1.563,2.377,1.624l0.985,0.011V0.275C11.783,0.166,10.416,0.524,10.416,1.399z"/>
	<g>
		<path fill-rule="evenodd" clip-rule="evenodd" fill="#00B643" d="M11.874,18.643l-1.658-1.75l-0.048-0.003
			c-6.353,3.65-9.645,1.72-9.875,9.538c0,0-0.185,0.809,0.757,0.926h12.412v-9.943L11.874,18.643z"/>
	</g>
	<path fill="#00A643" d="M18.522,17.527c-0.408-0.193-0.828-0.402-1.266-0.637l-0.016,0.003l-1.719,1.839l-1.9-1.446l-0.16,0.125
		v9.943h0.332h0.164h2.354l0.729-7.296L18.522,17.527z"/>
	<path fill="#00A643" d="M17.213,14.795c0.58-0.756,1.525-1.941,1.854-3.262c0.165,0,0.33-0.329,0.33-0.576v-0.084
		c0.08-0.245,0.25-0.492,0.329-0.822c0.165-0.411,0.579-1.731,0.165-2.061c-0.165-0.083-0.329-0.083-0.494,0.166
		c0,0,0.659-3.132,0.165-4.532c-0.584-2.046-3.671-3.191-6.101-3.35v16.146l1.819,0.02C15.281,16.441,16.161,16.167,17.213,14.795z"
		/>
	<path fill="#00B643" d="M17.592,27.354c0.03,0.053,0.075,0.096,0.13,0.13l0.08-0.13H17.592z"/>
	<path fill="#00B643" d="M24.084,10.801l-4.467,7.222l-1.437,2.321c-0.044,0.084-0.079,0.173-0.115,0.527l-0.557,6.112
		c0,0-0.008,0.209,0.083,0.37h0.21l0.506-0.825c-0.129-0.056-0.123-0.248-0.123-0.248l0.277-3.715
		c0.374,0.002,1.382,0.231,1.864,0.57c0.017,0.009,0.029,0.02,0.046,0.028l2.383-3.883l4.262-6.943L24.084,10.801z"/>
	<path fill="#00A643" d="M17.723,27.484c0.116,0.072,0.292,0.087,0.573-0.05l0.129-0.08h-0.622L17.723,27.484z"/>
	<path fill="#00A643" d="M27.97,12.836l-0.952-0.498l-4.262,6.943l-2.383,3.883c0.786,0.412,1.22,0.994,1.364,1.431l-3.089,1.858
		c-0.168,0.098-0.272,0.104-0.34,0.075l-0.506,0.825h0.622l5.095-3.166c0.172-0.129,0.215-0.212,0.303-0.385l1.728-2.84l2.42-3.979
		l1.913-3.146L27.97,12.836z"/>
</g>
</svg>
