<?xml version="1.0" encoding="utf-8"?>
<!-- Generator: Adobe Illustrator 16.0.0, SVG Export Plug-In . SVG Version: 6.00 Build 0)  -->
<!DOCTYPE svg PUBLIC "-//W3C//DTD SVG 1.1//EN" "http://www.w3.org/Graphics/SVG/1.1/DTD/svg11.dtd">
<svg version="1.1" id="Capa_1" xmlns="http://www.w3.org/2000/svg" xmlns:xlink="http://www.w3.org/1999/xlink" x="0px" y="0px"
	 width="27.147px" height="27.209px" viewBox="0 0 27.147 27.209" enable-background="new 0 0 27.147 27.209" xml:space="preserve">
<g>
	<path fill="#FFFFFF" d="M17.208,27.2h6.949c0.061-0.75,0.313-5.137-2.116-6.337l-6.827-3.093l-1.987,1.131l-1.604-1.027
		L4.94,20.868C2.517,22.065,2.773,26.45,2.837,27.2h7.079"/>
	<path fill="#FFFFFF" d="M3.742,20.118l6.986-2.894L9.924,16.7c-6.375,3.665-9.677,1.727-9.909,9.572c0,0-0.186,0.811,0.759,0.928
		h0.387C1.077,26.153,0.879,21.534,3.742,20.118z"/>
	<path fill="#FFFFFF" d="M8.028,10.115c0,0,0,0.08,0,0.158c0,0.316,0.16,0.555,0.318,0.555c0.396,1.502,1.052,2.146,1.671,3.119
		c0,0,1.155,1.405,3.129,1.951c0,0,1.615-0.19,3.696-1.941c0.698-0.588,1.463-1.863,1.777-3.129c0.158,0,0.315-0.318,0.315-0.555
		v-0.078c0.079-0.237,0.242-0.475,0.316-0.791c0.16-0.393,0.557-1.66,0.16-1.977c-0.16-0.08-0.315-0.08-0.476,0.158
		c0,0,0.634-3.004,0.16-4.346c-0.948-3.319-8.774-4.191-8.774-2.136C7.001,2.054,7.636,5.215,8.11,7.586c0,0-0.241-0.238-0.556,0
		c-0.396,0.396,0,1.346,0.158,1.818C7.794,9.721,7.952,9.958,8.028,10.115z"/>
	<path fill="#F2F2F2" d="M13.373,18.812l1.875-1.076l6.828,3.135c2.429,1.2,2.177,5.586,2.114,6.338h-7.004h-3.504H13.3v-8.314
		L13.373,18.812z"/>
	<path fill="#F2F2F2" d="M17.032,16.688l-0.645,0.507l7.009,2.925c2.875,1.42,2.677,6.041,2.593,7.088h0.259
		c0,0,0.944,0.07,0.896-0.922C26.792,18.733,23.506,20.152,17.032,16.688z"/>
	<path fill="#F2F2F2" d="M13.26,0.378v15.527c0,0,1.615-0.189,3.695-1.94c0.698-0.589,1.464-1.864,1.778-3.131
		c0.158,0,0.315-0.316,0.315-0.553v-0.079c0.077-0.237,0.241-0.474,0.315-0.79c0.159-0.395,0.557-1.66,0.159-1.977
		c-0.159-0.08-0.315-0.08-0.474,0.157c0,0,0.633-3.003,0.159-4.346c-0.569-1.991-3.614-3.101-5.959-3.228L13.26,0.378z"/>
</g>
</svg>
