<?xml version="1.0" encoding="utf-8"?>
<!-- Generator: Adobe Illustrator 16.0.0, SVG Export Plug-In . SVG Version: 6.00 Build 0)  -->
<!DOCTYPE svg PUBLIC "-//W3C//DTD SVG 1.1//EN" "http://www.w3.org/Graphics/SVG/1.1/DTD/svg11.dtd">
<svg version="1.1" id="Capa_1" xmlns="http://www.w3.org/2000/svg" xmlns:xlink="http://www.w3.org/1999/xlink" x="0px" y="0px"
	 width="27.147px" height="27.209px" viewBox="0 0 27.147 27.209" enable-background="new 0 0 27.147 27.209" xml:space="preserve">
<g>
	<polygon fill="#FFFFFF" points="12.464,18.877 10.435,17.459 9.789,17.751 10.793,19.995 	"/>
	<path fill="#FFFFFF" d="M16.394,22.104l-2.973-2.658l-0.106-0.127l-3.087,2.816l-1.636-4.043c-5.306,2.648-7.776,1.375-7.983,8.374
		c0,0-0.176,0.774,0.728,0.888h9.626l5.555,0.052l9.116-0.06c0,0,0.222,0.016,0.44-0.084c0.217-0.104,0.425-0.324,0.402-0.792
		c-0.304-6.468-2.574-5.849-7.527-8.06"/>
	<polygon fill="#F2F2F2" points="14.223,18.922 15.969,20.055 17.394,17.896 16.539,17.542 	"/>
	<path fill="#F2F2F2" d="M18.91,18.38c4.831,2.111,7.34,1.738,7.64,8.114c0.022,0.468-0.185,0.688-0.401,0.792
		c-0.219,0.1-0.44,0.083-0.44,0.083L13.3,27.396l0.018-8.082l3.076,2.791L18.91,18.38z"/>
	<path fill="#FFFFFF" d="M13.394,2.815l0,0.005c1.948,0.197,4.01,0.857,5.638,2.507c-0.063-0.935-0.382-3.364-1.969-4.37
		c-1.183-0.75-2.37-1.125-3.668-1.152c-0.376-0.008-0.759,0.009-1.158,0.061C9.01,0.273,7.762,3.283,7.762,3.283
		c0,0.013,0.001,0.023,0.001,0.035C8.818,3.035,11.022,2.572,13.394,2.815z"/>
	<path fill="#FFFFFF" d="M18.252,11.623c0.006,0,0.01-0.004,0.016-0.004c0.001-0.002,0.001-0.003,0.003-0.004
		c0.016,0,0.03-0.006,0.045-0.012c0.124-0.066,0.231-0.308,0.231-0.495v-0.073c0.071-0.221,0.225-0.441,0.293-0.736
		c0.147-0.367,0.518-1.545,0.147-1.84c-0.018-0.008-0.038-0.01-0.058-0.003c-0.106,0.039-0.234,0.204-0.308,0.22
		c-0.039,0.018-0.066,0.008-0.074-0.07l-0.074-0.992c-1.675-0.519-3.557-1.1-5.08-1.24c-0.267-0.024-0.525-0.04-0.768-0.033
		c-2.574,0.06-4.054,1.154-4.054,1.154C8.477,7.683,8.471,8.605,8.471,8.605s-0.225-0.221-0.519,0c-0.368,0.37,0,1.254,0.147,1.693
		c0.077,0.295,0.224,0.516,0.294,0.662c0,0,0,0.074,0,0.147c0,0.294,0.148,0.515,0.296,0.515c0.369,1.398,0.98,2,1.557,2.903
		c0,0,1.023,1.234,2.913,1.815c0,0,0.084-0.011,0.234-0.046v-0.004c0.248-0.057,0.692-0.188,1.271-0.473
		c0.547-0.27,1.21-0.675,1.933-1.283C17.249,13.987,17.96,12.801,18.252,11.623z"/>
	<path fill="#F2F2F2" d="M14.682,15.843c0.546-0.271,1.21-0.677,1.933-1.286c0.65-0.548,1.362-1.733,1.654-2.912
		c0.006,0,0.011-0.002,0.014-0.003c0.002-0.003,0.002-0.004,0.003-0.005c0.015,0,0.031-0.006,0.046-0.012
		c0.123-0.066,0.231-0.309,0.231-0.494v-0.074c0.07-0.221,0.224-0.441,0.292-0.736c0.149-0.366,0.518-1.545,0.149-1.84
		c-0.02-0.008-0.039-0.009-0.06-0.003c-0.106,0.04-0.234,0.206-0.309,0.221c-0.039,0.017-0.066,0.007-0.073-0.07l-0.074-0.993
		c-1.675-0.518-3.537-1.166-5.327-1.287l0.018,10.017C13.427,16.308,14.101,16.126,14.682,15.843z"/>
	<path fill="#F2F2F2" d="M19.048,5.349c-0.064-0.934-0.382-3.363-1.97-4.37c-1.182-0.75-2.369-1.125-3.667-1.153l0.01,2.995
		C15.367,3.018,17.419,3.699,19.048,5.349z"/>
	<path fill="#FFFFFF" d="M17.404,5.761l0.069-0.382c0.036-0.09-0.013-0.187-0.104-0.281c-0.292-0.186-0.594-0.345-0.898-0.486
		c-0.998-0.461-2.052-0.707-3.078-0.814c-1.712-0.184-3.345,0.02-4.497,0.25c-0.636,0.127-1.122,0.261-1.4,0.344
		c-0.158,0.24-0.484,1.104-0.484,1.104c-0.194,0.338-0.01,0.518-0.01,0.518c0.299,0.451,0.41,0.543,0.688,0.371
		c0,0,1.561-1.514,5.24-1.42c0,0,0.178-0.007,0.463,0.004v-0.01c0.812,0.03,2.634-0.076,3.682,0.882
		C17.076,5.839,17.326,6.058,17.404,5.761z"/>
	<path fill="#F2F2F2" d="M13.394,4.967c0,0,2.634-0.086,3.682,0.872c0,0,0.25,0.219,0.328-0.078l0.069-0.382
		c0.036-0.09-0.013-0.187-0.104-0.281c-0.292-0.186-0.594-0.345-0.898-0.486c-0.998-0.461-2.052-0.707-3.078-0.814"/>
</g>
</svg>
