<?xml version="1.0" encoding="utf-8"?>
<!-- Generator: Adobe Illustrator 16.0.0, SVG Export Plug-In . SVG Version: 6.00 Build 0)  -->
<!DOCTYPE svg PUBLIC "-//W3C//DTD SVG 1.1//EN" "http://www.w3.org/Graphics/SVG/1.1/DTD/svg11.dtd">
<svg version="1.1" id="Capa_1" xmlns="http://www.w3.org/2000/svg" xmlns:xlink="http://www.w3.org/1999/xlink" x="0px" y="0px"
	 width="54.166px" height="51.667px" viewBox="0 0 54.166 51.667" enable-background="new 0 0 54.166 51.667" xml:space="preserve">
<g>
	<g>
		<g>
			<path fill-rule="evenodd" clip-rule="evenodd" fill="#00B643" d="M1.709,28.174c0.029,0.187,0.049,0.376,0.09,0.56
				c0.184,0.858,0.613,1.586,1.184,2.24c0.627,0.719,1.373,1.293,2.182,1.791c1.127,0.695,2.334,1.207,3.588,1.617
				c1.027,0.336,2.074,0.592,3.135,0.786c1.182,0.215,2.371,0.349,3.57,0.417c1.057,0.057,2.121,0.068,3.178,0.006
				c0.711-0.043,1.422-0.107,2.131-0.183c1.139-0.122,2.262-0.337,3.367-0.624c1.713-0.441,3.357-1.043,4.877-1.958
				c0.926-0.557,1.773-1.212,2.455-2.06c0.529-0.656,0.91-1.387,1.049-2.229c0.125-0.77,0.02-1.509-0.287-2.223
				c-0.328-0.765-0.828-1.403-1.428-1.968c-0.975-0.923-2.113-1.593-3.33-2.146c-1.375-0.624-2.809-1.072-4.289-1.372
				c-0.775-0.157-1.559-0.294-2.344-0.396c-1.604-0.214-3.215-0.271-4.828-0.208c-0.721,0.03-1.443,0.076-2.164,0.145
				c-1.201,0.118-2.383,0.339-3.545,0.668c-0.066,0.018-0.135,0.038-0.203,0.059c-0.004,0.001-0.01,0.006-0.018,0.016
				c0.23,0.215,0.457,0.424,0.686,0.636c0.303,0.279,0.605,0.557,0.906,0.838c0.047,0.044,0.088,0.057,0.154,0.042
				c1.326-0.295,2.672-0.439,4.031-0.469c0.85-0.018,1.695-0.017,2.545,0.007c0.881,0.021,1.754,0.114,2.627,0.237
				c1.354,0.192,2.684,0.485,3.982,0.916c1.266,0.422,2.48,0.951,3.582,1.714c0.592,0.407,1.131,0.873,1.543,1.467
				c0.244,0.35,0.424,0.727,0.484,1.152c0.064,0.47-0.047,0.906-0.266,1.318c-0.293,0.57-0.73,1.02-1.221,1.424
				c-0.727,0.598-1.539,1.056-2.393,1.445c-1.277,0.582-2.609,0.986-3.977,1.284c-0.828,0.179-1.664,0.314-2.508,0.407
				c-1.377,0.154-2.756,0.206-4.139,0.155c-0.877-0.034-1.75-0.106-2.619-0.222c-1.258-0.166-2.496-0.418-3.709-0.783
				C8.5,32.29,7.252,31.792,6.102,31.078c-0.695-0.433-1.342-0.93-1.848-1.585c-0.316-0.411-0.551-0.859-0.604-1.387
				c-0.047-0.414,0.051-0.802,0.23-1.173c0.271-0.561,0.682-1.01,1.15-1.41c0.67-0.577,1.424-1.026,2.221-1.408
				c0.033-0.015,0.092-0.001,0.129,0.018c0.949,0.547,1.898,1.095,2.846,1.643c0.699,0.402,1.395,0.805,2.096,1.207
				c0.201,0.116,0.385,0.497,0.334,0.726c-0.186,0.82,0.117,1.468,0.736,1.978c0.615,0.506,1.332,0.686,2.105,0.481
				c0.891-0.233,1.41-0.848,1.596-1.734c0.168-0.797-0.023-1.508-0.619-2.083c-0.387-0.374-0.859-0.57-1.391-0.613
				c-0.273-0.022-0.543,0.053-0.803,0.138c-0.158,0.051-0.311,0.116-0.469,0.173c-0.293,0.104-0.588,0.083-0.83-0.095
				c-1.531-1.115-3.055-2.244-4.578-3.371c-0.244-0.179-0.471-0.377-0.717-0.554c-0.377-0.275-0.764-0.533-1.139-0.809
				c-0.908-0.662-1.826-1.312-2.711-2.003c-0.635-0.496-1.875-0.295-2.07,0.885c-0.062,0.396,0.031,0.748,0.361,1.005
				c0.082,0.062,0.18,0.101,0.268,0.151c0.943,0.545,1.887,1.089,2.828,1.633c0.02,0.013,0.043,0.028,0.059,0.038
				c-0.305,0.207-0.613,0.402-0.91,0.617c-0.797,0.582-1.5,1.259-2.012,2.115c-0.352,0.589-0.58,1.222-0.637,1.91
				c-0.002,0.021-0.01,0.042-0.016,0.064C1.709,27.814,1.709,27.995,1.709,28.174z"/>
			<path fill-rule="evenodd" clip-rule="evenodd" fill="#00B643" d="M15.672,49.772c-0.031-0.004-0.062-0.012-0.094-0.016
				c-0.709-0.062-1.42-0.117-2.129-0.193c-1.193-0.133-2.369-0.359-3.527-0.664c-0.576-0.154-1.141-0.346-1.713-0.514
				c-0.055-0.018-0.082-0.045-0.076-0.104c0.006-0.018,0.004-0.039,0.004-0.059c0-4.064,0-8.131,0-12.196c0-0.04,0-0.081,0-0.138
				c2.504,0.859,5.076,1.283,7.713,1.412c0,0.041,0,0.076,0,0.11c0,4.089,0,8.177,0,12.267c0,0.031-0.002,0.064-0.006,0.094
				C15.787,49.772,15.729,49.772,15.672,49.772z"/>
			<path fill-rule="evenodd" clip-rule="evenodd" fill="#00B643" d="M18.43,49.772c-0.004-0.039-0.004-0.076-0.004-0.115
				c-0.002-4.074-0.002-8.15-0.002-12.227c0-0.04,0-0.081,0-0.129c2.637-0.129,5.209-0.553,7.715-1.412c0,0.049,0,0.083,0,0.118
				c0,4.079,0,8.157,0,12.235c0,0.092-0.027,0.125-0.107,0.154c-1.234,0.418-2.494,0.736-3.777,0.953
				c-0.594,0.098-1.193,0.189-1.791,0.258c-0.586,0.066-1.174,0.1-1.76,0.148c-0.033,0.004-0.066,0.012-0.102,0.016
				C18.545,49.772,18.486,49.772,18.43,49.772z"/>
			<path fill-rule="evenodd" clip-rule="evenodd" fill="#00B643" d="M32.564,42.329c-0.027,0.193-0.047,0.387-0.086,0.58
				c-0.152,0.775-0.512,1.453-1.008,2.062c-0.545,0.674-1.203,1.219-1.918,1.699c-0.244,0.164-0.498,0.316-0.75,0.475
				c-0.025,0.016-0.053,0.029-0.094,0.051c0-0.047,0-0.08,0-0.115c0-4.08,0-8.162-0.002-12.243c0-0.081,0.025-0.124,0.094-0.165
				c0.852-0.501,1.643-1.079,2.316-1.809c0.582-0.625,1.047-1.324,1.281-2.156c0.072-0.254,0.102-0.521,0.148-0.783
				c0.004-0.025,0.014-0.049,0.018-0.074C32.564,34.01,32.564,38.171,32.564,42.329z"/>
			<path fill-rule="evenodd" clip-rule="evenodd" fill="#00B643" d="M1.709,29.91c0.043,0.427,0.137,0.841,0.293,1.239
				c0.287,0.734,0.746,1.352,1.301,1.903c0.645,0.642,1.381,1.159,2.162,1.616c0.076,0.045,0.102,0.093,0.102,0.182
				c0,4.07,0,8.141,0,12.215c0,0.037,0,0.074,0,0.119c-0.018-0.002-0.031-0.002-0.037-0.008c-0.936-0.547-1.801-1.18-2.518-2
				c-0.514-0.586-0.918-1.236-1.139-1.99c-0.107-0.371-0.164-0.752-0.164-1.141c0-4,0-8.001,0-12.002
				C1.709,29.999,1.709,29.954,1.709,29.91z"/>
		</g>
		<path fill="#00B643" d="M52.906,16.057c0.225,0.103,0.408,0.02,0.412-0.214c0.016-4.374-0.064-7.911-0.041-12.287h-0.053
			c0-0.238-0.141-0.537-0.369-0.656c-0.104-0.053-0.207-0.099-0.309-0.146c-4.406-2.027-7.486,0.035-11.904,1.029
			c-2.592,0.582-5.184,0.799-7.764-0.388c-0.02-0.01-0.037-0.018-0.055-0.025V2.987c0.002-0.276-0.156-0.512-0.393-0.621
			c-0.084-0.039-0.178-0.06-0.281-0.059c-0.371-0.005-0.676,0.296-0.68,0.67l-0.049,11.181L31.32,35.573
			c0,0.184,0.074,0.354,0.193,0.477c0.059,0.057,0.125,0.103,0.201,0.139c0.084,0.039,0.178,0.061,0.273,0.061
			c0.379,0.003,0.68-0.299,0.682-0.673l0.189-19.062c0.018,0.01,0.035,0.018,0.055,0.024c6.99,3.216,12.68-3.855,19.67-0.642
			L52.906,16.057z"/>
	</g>
	<g>
		<path fill="#00A643" d="M29.01,32.826c0.873-0.525,1.672-1.145,2.332-1.924l0.029-5.944c-0.18-0.213-0.367-0.418-0.572-0.611
			c-0.975-0.923-2.113-1.593-3.33-2.146c-1.352-0.613-2.76-1.055-4.213-1.354v1.984c0.59,0.141,1.176,0.296,1.754,0.487
			c1.266,0.422,2.48,0.951,3.582,1.714c0.592,0.407,1.131,0.873,1.543,1.467c0.244,0.35,0.424,0.727,0.484,1.152
			c0.064,0.47-0.047,0.906-0.266,1.318c-0.293,0.57-0.73,1.02-1.221,1.424c-0.727,0.598-1.539,1.056-2.393,1.445
			c-1.123,0.512-2.291,0.881-3.484,1.167v1.975c0.293-0.064,0.588-0.121,0.877-0.196C25.846,34.343,27.49,33.741,29.01,32.826z"/>
		<path fill="#00A643" d="M26.139,48.243c0-4.078,0-8.156,0-12.235c0-0.035,0-0.069,0-0.118c-0.951,0.326-1.914,0.571-2.883,0.78
			v12.47c0.936-0.199,1.865-0.434,2.775-0.742C26.111,48.368,26.139,48.335,26.139,48.243z"/>
		<path fill="#00A643" d="M31.988,36.249c-0.096,0-0.189-0.021-0.273-0.061c-0.076-0.036-0.143-0.082-0.201-0.139
			c-0.119-0.123-0.193-0.293-0.193-0.477l0.014-2.964c-0.072,0.085-0.141,0.173-0.217,0.255c-0.674,0.729-1.465,1.308-2.316,1.809
			c-0.068,0.041-0.094,0.084-0.094,0.165c0.002,4.081,0.002,8.163,0.002,12.243c0,0.035,0,0.068,0,0.115
			c0.041-0.021,0.068-0.035,0.094-0.051c0.252-0.158,0.506-0.311,0.75-0.475c0.715-0.48,1.373-1.025,1.918-1.699
			c0.496-0.609,0.855-1.287,1.008-2.062c0.039-0.193,0.059-0.387,0.086-0.58c0-2.137,0-4.275,0-6.413
			C32.445,36.113,32.238,36.251,31.988,36.249z"/>
		<path fill="#00A643" d="M32.514,28.537c-0.139,0.843-0.52,1.573-1.049,2.229c-0.039,0.048-0.082,0.089-0.123,0.136l-0.008,1.707
			c0.477-0.561,0.861-1.179,1.064-1.901c0.072-0.254,0.102-0.521,0.148-0.783c0.004-0.025,0.014-0.049,0.018-0.074
			c0,2.021,0,4.043,0,6.065c0.061-0.102,0.104-0.213,0.105-0.34l0.189-19.062c0.018,0.01,0.035,0.018,0.055,0.024
			c6.99,3.216,12.68-3.855,19.67-0.642l0.322,0.159c0.225,0.103,0.408,0.02,0.412-0.214c0.016-4.374-0.064-7.911-0.041-12.287
			h-0.053c0-0.238-0.141-0.537-0.369-0.656c-0.104-0.053-0.207-0.099-0.309-0.146c-4.406-2.027-7.486,0.035-11.904,1.029
			c-2.592,0.582-5.184,0.799-7.764-0.388c-0.02-0.01-0.037-0.018-0.055-0.025V2.987c0.002-0.276-0.156-0.512-0.393-0.621
			c-0.084-0.039-0.178-0.06-0.281-0.059c-0.371-0.005-0.676,0.296-0.68,0.67l-0.049,11.181l-0.051,10.8
			c0.344,0.408,0.641,0.853,0.855,1.356C32.533,27.028,32.639,27.768,32.514,28.537z"/>
		<path fill="#00A643" d="M31.465,30.767c0.529-0.656,0.91-1.387,1.049-2.229c0.125-0.77,0.02-1.509-0.287-2.223
			c-0.215-0.504-0.512-0.948-0.855-1.356l-0.029,5.944C31.383,30.855,31.426,30.814,31.465,30.767z"/>
		<path fill="#00A643" d="M32.547,29.925c-0.047,0.262-0.076,0.529-0.148,0.783c-0.203,0.723-0.588,1.341-1.064,1.901l-0.014,2.964
			c0,0.184,0.074,0.354,0.193,0.477c0.059,0.057,0.125,0.103,0.201,0.139c0.084,0.039,0.178,0.061,0.273,0.061
			c0.25,0.002,0.457-0.136,0.576-0.333c0-2.022,0-4.044,0-6.065C32.561,29.876,32.551,29.899,32.547,29.925z"/>
	</g>
</g>
</svg>
