<?xml version="1.0" encoding="utf-8"?>
<!-- Generator: Adobe Illustrator 16.0.0, SVG Export Plug-In . SVG Version: 6.00 Build 0)  -->
<!DOCTYPE svg PUBLIC "-//W3C//DTD SVG 1.1//EN" "http://www.w3.org/Graphics/SVG/1.1/DTD/svg11.dtd">
<svg version="1.1" id="Capa_1" xmlns="http://www.w3.org/2000/svg" xmlns:xlink="http://www.w3.org/1999/xlink" x="0px" y="0px"
	 width="39.828px" height="57.5px" viewBox="0 0 39.828 57.5" enable-background="new 0 0 39.828 57.5" xml:space="preserve">
<g>
	<g>
		<g>
			<path fill="none" d="M8.718,19.954c0.864-0.218,2.96-1.325,3.634-1.927c0.212-0.122,0.252-0.395,0.252-0.395
				c0.247-0.906,0.479-4.225,0.263-5.156c0,0-0.023-0.247-0.27-0.39c-0.691-0.538-2.725-1.38-3.482-1.417
				c0,0-0.241-0.053-0.57,0.273c-0.912,0.865-2.348,3.58-2.647,4.465c-0.058,0.245-0.021,0.481-0.021,0.481
				c0.232,1.021,1.745,3.323,2.338,3.942C8.214,19.832,8.409,20.079,8.718,19.954z"/>
			<path fill="none" d="M9.909,25.497c0,0-0.178-0.171-0.523-0.19l-1.423,0.32c1.584,2.068,3.698,3.703,6.147,4.693v-0.814
				c0,0,0.053-0.301-0.169-0.446L9.909,25.497z"/>
			<path fill="none" d="M22.826,18.25c-0.272-0.188-0.464-0.125-0.464-0.125c-1.011,0.133-4.257,2.021-4.918,2.764
				c0,0-0.168,0.124-0.168,0.455c-0.076,1.117,0.701,4.102,1.041,4.953c0.065,0.239,0.324,0.351,0.324,0.351
				c0.954,0.446,4.134,0.717,5.123,0.733c0,0,0.311,0.012,0.453-0.137c0.794-0.729,2.432-4.167,2.545-5.133
				c0,0,0.024-0.24-0.154-0.443C25.999,20.812,23.747,18.78,22.826,18.25z"/>
			<path fill="none" d="M25.372,5.354c-0.912-0.303-5.012-0.97-6.1-0.718c0,0-0.19-0.044-0.312,0.386
				c-0.377,0.902-1.381,3.437-1.179,4.163c0.011,0.033,0.028,0.072,0.05,0.112c0,0,3.009,3.491,5.332,3.242
				c0.975-0.192,3.126-1.299,3.888-2.051c0,0,0.233-0.136,0.269-0.39c0.004-0.021,0.008-0.041,0.004-0.06
				c-0.027-0.594-0.996-3.49-1.59-4.382C25.62,5.405,25.372,5.354,25.372,5.354z"/>
			<path fill="none" d="M33.502,12.213c-0.421,0.31-1.366,1.021-1.851,1.538c-0.283,0.213-0.277,0.38-0.277,0.38
				c-0.215,0.576-0.556,4.625-0.425,5.821c0,0,0.002,0.329,0.174,0.435c0.384,0.469,1.508,1.432,2.019,1.862
				c0.695-1.702,1.084-3.561,1.084-5.51C34.226,15.161,33.966,13.642,33.502,12.213z"/>
			<path fill="#00B643" d="M19.579,1.5c-8.406,0-15.24,6.836-15.24,15.24s6.834,15.245,15.24,15.245
				c8.404,0,15.242-6.841,15.242-15.245S27.983,1.5,19.579,1.5z M5.896,15.408c0.3-0.885,1.735-3.6,2.647-4.465
				c0.329-0.326,0.57-0.273,0.57-0.273c0.758,0.037,2.791,0.879,3.482,1.417c0.246,0.143,0.27,0.39,0.27,0.39
				c0.216,0.932-0.016,4.25-0.263,5.156c0,0-0.04,0.272-0.252,0.395c-0.674,0.602-2.77,1.709-3.634,1.927
				c-0.309,0.125-0.504-0.122-0.504-0.122c-0.593-0.619-2.105-2.922-2.338-3.942C5.876,15.889,5.839,15.653,5.896,15.408z
				 M14.11,29.505v0.814c-2.449-0.99-4.563-2.625-6.147-4.693l1.423-0.32c0.346,0.02,0.523,0.19,0.523,0.19l4.032,3.562
				C14.163,29.205,14.11,29.505,14.11,29.505z M15.253,3.139c0.006,0.38-0.162,0.441-0.162,0.441l-4.689,2.708
				c-0.255,0.135-0.498,0.025-0.498,0.025L9.46,6.173c1.625-1.555,3.596-2.748,5.793-3.429V3.139z M26.763,22.111
				c-0.113,0.966-1.751,4.404-2.545,5.133c-0.143,0.148-0.453,0.137-0.453,0.137c-0.989-0.017-4.169-0.287-5.123-0.733
				c0,0-0.259-0.111-0.324-0.351c-0.34-0.852-1.117-3.836-1.041-4.953c0-0.331,0.168-0.455,0.168-0.455
				c0.661-0.742,3.907-2.631,4.918-2.764c0,0,0.191-0.062,0.464,0.125c0.921,0.53,3.173,2.562,3.782,3.418
				C26.787,21.871,26.763,22.111,26.763,22.111z M27.319,10.099c-0.035,0.254-0.269,0.39-0.269,0.39
				c-0.762,0.752-2.913,1.858-3.888,2.051c-2.323,0.249-5.332-3.242-5.332-3.242c-0.021-0.04-0.039-0.079-0.05-0.112
				c-0.202-0.727,0.802-3.261,1.179-4.163c0.122-0.43,0.312-0.386,0.312-0.386c1.088-0.252,5.188,0.415,6.1,0.718
				c0,0,0.248,0.051,0.361,0.304c0.594,0.892,1.562,3.788,1.59,4.382C27.327,10.058,27.323,10.079,27.319,10.099z M31.123,20.387
				c-0.172-0.105-0.174-0.435-0.174-0.435c-0.131-1.196,0.21-5.245,0.425-5.821c0,0-0.006-0.167,0.277-0.38
				c0.484-0.517,1.43-1.229,1.851-1.538c0.464,1.429,0.724,2.947,0.724,4.526c0,1.949-0.389,3.808-1.084,5.51
				C32.631,21.819,31.507,20.856,31.123,20.387z"/>
		</g>
		<rect x="1.562" y="43.342" fill="#00B643" width="36.502" height="9.115"/>
		<path fill="#00B643" d="M37.995,41.403H1.831c-0.445,0-0.809-0.361-0.809-0.811s0.363-0.811,0.809-0.811h36.164
			c0.449,0,0.811,0.361,0.811,0.811S38.444,41.403,37.995,41.403z"/>
		<path fill="#00B643" d="M37.995,56H1.831c-0.445,0-0.809-0.359-0.809-0.812c0-0.447,0.363-0.809,0.809-0.809h36.164
			c0.449,0,0.811,0.361,0.811,0.809C38.806,55.641,38.444,56,37.995,56z"/>
	</g>
	<g>
		<path fill="none" d="M24.218,27.244c0.794-0.729,2.432-4.167,2.545-5.133c0,0,0.024-0.24-0.154-0.443
			c-0.609-0.855-2.861-2.888-3.782-3.418c-0.272-0.188-0.464-0.125-0.464-0.125c-0.583,0.076-1.905,0.736-3.05,1.423v7.31
			c1.313,0.319,3.631,0.51,4.452,0.523C23.765,27.38,24.075,27.392,24.218,27.244z"/>
		<path fill="none" d="M23.163,12.54c0.975-0.192,3.126-1.299,3.888-2.051c0,0,0.233-0.136,0.269-0.39
			c0.004-0.021,0.008-0.041,0.004-0.06c-0.027-0.594-0.996-3.49-1.59-4.382c-0.113-0.253-0.361-0.304-0.361-0.304
			c-0.902-0.299-4.921-0.954-6.06-0.725v6.12C20.392,11.674,21.881,12.677,23.163,12.54z"/>
		<path fill="none" d="M31.123,20.387c0.384,0.469,1.508,1.432,2.019,1.862c0.695-1.702,1.084-3.561,1.084-5.51
			c0-1.579-0.26-3.098-0.724-4.526c-0.421,0.31-1.366,1.021-1.851,1.538c-0.283,0.213-0.277,0.38-0.277,0.38
			c-0.215,0.576-0.556,4.625-0.425,5.821C30.949,19.953,30.951,20.282,31.123,20.387z"/>
		<path fill="#00A643" d="M34.821,16.74c0-8.404-6.838-15.24-15.242-15.24c-0.09,0-0.177,0.012-0.267,0.014v3.116
			c1.139-0.229,5.157,0.426,6.06,0.725c0,0,0.248,0.051,0.361,0.304c0.594,0.892,1.562,3.788,1.59,4.382
			c0.004,0.019,0,0.039-0.004,0.06c-0.035,0.254-0.269,0.39-0.269,0.39c-0.762,0.752-2.913,1.858-3.888,2.051
			c-1.282,0.138-2.771-0.865-3.851-1.79v8.798c1.145-0.687,2.467-1.347,3.05-1.423c0,0,0.191-0.062,0.464,0.125
			c0.921,0.53,3.173,2.562,3.782,3.418c0.179,0.203,0.154,0.443,0.154,0.443c-0.113,0.966-1.751,4.404-2.545,5.133
			c-0.143,0.148-0.453,0.137-0.453,0.137c-0.821-0.014-3.139-0.204-4.452-0.523v5.114c0.09,0.002,0.177,0.014,0.267,0.014
			C27.983,31.985,34.821,25.144,34.821,16.74z M31.374,14.131c0,0-0.006-0.167,0.277-0.38c0.484-0.517,1.43-1.229,1.851-1.538
			c0.464,1.429,0.724,2.947,0.724,4.526c0,1.949-0.389,3.808-1.084,5.51c-0.511-0.431-1.635-1.394-2.019-1.862
			c-0.172-0.105-0.174-0.435-0.174-0.435C30.818,18.756,31.159,14.708,31.374,14.131z"/>
		<rect x="19.312" y="43.342" fill="#00A643" width="18.751" height="9.115"/>
		<path fill="#00A643" d="M38.806,40.592c0-0.449-0.361-0.811-0.811-0.811H19.312v1.621h18.683
			C38.444,41.403,38.806,41.042,38.806,40.592z"/>
		<path fill="#00A643" d="M38.806,55.188c0-0.447-0.361-0.809-0.811-0.809H19.312V56h18.683C38.444,56,38.806,55.641,38.806,55.188z
			"/>
	</g>
</g>
</svg>
