<?xml version="1.0" encoding="utf-8"?>
<!-- Generator: Adobe Illustrator 16.0.0, SVG Export Plug-In . SVG Version: 6.00 Build 0)  -->
<!DOCTYPE svg PUBLIC "-//W3C//DTD SVG 1.1//EN" "http://www.w3.org/Graphics/SVG/1.1/DTD/svg11.dtd">
<svg version="1.1" id="Capa_1" xmlns="http://www.w3.org/2000/svg" xmlns:xlink="http://www.w3.org/1999/xlink" x="0px" y="0px"
	 width="47px" height="53.333px" viewBox="0 0 47 53.333" enable-background="new 0 0 47 53.333" xml:space="preserve">
<g>
	<g>
		<g>
			<path fill="#00B643" d="M31.381,22.727l-3.049-5.675c-0.725-1.349-1.962-1.38-2.75-0.07l-3.877,6.445
				c-0.789,1.311-2.358,1.727-3.491,0.925c-1.131-0.803-2.842-0.495-3.804,0.685l-3.861,4.735c-0.961,1.178-0.533,2.144,0.953,2.144
				h6.114C19.91,26.558,25.201,22.795,31.381,22.727z"/>
			<path fill="#00B643" d="M16.396,37.872c0-0.117,0.016-0.23,0.018-0.348H6.565V6.876h30.959v17.069
				c1.927,0.828,3.639,2.051,5.056,3.557V3.836c0-0.985-0.806-1.793-1.791-1.793H3.823c-0.985,0-1.791,0.808-1.791,1.793V47.14
				c0,0.982,0.806,1.791,1.791,1.791h17.388C18.255,46.163,16.396,42.239,16.396,37.872z"/>
		</g>
		<ellipse fill="#00B643" cx="14.646" cy="15.773" rx="4.114" ry="4.282"/>
		<g>
			<g>
				<path fill="#00B643" d="M31.551,24.454c-7.411,0-13.418,6.009-13.418,13.42c0,7.41,6.007,13.416,13.418,13.416
					c7.41,0,13.417-6.006,13.417-13.416C44.968,30.463,38.961,24.454,31.551,24.454z M31.551,48.401
					c-5.805,0-10.512-4.707-10.512-10.512s4.707-10.512,10.512-10.512s10.511,4.707,10.511,10.512S37.355,48.401,31.551,48.401z"/>
			</g>
			<circle fill="#00B643" cx="31.247" cy="38.499" r="1.724"/>
			<path fill="#00B643" d="M32.562,38.948c-0.419,0.203-0.924,0.031-1.129-0.387l-0.154-0.318c-0.205-0.42-0.031-0.924,0.389-1.131
				l6.076-2.963c0.418-0.203,0.924-0.031,1.127,0.389l0.156,0.316c0.205,0.422,0.031,0.928-0.388,1.131L32.562,38.948z"/>
		</g>
	</g>
	<g>
		<path fill="none" d="M31.551,48.401c5.805,0,10.511-4.707,10.511-10.512s-4.706-10.512-10.511-10.512
			c-4.076,0-7.603,2.325-9.347,5.717v9.59C23.948,46.075,27.475,48.401,31.551,48.401z M31.246,36.774
			c0.271,0,0.523,0.066,0.751,0.178l5.747-2.803c0.418-0.203,0.924-0.031,1.127,0.389l0.156,0.316
			c0.205,0.422,0.031,0.928-0.388,1.131l-5.695,2.775c-0.127,0.826-0.835,1.461-1.698,1.461c-0.951,0-1.724-0.771-1.724-1.723
			C29.522,37.546,30.295,36.774,31.246,36.774z"/>
		<path fill="#00A643" d="M28.332,17.052c-0.725-1.349-1.962-1.38-2.75-0.07l-3.378,5.615v3.354
			c2.533-1.987,5.715-3.187,9.177-3.225L28.332,17.052z"/>
		<path fill="#00A643" d="M37.524,23.945c1.927,0.828,3.639,2.051,5.056,3.557V3.836c0-0.985-0.806-1.793-1.791-1.793H22.204v4.833
			h15.32V23.945z"/>
		<path fill="#00A643" d="M44.968,37.874c0-7.411-6.007-13.42-13.417-13.42c-3.637,0-6.93,1.453-9.347,3.803v4.838
			c1.744-3.392,5.271-5.717,9.347-5.717c5.805,0,10.511,4.707,10.511,10.512s-4.706,10.512-10.511,10.512
			c-4.076,0-7.603-2.326-9.347-5.717v4.805c2.417,2.348,5.71,3.801,9.347,3.801C38.961,51.29,44.968,45.284,44.968,37.874z"/>
		<path fill="#00A643" d="M31.246,40.222c0.863,0,1.571-0.635,1.698-1.461l-0.382,0.188c-0.419,0.203-0.924,0.031-1.129-0.387
			l-0.154-0.318c-0.205-0.42-0.031-0.924,0.389-1.131l0.329-0.16c-0.228-0.111-0.48-0.178-0.751-0.178
			c-0.951,0-1.724,0.771-1.724,1.725C29.522,39.45,30.295,40.222,31.246,40.222z"/>
		<path fill="#00A643" d="M32.971,38.499c0,0.09-0.013,0.176-0.026,0.262l5.695-2.775c0.419-0.203,0.593-0.709,0.388-1.131
			l-0.156-0.316c-0.203-0.42-0.709-0.592-1.127-0.389l-5.747,2.803C32.572,37.231,32.971,37.815,32.971,38.499z"/>
		<path fill="#00A643" d="M31.279,38.243l0.154,0.318c0.205,0.418,0.71,0.59,1.129,0.387l0.382-0.188
			c0.013-0.086,0.026-0.172,0.026-0.262c0-0.684-0.399-1.268-0.974-1.547l-0.329,0.16C31.248,37.319,31.074,37.823,31.279,38.243z"
			/>
	</g>
</g>
</svg>
