<?xml version="1.0" encoding="utf-8"?>
<!-- Generator: Adobe Illustrator 16.0.0, SVG Export Plug-In . SVG Version: 6.00 Build 0)  -->
<!DOCTYPE svg PUBLIC "-//W3C//DTD SVG 1.1//EN" "http://www.w3.org/Graphics/SVG/1.1/DTD/svg11.dtd">
<svg version="1.1" id="Capa_1" xmlns="http://www.w3.org/2000/svg" xmlns:xlink="http://www.w3.org/1999/xlink" x="0px" y="0px"
	 width="24.951px" height="28.811px" viewBox="0 0 24.951 28.811" enable-background="new 0 0 24.951 28.811" xml:space="preserve">
<g>
	<g>
		<path fill="none" d="M7.22,2.627c0,0,0.129,0.059,0.262-0.012l2.461-1.422c0,0,0.09-0.033,0.086-0.232V0.754
			C8.875,1.111,7.841,1.738,6.987,2.555L7.22,2.627z"/>
		<path fill="none" d="M6.599,9.787c0.453-0.113,1.553-0.695,1.906-1.012c0.111-0.064,0.133-0.207,0.133-0.207
			c0.13-0.475,0.252-2.217,0.138-2.705c0,0-0.013-0.131-0.142-0.205c-0.362-0.283-1.43-0.725-1.828-0.744
			c0,0-0.126-0.027-0.299,0.145c-0.479,0.453-1.232,1.879-1.39,2.344c-0.03,0.127-0.011,0.252-0.011,0.252
			c0.121,0.535,0.916,1.744,1.228,2.068C6.334,9.723,6.437,9.854,6.599,9.787z"/>
		<path fill="none" d="M14.004,8.893c-0.144-0.098-0.243-0.064-0.243-0.064c-0.531,0.068-2.234,1.061-2.582,1.449
			c0,0-0.088,0.066-0.088,0.24c-0.04,0.586,0.368,2.152,0.546,2.6c0.034,0.125,0.171,0.184,0.171,0.184
			c0.5,0.234,2.17,0.377,2.688,0.385c0,0,0.163,0.006,0.237-0.072c0.418-0.381,1.277-2.186,1.336-2.693c0,0,0.014-0.127-0.08-0.232
			C15.669,10.238,14.487,9.172,14.004,8.893z"/>
		<path fill="none" d="M7.224,12.697c0,0-0.093-0.09-0.274-0.1l-0.747,0.168c0.832,1.086,1.941,1.943,3.227,2.463v-0.428
			c0,0,0.027-0.158-0.089-0.234L7.224,12.697z"/>
		<path fill="#FFFFFF" d="M12.3,0.102c-4.412,0-8,3.588-8,8c0,4.41,3.588,8,8,8c4.411,0,8-3.59,8-8
			C20.3,3.689,16.711,0.102,12.3,0.102z M5.117,7.402c0.157-0.465,0.911-1.891,1.39-2.344C6.68,4.887,6.806,4.914,6.806,4.914
			c0.398,0.02,1.466,0.461,1.828,0.744c0.129,0.074,0.142,0.205,0.142,0.205c0.114,0.488-0.008,2.23-0.138,2.705
			c0,0-0.021,0.143-0.133,0.207C8.151,9.092,7.052,9.674,6.599,9.787C6.437,9.854,6.334,9.723,6.334,9.723
			C6.022,9.398,5.228,8.189,5.106,7.654C5.106,7.654,5.087,7.529,5.117,7.402z M9.429,14.801v0.428
			c-1.285-0.52-2.395-1.377-3.227-2.463l0.747-0.168c0.182,0.01,0.274,0.1,0.274,0.1l2.116,1.869
			C9.456,14.643,9.429,14.801,9.429,14.801z M10.028,0.961c0.004,0.199-0.086,0.232-0.086,0.232L7.481,2.615
			C7.349,2.686,7.22,2.627,7.22,2.627L6.987,2.555c0.854-0.816,1.888-1.443,3.041-1.801V0.961z M16.069,10.92
			c-0.059,0.508-0.918,2.312-1.336,2.693c-0.074,0.078-0.237,0.072-0.237,0.072c-0.519-0.008-2.188-0.15-2.688-0.385
			c0,0-0.137-0.059-0.171-0.184c-0.178-0.447-0.586-2.014-0.546-2.6c0-0.174,0.088-0.24,0.088-0.24
			c0.348-0.389,2.051-1.381,2.582-1.449c0,0,0.1-0.033,0.243,0.064c0.483,0.279,1.665,1.346,1.985,1.795
			C16.083,10.793,16.069,10.92,16.069,10.92z M16.362,4.615c-0.019,0.133-0.141,0.205-0.141,0.205
			c-0.4,0.395-1.529,0.975-2.041,1.076c-1.22,0.131-2.799-1.703-2.799-1.703c-0.012-0.02-0.021-0.041-0.026-0.059
			c-0.106-0.381,0.421-1.711,0.619-2.184c0.063-0.227,0.164-0.203,0.164-0.203c0.571-0.133,2.722,0.217,3.201,0.377
			c0,0,0.131,0.025,0.19,0.158c0.311,0.469,0.819,1.988,0.834,2.301C16.366,4.594,16.364,4.604,16.362,4.615z M18.358,10.016
			c-0.09-0.057-0.091-0.229-0.091-0.229c-0.068-0.629,0.11-2.754,0.224-3.055c0,0-0.004-0.088,0.145-0.201
			c0.254-0.27,0.751-0.645,0.972-0.807c0.243,0.75,0.38,1.547,0.38,2.377c0,1.021-0.205,1.998-0.568,2.891
			C19.15,10.768,18.56,10.262,18.358,10.016z"/>
	</g>
	<g>
		<path fill="none" d="M6.576,9.787C7.03,9.674,8.129,9.092,8.483,8.775c0.11-0.064,0.132-0.207,0.132-0.207
			c0.13-0.475,0.251-2.217,0.138-2.705c0,0-0.012-0.131-0.142-0.205c-0.362-0.283-1.43-0.725-1.827-0.744
			c0,0-0.127-0.027-0.299,0.145c-0.48,0.453-1.233,1.879-1.392,2.344c-0.028,0.127-0.01,0.252-0.01,0.252
			c0.122,0.535,0.915,1.744,1.228,2.068C6.312,9.723,6.414,9.854,6.576,9.787z"/>
		<path fill="none" d="M7.2,12.697c0,0-0.092-0.09-0.273-0.1l-0.748,0.168c0.832,1.086,1.941,1.943,3.228,2.463v-0.428
			c0,0,0.028-0.158-0.089-0.234L7.2,12.697z"/>
		<path fill="none" d="M11.068,10.518c-0.04,0.586,0.367,2.152,0.545,2.6c0.035,0.125,0.171,0.184,0.171,0.184
			c0.104,0.049,0.264,0.092,0.445,0.133V9.521c-0.479,0.281-0.916,0.58-1.072,0.756C11.157,10.277,11.068,10.344,11.068,10.518z"/>
		<path fill="none" d="M11.952,1.951c-0.197,0.473-0.725,1.803-0.619,2.184c0.006,0.018,0.016,0.039,0.025,0.059
			c0,0,0.364,0.418,0.871,0.84V1.736c-0.036,0.004-0.084,0.004-0.113,0.012C12.116,1.748,12.017,1.725,11.952,1.951z"/>
		<path fill="none" d="M7.198,2.627c0,0,0.127,0.059,0.262-0.012l2.461-1.422c0,0,0.088-0.033,0.086-0.232V0.754
			C8.853,1.111,7.817,1.738,6.965,2.555L7.198,2.627z"/>
		<path fill="none" d="M14.157,5.896c0.513-0.102,1.641-0.682,2.042-1.076c0,0,0.122-0.072,0.142-0.205
			c0.001-0.012,0.002-0.021,0.001-0.031c-0.015-0.312-0.522-1.832-0.835-2.301c-0.059-0.133-0.189-0.158-0.189-0.158
			c-0.454-0.152-2.402-0.469-3.088-0.389v3.297C12.787,5.496,13.52,5.965,14.157,5.896z"/>
		<path fill="none" d="M14.474,13.686c0,0,0.164,0.006,0.237-0.072c0.417-0.381,1.278-2.186,1.336-2.693
			c0,0,0.013-0.127-0.081-0.232c-0.319-0.449-1.502-1.516-1.984-1.795c-0.144-0.098-0.243-0.064-0.243-0.064
			c-0.291,0.037-0.93,0.354-1.509,0.693v3.912C12.932,13.588,14.062,13.68,14.474,13.686z"/>
		<path fill="none" d="M18.337,10.016c0.201,0.246,0.791,0.752,1.059,0.977c0.364-0.893,0.569-1.869,0.569-2.891
			c0-0.83-0.136-1.627-0.38-2.377c-0.221,0.162-0.717,0.537-0.973,0.807c-0.148,0.113-0.145,0.201-0.145,0.201
			c-0.113,0.301-0.291,2.426-0.223,3.055C18.245,9.787,18.246,9.959,18.337,10.016z"/>
		<path fill="#EBEBEB" d="M20.277,8.102c0-4.412-3.589-8-8-8c-0.016,0-0.031,0.002-0.048,0.002v1.633
			c0.686-0.08,2.634,0.236,3.088,0.389c0,0,0.131,0.025,0.189,0.158c0.312,0.469,0.82,1.988,0.835,2.301
			c0.001,0.01,0,0.02-0.001,0.031c-0.02,0.133-0.142,0.205-0.142,0.205c-0.401,0.395-1.529,0.975-2.042,1.076
			c-0.638,0.068-1.37-0.4-1.928-0.863v4.488c0.579-0.34,1.218-0.656,1.509-0.693c0,0,0.1-0.033,0.243,0.064
			c0.482,0.279,1.665,1.346,1.984,1.795c0.094,0.105,0.081,0.232,0.081,0.232c-0.058,0.508-0.919,2.312-1.336,2.693
			c-0.073,0.078-0.237,0.072-0.237,0.072c-0.412-0.006-1.542-0.098-2.244-0.252V16.1c0.017,0,0.032,0.002,0.048,0.002
			C16.688,16.102,20.277,12.512,20.277,8.102z M18.468,6.732c0,0-0.004-0.088,0.145-0.201c0.256-0.27,0.752-0.645,0.973-0.807
			c0.244,0.75,0.38,1.547,0.38,2.377c0,1.021-0.205,1.998-0.569,2.891c-0.268-0.225-0.857-0.73-1.059-0.977
			c-0.091-0.057-0.092-0.229-0.092-0.229C18.177,9.158,18.354,7.033,18.468,6.732z"/>
	</g>
	<g opacity="0.3">
		<path fill="#CECECE" d="M7.419,9.574c0.398,0.561,0.719,1.199,1.116,1.797c0.399,0.6,1.001,1.197,1.28,1.797
			c-0.68,0.439-1.878,0.08-2.277-0.6c-0.439-0.758-0.16-2.236-0.16-3.113"/>
	</g>
	<g opacity="0.3">
		<path fill="#CECECE" d="M7.218,4.023c0,0.16-0.078,0.641,0,0.76c0.16,0.199,1.158,0.279,1.398,0.119
			c0.998-0.6-0.718-1.318-1.158-1.557"/>
	</g>
	<g opacity="0.3">
		<path fill="#CECECE" d="M17.92,6.979c-0.019,0.439,0.239,1.637,0,1.996c-0.399,0.561-1.995,0.48-2.315-0.16
			c-0.6-1.115,1.078-1.717,1.756-2.275C17.36,6.539,17.954,6.145,17.92,6.979z"/>
	</g>
	<rect x="2.842" y="22.064" fill="#FFFFFF" width="19.16" height="4.783"/>
	<rect x="12.429" y="22.064" fill="#EBEBEB" width="9.573" height="4.783"/>
	<path fill="#FFFFFF" d="M21.966,21.047H2.983c-0.234,0-0.425-0.191-0.425-0.426c0-0.236,0.19-0.426,0.425-0.426h18.982
		c0.236,0,0.426,0.189,0.426,0.426C22.392,20.855,22.202,21.047,21.966,21.047z"/>
	<path fill="#FFFFFF" d="M21.966,28.709H2.983c-0.234,0-0.425-0.189-0.425-0.428c0-0.234,0.19-0.424,0.425-0.424h18.982
		c0.236,0,0.426,0.189,0.426,0.424C22.392,28.52,22.202,28.709,21.966,28.709z"/>
</g>
</svg>
