<?xml version="1.0" encoding="utf-8"?>
<!-- Generator: Adobe Illustrator 16.0.0, SVG Export Plug-In . SVG Version: 6.00 Build 0)  -->
<!DOCTYPE svg PUBLIC "-//W3C//DTD SVG 1.1//EN" "http://www.w3.org/Graphics/SVG/1.1/DTD/svg11.dtd">
<svg version="1.1" id="Capa_1" xmlns="http://www.w3.org/2000/svg" xmlns:xlink="http://www.w3.org/1999/xlink" x="0px" y="0px"
	 width="30.875px" height="28.811px" viewBox="0 0 30.875 28.811" enable-background="new 0 0 30.875 28.811" xml:space="preserve">
<g>
	<path fill="#FFFFFF" d="M10.71,1.745c-3.506,1-2.836,4.339-2.335,6.844c0,0-0.255-0.251-0.587,0c-0.418,0.419,0,1.421,0.166,1.921
		c0.086,0.335,0.253,0.584,0.334,0.752c0,0,0,0.082,0,0.165c0,0.335,0.17,0.585,0.336,0.585c0.417,1.586,1.111,2.269,1.766,3.295
		c0,0,1.156,1.586,2.409,1.646l0.997,0.01V0.605C12.096,0.495,10.71,0.857,10.71,1.745z"/>
	<g>
		<path fill-rule="evenodd" clip-rule="evenodd" fill="#FFFFFF" d="M12.188,19.213l-1.68-1.771l-0.05-0.004
			c-6.436,3.701-9.771,1.744-10.004,9.664c0,0-0.188,0.818,0.767,0.938h12.574V17.965L12.188,19.213z"/>
	</g>
	<g opacity="0.3">
		<path fill-rule="evenodd" clip-rule="evenodd" fill="#CECECE" d="M1.054,24.271c-0.055,0.654-0.164,1.855,0.055,2.457
			c0.273,0.709,0.602,0.6,1.365,0.656c1.037,0.105,3.168,0.379,3.767-0.82c0.601-1.201-0.546-1.912-0.981-2.783
			c-1.257-2.295,2.729-4.643,4.367-5.078v-0.438c-1.857,1.965-5.023,1.582-6.934,3.221C1.818,22.195,1.218,23.18,1.054,24.271z"/>
	</g>
	<path fill="#EBEBEB" d="M18.925,18.083c-0.413-0.196-0.839-0.408-1.283-0.646l-0.017,0.004l-1.74,1.863l-1.925-1.467l-0.164,0.127
		v10.074h0.336h0.166h2.386l0.739-7.391L18.925,18.083z"/>
	<path fill="#EBEBEB" d="M17.599,15.318c0.587-0.768,1.544-1.969,1.877-3.307c0.168,0,0.333-0.334,0.333-0.585v-0.083
		c0.081-0.25,0.255-0.499,0.334-0.834c0.167-0.416,0.587-1.754,0.167-2.088c-0.167-0.084-0.333-0.084-0.501,0.167
		c0,0,0.669-3.173,0.168-4.59c-0.592-2.073-3.719-3.233-6.181-3.394v16.357l1.844,0.02C15.64,16.982,16.53,16.705,17.599,15.318z"/>
	<polygon fill="#FFFFFF" points="26.049,21.57 26.254,21.215 26.042,21.563 	"/>
	<path fill="#FFFFFF" d="M18.111,28.039c0.008,0.027,0.02,0.054,0.032,0.082l0.05-0.082H18.111z"/>
	<polygon fill="#FFFFFF" points="30.268,14.258 30.3,14.202 28.497,13.312 28.497,13.331 	"/>
	<polygon fill="#FFFFFF" points="28.497,13.312 27.841,12.987 28.497,13.331 	"/>
	<path fill="#FFFFFF" d="M18.771,27.221c-0.013-0.032-0.02-0.062-0.022-0.088l-0.043,0.07C18.726,27.211,18.745,27.22,18.771,27.221
		z"/>
	<path fill="#FFFFFF" d="M21.338,24.14c-0.157-0.123-0.337-0.24-0.54-0.346l-0.013,0.021c0.018,0.011,0.039,0.021,0.055,0.031
		C21.027,23.935,21.188,24.035,21.338,24.14z"/>
	<path fill="#FFFFFF" d="M24.354,11.266l-4.301,7.327l-1.453,2.476c-0.041,0.088-0.078,0.18-0.104,0.537l-0.419,6.205
		c0,0,0,0.108,0.034,0.229h0.082l0.513-0.836l0.043-0.07c-0.003-0.028-0.004-0.051-0.004-0.051l0.193-3.768
		c0.366-0.008,1.333,0.188,1.847,0.5l0.013-0.021l2.414-3.933l4.314-7.029L24.354,11.266z"/>
	<polygon fill="#EBEBEB" points="27.531,12.825 27.526,12.832 27.841,12.987 	"/>
	<polygon fill="#EBEBEB" points="26.254,21.215 28.497,17.529 28.497,17.327 	"/>
	<polygon fill="#EBEBEB" points="28.497,17.529 30.435,14.346 30.268,14.258 28.497,17.327 	"/>
	<path fill="#EBEBEB" d="M18.112,28.17c0.023,0.015,0.047,0.026,0.075,0.035c-0.019-0.027-0.032-0.055-0.045-0.084L18.112,28.17z"/>
	<path fill="#EBEBEB" d="M22.182,25.244l-3.13,1.883c-0.123,0.071-0.213,0.097-0.28,0.094c0.042,0.105,0.151,0.206,0.446,0.025
		l3.084-1.955c-0.124-0.35-0.438-0.786-0.963-1.151C21.798,24.501,22.073,24.913,22.182,25.244z"/>
	<path fill="#EBEBEB" d="M18.694,28.121l0.132-0.082h-0.633l-0.05,0.082c0.013,0.029,0.026,0.057,0.045,0.084
		C18.304,28.242,18.463,28.232,18.694,28.121z"/>
	<path fill="#EBEBEB" d="M28.497,13.331l-0.656-0.344l-0.314-0.155l-4.314,7.029l-2.414,3.933c0.203,0.105,0.382,0.223,0.54,0.346
		c0.525,0.365,0.839,0.802,0.963,1.151l-3.084,1.955c-0.295,0.181-0.405,0.08-0.446-0.025c-0.026-0.001-0.046-0.01-0.065-0.018
		l-0.513,0.836h0.633l5.159-3.207c0.174-0.129,0.219-0.217,0.305-0.389l1.752-2.88l0.212-0.349l2.243-3.888l1.771-3.069
		L28.497,13.331z"/>
</g>
</svg>
