<?xml version="1.0" encoding="utf-8"?>
<!-- Generator: Adobe Illustrator 16.0.0, SVG Export Plug-In . SVG Version: 6.00 Build 0)  -->
<!DOCTYPE svg PUBLIC "-//W3C//DTD SVG 1.1//EN" "http://www.w3.org/Graphics/SVG/1.1/DTD/svg11.dtd">
<svg version="1.1" id="Capa_1" xmlns="http://www.w3.org/2000/svg" xmlns:xlink="http://www.w3.org/1999/xlink" x="0px" y="0px"
	 width="106.349px" height="123.424px" viewBox="0 0 106.349 123.424" enable-background="new 0 0 106.349 123.424"
	 xml:space="preserve">
<g>
	<path fill="#FFFFFF" d="M53.596,123.424c-1.688,0-2.933-0.871-3.322-1.18l-9.073-6.717H13.873C6.224,115.527,0,109.303,0,101.653
		v-88.07L0.145,0h106.204v101.653c0,7.649-6.222,13.874-13.87,13.874h-26.92l-8.82,6.754
		C55.871,123.007,54.757,123.424,53.596,123.424z M4.885,4.793l-0.092,8.813v88.047c0,5.008,4.075,9.082,9.08,9.082h28.908
		l10.518,7.791c0.039,0.027,0.212,0.106,0.297,0.106h0.005c0.003,0,0.049-0.013,0.146-0.093l10.188-7.805h28.544
		c5.004,0,9.079-4.074,9.079-9.082V4.793H4.885z"/>
	<g>
		<path fill="#FFFFFF" d="M62.556,97.128h19.717c0.174-2.129,0.889-14.576-6.006-17.982l-19.37-8.775l-5.642,3.209l-4.551-2.916
			l-18.959,8.496c-6.879,3.398-6.149,15.84-5.97,17.969H41.86H62.556z"/>
		<path fill="#FFFFFF" d="M24.345,77.032l19.824-8.211l-2.283-1.488c-18.09,10.4-27.459,4.898-28.119,27.162
			c0,0-0.526,2.301,2.156,2.633h1.098C16.782,94.157,16.22,81.05,24.345,77.032z"/>
		<path fill="#FFFFFF" d="M36.507,48.649c0,0,0,0.225,0,0.447c0,0.9,0.455,1.57,0.903,1.57c1.122,4.262,2.984,6.097,4.744,8.852
			c0,0,3.275,3.99,8.879,5.539c0,0,4.583-0.541,10.485-5.509c1.984-1.671,4.151-5.29,5.044-8.882c0.449,0,0.897-0.897,0.897-1.57
			v-0.223c0.222-0.674,0.688-1.344,0.896-2.242c0.452-1.119,1.582-4.711,0.452-5.607c-0.452-0.233-0.893-0.233-1.348,0.443
			c0,0,1.796-8.521,0.455-12.332c-2.693-9.416-24.898-11.894-24.898-6.058c-9.425,2.693-7.624,11.663-6.277,18.39
			c0,0-0.682-0.677-1.579,0c-1.122,1.127,0,3.82,0.449,5.164C35.842,47.53,36.291,48.2,36.507,48.649z"/>
		<path fill="#F2F2F2" d="M62.057,67.3l-1.829,1.438l19.889,8.3c8.155,4.029,7.596,17.142,7.357,20.112h0.736
			c0,0,2.678,0.2,2.545-2.615C89.751,73.103,80.427,77.128,62.057,67.3z"/>
		<path fill="#F2F2F2" d="M51.352,21.017v44.061c0,0,4.581-0.537,10.486-5.51c1.981-1.668,4.153-5.287,5.046-8.878
			c0.449,0,0.896-0.903,0.896-1.571v-0.225c0.219-0.67,0.685-1.342,0.895-2.244c0.449-1.114,1.58-4.711,0.449-5.606
			c-0.449-0.229-0.893-0.229-1.344,0.446c0,0,1.796-8.523,0.451-12.332c-1.612-5.65-10.256-8.801-16.909-9.16L51.352,21.017z"/>
		<path fill="#F2F2F2" d="M51.466,97.149V73.557l0.205-0.233l5.323-3.053l19.375,8.895c6.892,3.406,6.177,15.852,6,17.984H51.674
			H51.466z"/>
	</g>
</g>
</svg>
