<?xml version="1.0" encoding="utf-8"?>
<!-- Generator: Adobe Illustrator 16.0.0, SVG Export Plug-In . SVG Version: 6.00 Build 0)  -->
<!DOCTYPE svg PUBLIC "-//W3C//DTD SVG 1.1//EN" "http://www.w3.org/Graphics/SVG/1.1/DTD/svg11.dtd">
<svg version="1.1" id="Capa_1" xmlns="http://www.w3.org/2000/svg" xmlns:xlink="http://www.w3.org/1999/xlink" x="0px" y="0px"
	 width="24.951px" height="28.811px" viewBox="0 0 24.951 28.811" enable-background="new 0 0 24.951 28.811" xml:space="preserve">
<g>
	<g>
		<path fill-rule="evenodd" clip-rule="evenodd" fill="#FFFFFF" d="M22.626,24.908c-0.471-4.928-2.774-4.039-7.422-6.525
			l-2.85,1.645l-2.467-1.645c-4.65,2.674-7.112,1.355-7.386,6.752c0,0-0.106,1.203,1.513,1.088l8.591,0.004h0.124h8.484
			C21.214,26.227,22.767,26.369,22.626,24.908z"/>
		<path fill-rule="evenodd" clip-rule="evenodd" fill="#FFFFFF" d="M15.17,16.812c0.547-0.459,1.144-1.455,1.39-2.445
			c0.125,0,0.248-0.247,0.248-0.433v-0.062c0.06-0.184,0.188-0.369,0.246-0.617c0.123-0.309,0.435-1.299,0.123-1.545
			c-0.123-0.061-0.246-0.061-0.369,0.125c0,0,0.494-2.35,0.123-3.396c-0.74-2.595-6.856-3.275-6.856-1.67
			C7.48,7.511,7.976,9.982,8.345,11.836c0,0-0.186-0.186-0.434,0c-0.309,0.309,0,1.051,0.124,1.42
			c0.063,0.248,0.187,0.434,0.246,0.556c0,0,0,0.062,0,0.123c0,0.247,0.126,0.433,0.249,0.433l0,0
			c0.309,1.174,0.822,1.68,1.307,2.438c0,0,1.244,1.119,2.445,1.525C12.283,18.33,13.545,18.184,15.17,16.812z"/>
	</g>
	<g opacity="0.3">
		<path fill-rule="evenodd" clip-rule="evenodd" fill="#CECECE" d="M9.273,19.318c-1.213,0.322-4.162,2.061-3.232,3.758
			c0.322,0.645,1.171,1.17,0.727,2.059c-0.443,0.889-2.02,0.688-2.788,0.607c-0.565-0.041-0.808,0.039-1.01-0.484
			c-0.161-0.445-0.081-1.334-0.04-1.818c0.121-0.809,0.566-1.535,1.212-2.061c1.415-1.211,3.757-0.93,5.132-2.385"/>
	</g>
	<path fill="#FFFFFF" d="M0.037,0L0,23.432c0,1.98,1.612,3.594,3.594,3.594h6.024l1.886,1.393c0.107,0.092,0.504,0.393,1.068,0.393
		c0.37,0,0.723-0.131,0.987-0.354l1.87-1.432h5.928c1.982,0,3.594-1.613,3.594-3.594V0H0.037z M23.729,23.24
		c-0.071,1.799-0.903,2.631-2.544,2.543h-6.477l-0.016,0.012h-4.357l-0.016-0.012H3.765c-0.959,0.254-2.568-0.855-2.543-2.543V3.731
		l0.016-2.489h22.491V23.24z"/>
	<g>
		<path fill="#EBEBEB" d="M15.205,18.383l-2.731,1.576v5.836h2.22l0.016-0.012h6.477c0.54,0.029,0.983-0.052,1.35-0.224
			c0.072-0.173,0.118-0.376,0.092-0.651C22.156,19.98,19.852,20.869,15.205,18.383z"/>
		<path fill="#EBEBEB" d="M16.56,14.367c0.125,0,0.248-0.247,0.248-0.433v-0.062c0.06-0.184,0.188-0.369,0.246-0.617
			c0.123-0.309,0.435-1.299,0.123-1.545c-0.123-0.061-0.246-0.061-0.369,0.125c0,0,0.494-2.35,0.123-3.396
			c-0.429-1.502-2.655-2.358-4.458-2.505v12.358c0.406-0.094,1.439-0.419,2.697-1.48C15.717,16.354,16.314,15.357,16.56,14.367z"/>
		<path fill="#EBEBEB" d="M12.473,0v1.242h11.256V23.24c-0.048,1.207-0.446,1.969-1.194,2.319c-0.31,0.746-1.32,0.667-1.32,0.667
			H12.73h-0.124h-0.133v2.571c0.034,0.003,0.063,0.013,0.099,0.013c0.37,0,0.723-0.131,0.987-0.354l1.87-1.432h5.928
			c1.982,0,3.594-1.613,3.594-3.594V0H12.473z"/>
		<path fill="#EBEBEB" d="M14.708,25.783l-0.016,0.012h-2.22v0.432h0.133h0.124h8.484c0,0,1.011,0.079,1.32-0.667
			c-0.366,0.172-0.81,0.253-1.35,0.224H14.708z"/>
	</g>
</g>
</svg>
