<?xml version="1.0" encoding="utf-8"?>
<!-- Generator: Adobe Illustrator 16.0.0, SVG Export Plug-In . SVG Version: 6.00 Build 0)  -->
<!DOCTYPE svg PUBLIC "-//W3C//DTD SVG 1.1//EN" "http://www.w3.org/Graphics/SVG/1.1/DTD/svg11.dtd">
<svg version="1.1" id="Capa_1" xmlns="http://www.w3.org/2000/svg" xmlns:xlink="http://www.w3.org/1999/xlink" x="0px" y="0px"
	 width="24.951px" height="28.811px" viewBox="0 0 24.951 28.811" enable-background="new 0 0 24.951 28.811" xml:space="preserve">
<g>
	<g>
		<g>
			<g>
				<path fill="#FFFFFF" d="M17.285,12.572l-1.714-3.188c-0.406-0.758-1.103-0.774-1.546-0.039l-2.177,3.621
					c-0.444,0.736-1.326,0.971-1.962,0.52S8.29,13.208,7.749,13.87L5.58,16.53c-0.54,0.662-0.299,1.205,0.535,1.205H9.55
					C10.84,14.725,13.812,12.611,17.285,12.572z"/>
				<path fill="#FFFFFF" d="M8.865,21.081c0-0.064,0.009-0.129,0.01-0.195H3.342V3.667h17.395v9.591
					c1.082,0.464,2.045,1.151,2.839,1.999V1.96c0-0.555-0.45-1.008-1.005-1.008H1.801c-0.553,0-1.006,0.453-1.006,1.008v24.33
					c0,0.551,0.453,1.004,1.006,1.004h9.77C9.91,25.741,8.865,23.536,8.865,21.081z"/>
			</g>
			<ellipse fill="#FFFFFF" cx="7.882" cy="8.666" rx="2.312" ry="2.405"/>
			<g>
				<g>
					<path fill="#FFFFFF" d="M17.277,14.103c-3.797,0-6.877,3.08-6.877,6.879s3.08,6.877,6.877,6.877
						c3.799,0,6.878-3.078,6.878-6.877S21.076,14.103,17.277,14.103z M17.277,26.378c-2.975,0-5.387-2.414-5.387-5.389
						s2.412-5.387,5.387-5.387c2.977,0,5.389,2.412,5.389,5.387S20.254,26.378,17.277,26.378z"/>
				</g>
				<circle fill="#FFFFFF" cx="17.122" cy="21.302" r="0.884"/>
				<path fill="#FFFFFF" d="M17.797,21.532c-0.215,0.104-0.474,0.016-0.578-0.199l-0.08-0.162c-0.105-0.215-0.018-0.475,0.199-0.58
					l3.113-1.52c0.215-0.104,0.475-0.016,0.579,0.201l0.079,0.16c0.106,0.217,0.016,0.477-0.197,0.58L17.797,21.532z"/>
			</g>
		</g>
	</g>
	<g>
		<path fill="none" d="M17.277,26.378c2.977,0,5.389-2.414,5.389-5.389s-2.412-5.387-5.389-5.387c-1.952,0-3.646,1.049-4.591,2.604
			v5.566C13.632,25.328,15.325,26.378,17.277,26.378z M17.121,20.417c0.138,0,0.265,0.038,0.381,0.094l2.949-1.439
			c0.215-0.104,0.475-0.016,0.579,0.201l0.079,0.16c0.106,0.217,0.016,0.477-0.197,0.58l-2.935,1.432
			c-0.071,0.417-0.419,0.74-0.856,0.74c-0.488,0-0.883-0.395-0.883-0.883S16.633,20.417,17.121,20.417z"/>
		<path fill="#EBEBEB" d="M15.571,9.384c-0.406-0.758-1.103-0.774-1.546-0.039l-1.339,2.228v2.416
			c1.322-0.875,2.898-1.396,4.599-1.416L15.571,9.384z"/>
		<path fill="#EBEBEB" d="M20.736,13.258c1.082,0.464,2.045,1.151,2.839,1.999V1.96c0-0.555-0.45-1.008-1.005-1.008h-9.884v2.715
			h8.05V13.258z"/>
		<path fill="#EBEBEB" d="M24.155,20.981c0-3.799-3.079-6.879-6.878-6.879c-1.767,0-3.372,0.673-4.591,1.769v2.335
			c0.945-1.555,2.639-2.604,4.591-2.604c2.977,0,5.389,2.412,5.389,5.387s-2.412,5.389-5.389,5.389c-1.952,0-3.646-1.05-4.591-2.605
			v2.318c1.219,1.096,2.824,1.768,4.591,1.768C21.076,27.858,24.155,24.78,24.155,20.981z"/>
		<path fill="#EBEBEB" d="M17.121,22.185c0.438,0,0.785-0.323,0.856-0.74l-0.181,0.088c-0.215,0.104-0.474,0.016-0.578-0.199
			l-0.08-0.162c-0.105-0.215-0.018-0.475,0.199-0.58l0.164-0.08c-0.116-0.056-0.243-0.094-0.381-0.094
			c-0.488,0-0.883,0.396-0.883,0.885S16.633,22.185,17.121,22.185z"/>
		<path fill="#EBEBEB" d="M18.006,21.302c0,0.051-0.021,0.095-0.028,0.143l2.935-1.432c0.213-0.104,0.304-0.363,0.197-0.58
			l-0.079-0.16c-0.104-0.217-0.364-0.305-0.579-0.201l-2.949,1.439C17.798,20.654,18.006,20.951,18.006,21.302z"/>
		<path fill="#EBEBEB" d="M17.139,21.171l0.08,0.162c0.104,0.215,0.363,0.303,0.578,0.199l0.181-0.088
			c0.008-0.048,0.028-0.092,0.028-0.143c0-0.351-0.208-0.647-0.504-0.791l-0.164,0.08C17.121,20.696,17.033,20.956,17.139,21.171z"
			/>
	</g>
</g>
</svg>
