<?xml version="1.0" encoding="utf-8"?>
<!-- Generator: Adobe Illustrator 16.0.0, SVG Export Plug-In . SVG Version: 6.00 Build 0)  -->
<!DOCTYPE svg PUBLIC "-//W3C//DTD SVG 1.1//EN" "http://www.w3.org/Graphics/SVG/1.1/DTD/svg11.dtd">
<svg version="1.1" id="Capa_1" xmlns="http://www.w3.org/2000/svg" xmlns:xlink="http://www.w3.org/1999/xlink" x="0px" y="0px"
	 width="18.936px" height="28.128px" viewBox="0 0 18.936 28.128" enable-background="new 0 0 18.936 28.128" xml:space="preserve">
<g>
	<g>
		<g>
			<path fill="none" d="M4.451,3.229c0,0,0.122,0.055,0.25-0.013l2.35-1.357c0,0,0.084-0.031,0.082-0.221V1.44
				C6.031,1.781,5.043,2.379,4.229,3.158L4.451,3.229z"/>
			<path fill="none" d="M3.857,10.064C4.29,9.955,5.34,9.4,5.678,9.099c0.106-0.062,0.126-0.198,0.126-0.198
				c0.124-0.455,0.24-2.117,0.131-2.584c0,0-0.012-0.124-0.135-0.195c-0.346-0.27-1.365-0.691-1.745-0.71
				c0,0-0.121-0.027-0.286,0.137C3.312,5.982,2.593,7.342,2.443,7.786c-0.029,0.123-0.01,0.241-0.01,0.241
				c0.116,0.511,0.875,1.666,1.172,1.976C3.604,10.003,3.702,10.126,3.857,10.064z"/>
			<path fill="none" d="M10.927,9.21c-0.137-0.094-0.232-0.062-0.232-0.062c-0.507,0.066-2.133,1.013-2.465,1.385
				c0,0-0.084,0.062-0.084,0.228c-0.038,0.56,0.352,2.056,0.521,2.482c0.033,0.12,0.163,0.176,0.163,0.176
				c0.478,0.224,2.072,0.359,2.567,0.368c0,0,0.156,0.006,0.227-0.069c0.398-0.365,1.219-2.088,1.275-2.572
				c0,0,0.012-0.121-0.077-0.223C12.517,10.494,11.389,9.476,10.927,9.21z"/>
			<path fill="none" d="M4.454,12.842c0,0-0.088-0.085-0.262-0.096l-0.713,0.161c0.794,1.036,1.854,1.856,3.081,2.352v-0.408
				c0,0,0.027-0.151-0.084-0.224L4.454,12.842z"/>
			<path fill="#FFFFFF" d="M9.3,0.816c-4.213,0-7.638,3.426-7.638,7.638s3.425,7.64,7.638,7.64c4.211,0,7.638-3.428,7.638-7.64
				S13.512,0.816,9.3,0.816z M2.443,7.786c0.15-0.444,0.87-1.804,1.327-2.238c0.165-0.164,0.286-0.137,0.286-0.137
				c0.38,0.019,1.399,0.44,1.745,0.71c0.124,0.071,0.135,0.195,0.135,0.195c0.108,0.467-0.007,2.129-0.131,2.584
				c0,0-0.021,0.136-0.126,0.198C5.34,9.4,4.29,9.955,3.857,10.064c-0.155,0.062-0.252-0.061-0.252-0.061
				c-0.297-0.31-1.056-1.464-1.172-1.976C2.433,8.027,2.414,7.909,2.443,7.786z M6.559,14.851v0.408
				c-1.227-0.496-2.287-1.315-3.081-2.352l0.713-0.161c0.173,0.01,0.262,0.096,0.262,0.096l2.021,1.785
				C6.586,14.7,6.559,14.851,6.559,14.851z M7.132,1.638C7.135,1.828,7.05,1.859,7.05,1.859l-2.35,1.357
				c-0.128,0.067-0.25,0.013-0.25,0.013l-0.222-0.07C5.043,2.379,6.031,1.781,7.132,1.44V1.638z M12.9,11.146
				c-0.057,0.484-0.877,2.207-1.275,2.572c-0.071,0.075-0.227,0.069-0.227,0.069c-0.496-0.009-2.089-0.144-2.567-0.368
				c0,0-0.13-0.056-0.163-0.176c-0.17-0.427-0.56-1.922-0.521-2.482c0-0.166,0.084-0.228,0.084-0.228
				c0.332-0.372,1.958-1.318,2.465-1.385c0,0,0.096-0.031,0.232,0.062c0.461,0.266,1.59,1.284,1.896,1.713
				C12.912,11.025,12.9,11.146,12.9,11.146z M13.179,5.125c-0.018,0.127-0.135,0.195-0.135,0.195
				c-0.382,0.377-1.46,0.932-1.948,1.028C9.932,6.473,8.424,4.724,8.424,4.724c-0.011-0.02-0.02-0.04-0.025-0.056
				C8.298,4.303,8.801,3.034,8.99,2.582c0.061-0.216,0.157-0.194,0.157-0.194c0.545-0.126,2.599,0.208,3.056,0.36
				c0,0,0.125,0.025,0.182,0.152c0.297,0.447,0.783,1.898,0.796,2.196C13.183,5.105,13.181,5.115,13.179,5.125z M15.085,10.281
				c-0.086-0.053-0.087-0.218-0.087-0.218c-0.065-0.6,0.105-2.628,0.213-2.917c0,0-0.003-0.084,0.139-0.19
				c0.243-0.259,0.717-0.616,0.928-0.771c0.232,0.716,0.363,1.477,0.363,2.269c0,0.977-0.195,1.908-0.543,2.761
				C15.841,10.999,15.277,10.517,15.085,10.281z"/>
		</g>
	</g>
	<rect x="0.271" y="21.785" fill="#FFFFFF" width="18.293" height="4.567"/>
	<path fill="#FFFFFF" d="M18.529,20.813H0.406C0.182,20.813,0,20.632,0,20.407C0,20.182,0.182,20,0.406,20h18.123
		c0.226,0,0.407,0.182,0.407,0.406C18.936,20.632,18.754,20.813,18.529,20.813z"/>
	<path fill="#FFFFFF" d="M18.529,28.128H0.406C0.182,28.128,0,27.948,0,27.722c0-0.225,0.182-0.406,0.406-0.406h18.123
		c0.226,0,0.407,0.181,0.407,0.406C18.936,27.948,18.754,28.128,18.529,28.128z"/>
</g>
</svg>
