<?xml version="1.0" encoding="utf-8"?>
<!-- Generator: Adobe Illustrator 16.0.0, SVG Export Plug-In . SVG Version: 6.00 Build 0)  -->
<!DOCTYPE svg PUBLIC "-//W3C//DTD SVG 1.1//EN" "http://www.w3.org/Graphics/SVG/1.1/DTD/svg11.dtd">
<svg version="1.1" id="Capa_1" xmlns="http://www.w3.org/2000/svg" xmlns:xlink="http://www.w3.org/1999/xlink" x="0px" y="0px"
	 width="22.829px" height="26.292px" viewBox="0 0 22.829 26.292" enable-background="new 0 0 22.829 26.292" xml:space="preserve">
<g>
	<g>
		<g>
			<g>
				<path fill="#FFFFFF" d="M16.114,11.355L14.44,8.24c-0.396-0.741-1.076-0.757-1.51-0.038l-2.128,3.538
					c-0.435,0.72-1.296,0.948-1.918,0.507c-0.62-0.44-1.56-0.271-2.088,0.376l-2.12,2.6C4.149,15.871,4.384,16.4,5.199,16.4h3.357
					C9.816,13.458,12.721,11.394,16.114,11.355z"/>
				<path fill="#FFFFFF" d="M7.889,19.671c0-0.064,0.008-0.127,0.009-0.191H2.489V2.653h16.998v9.372
					c1.059,0.454,1.998,1.125,2.774,1.953V0.984c0-0.541-0.44-0.984-0.982-0.984H0.983C0.443,0,0,0.443,0,0.984v23.775
					c0,0.539,0.443,0.982,0.983,0.982h9.549C8.907,24.224,7.889,22.069,7.889,19.671z"/>
			</g>
			<ellipse fill="#FFFFFF" cx="6.927" cy="7.538" rx="2.26" ry="2.351"/>
			<g>
				<g>
					<path fill="#FFFFFF" d="M16.106,12.851c-3.71,0-6.72,3.009-6.72,6.721c0,3.712,3.01,6.72,6.72,6.72
						c3.715,0,6.723-3.008,6.723-6.72C22.829,15.86,19.821,12.851,16.106,12.851z M16.106,24.845c-2.906,0-5.264-2.357-5.264-5.265
						s2.357-5.265,5.264-5.265c2.909,0,5.267,2.358,5.267,5.265S19.016,24.845,16.106,24.845z"/>
				</g>
				<circle fill="#FFFFFF" cx="15.955" cy="19.886" r="0.863"/>
				<path fill="#FFFFFF" d="M16.614,20.111c-0.208,0.102-0.462,0.016-0.564-0.194l-0.078-0.16c-0.104-0.21-0.016-0.463,0.196-0.566
					l3.042-1.485c0.208-0.102,0.464-0.016,0.565,0.195l0.076,0.158c0.104,0.21,0.016,0.464-0.19,0.565L16.614,20.111z"/>
			</g>
		</g>
	</g>
</g>
</svg>
