<?xml version="1.0" encoding="utf-8"?>
<!-- Generator: Adobe Illustrator 16.0.0, SVG Export Plug-In . SVG Version: 6.00 Build 0)  -->
<!DOCTYPE svg PUBLIC "-//W3C//DTD SVG 1.1//EN" "http://www.w3.org/Graphics/SVG/1.1/DTD/svg11.dtd">
<svg version="1.1" id="Capa_1" xmlns="http://www.w3.org/2000/svg" xmlns:xlink="http://www.w3.org/1999/xlink" x="0px" y="0px"
	 width="28.524px" height="24.424px" viewBox="0 0 28.524 24.424" enable-background="new 0 0 28.524 24.424" xml:space="preserve">
<g>
	<g>
		<polygon fill="#FFFFFF" points="26.391,11.528 27.696,11.528 26.866,13.393 28.524,15.774 25.797,15.774 		"/>
	</g>
	<g>
		<polygon fill="#FFFFFF" points="2.131,11.591 0.828,11.591 1.654,13.456 0,15.838 2.725,15.838 		"/>
	</g>
	<path fill="#FFFFFF" d="M21.926,21.135l-5.672-5.291h-2.951l-0.068,0.071l-5.612,5.22H21.926z M21.954,21.135H7.654
		c-1.212,0.027-1.375-0.376-1.375-0.376l5.106-4.915h-0.79l-4.59,4.28c-0.016-0.067-0.027-0.138-0.035-0.214v0.246V19.91
		c0-0.004,0-0.004-0.002-0.007l0.008-4.059H4.14l-0.004,4.479c0.004,0.368,0.056,0.634,0.056,0.634s0.162,1.787,2.588,1.989h6.108
		l1.406,1.193l0.016,0.012c0.051,0.048,0.223,0.273,0.623,0.273c0.254,0,0.381-0.091,0.586-0.265l1.328-1.213h6.059
		c1.648,0.008,2.609-1.019,2.631-2.576v-0.063l-0.83,0.024c0.178-0.095,0.67-0.123,0.83-0.131h0.004l0.004-4.379l-1.912,0.024v3.483
		v0.595c0,0.004,0,0.004,0,0.008c0,0.127-0.01,0.238-0.029,0.337l-4.742-4.423h-0.811l5.348,5.025
		C22.739,21.261,21.954,21.135,21.954,21.135z M5.994,20.604C6,20.647,6.01,20.683,6.018,20.723C6.01,20.683,6,20.647,5.994,20.604z
		 M6.025,20.758c0.009,0.036,0.021,0.067,0.028,0.099C6.046,20.826,6.034,20.794,6.025,20.758z M6.066,20.901
		c0.012,0.027,0.023,0.056,0.035,0.083C6.09,20.957,6.078,20.928,6.066,20.901z M6.117,21.028c0.008,0.023,0.023,0.047,0.035,0.071
		C6.141,21.075,6.125,21.051,6.117,21.028z M6.173,21.139c0.012,0.023,0.027,0.043,0.04,0.063C6.2,21.182,6.185,21.162,6.173,21.139
		z M6.236,21.237c0.016,0.02,0.027,0.04,0.043,0.056C6.264,21.277,6.252,21.257,6.236,21.237z M6.307,21.325
		c0.017,0.016,0.033,0.032,0.049,0.048C6.34,21.356,6.323,21.341,6.307,21.325z M6.387,21.4c0.016,0.016,0.031,0.028,0.048,0.04
		C6.418,21.428,6.402,21.416,6.387,21.4z M6.471,21.468c0.016,0.007,0.035,0.02,0.051,0.031C6.506,21.487,6.486,21.475,6.471,21.468
		z M6.561,21.519c0.017,0.012,0.036,0.02,0.053,0.027C6.597,21.539,6.577,21.531,6.561,21.519z M6.66,21.566
		c0.016,0.008,0.035,0.012,0.051,0.02C6.695,21.579,6.676,21.575,6.66,21.566z M6.763,21.602c0.021,0.004,0.036,0.012,0.056,0.016
		C6.799,21.614,6.783,21.606,6.763,21.602z M6.874,21.63c0.016,0.004,0.036,0.008,0.056,0.012C6.91,21.638,6.89,21.634,6.874,21.63z
		 M6.989,21.65c0.02,0.003,0.036,0.008,0.056,0.008C7.025,21.658,7.009,21.653,6.989,21.65z M7.12,21.666
		c0.016,0,0.031,0.004,0.044,0.004C7.151,21.669,7.136,21.666,7.12,21.666z"/>
	<polygon fill="#FFFFFF" points="4.076,6.225 4.086,6.224 4.076,5.713 4.127,5.71 4.808,5.651 5.982,5.547 4.127,5.47 4.127,5.479 
		4.123,5.478 4.123,5.47 4.12,0.049 4.983,0.049 25.479,0 25.491,7.473 23.627,7.473 23.622,2.503 23.616,2.503 23.616,2.002 
		6.145,2.002 6.006,2.001 5.99,7.473 4.08,7.473 	"/>
	<polygon fill="#FFFFFF" points="26.553,14.78 26.553,8.895 26.454,8.895 26.454,8.87 2.066,8.87 2.066,8.895 1.863,8.895 
		1.863,14.78 2.066,14.78 2.066,14.835 26.454,14.835 	"/>
</g>
</svg>
