<?xml version="1.0" encoding="utf-8"?>
<!-- Generator: Adobe Illustrator 16.0.0, SVG Export Plug-In . SVG Version: 6.00 Build 0)  -->
<!DOCTYPE svg PUBLIC "-//W3C//DTD SVG 1.1//EN" "http://www.w3.org/Graphics/SVG/1.1/DTD/svg11.dtd">
<svg version="1.1" id="Capa_1" xmlns="http://www.w3.org/2000/svg" xmlns:xlink="http://www.w3.org/1999/xlink" x="0px" y="0px"
	 width="46.672px" height="55.5px" viewBox="-58.678 -5.833 46.672 55.5" enable-background="new -58.678 -5.833 46.672 55.5"
	 xml:space="preserve">
<g>
	<g>
		<g>
			<g>
				<path fill="#00B643" d="M-25.758,18.265l-3.415-6.353c-0.81-1.51-2.198-1.543-3.082-0.078l-4.336,7.216
					c-0.886,1.467-2.643,1.934-3.909,1.035c-1.268-0.898-3.181-0.553-4.259,0.766l-4.321,5.301
					c-1.076,1.316-0.597,2.398,1.066,2.398h6.844C-38.6,22.554-32.679,18.341-25.758,18.265z"/>
				<path fill="#00B643" d="M-42.534,35.218c0-0.127,0.018-0.256,0.02-0.389H-53.54V0.521h34.661V19.63
					c2.155,0.926,4.074,2.295,5.656,3.984V-2.88c0-1.105-0.897-2.008-2.003-2.008H-56.61c-1.102,0-2.004,0.903-2.004,2.008v48.477
					c0,1.098,0.902,2.002,2.004,2.002h19.467C-40.452,44.505-42.534,40.111-42.534,35.218z"/>
			</g>
			<ellipse fill="#00B643" cx="-44.494" cy="10.481" rx="4.607" ry="4.792"/>
			<g>
				<g>
					<path fill="#00B643" d="M-25.775,21.314c-7.565,0-13.701,6.137-13.701,13.707s6.136,13.701,13.701,13.701
						c7.571,0,13.706-6.131,13.706-13.701S-18.204,21.314-25.775,21.314z M-25.775,45.773c-5.927,0-10.731-4.811-10.731-10.736
						c0-5.93,4.805-10.736,10.731-10.736c5.933,0,10.739,4.807,10.739,10.736C-15.036,40.962-19.843,45.773-25.775,45.773z"/>
				</g>
				<circle fill="#00B643" cx="-26.083" cy="35.658" r="1.761"/>
				<path fill="#00B643" d="M-24.738,36.118c-0.428,0.205-0.943,0.031-1.149-0.398l-0.16-0.322c-0.21-0.428-0.037-0.947,0.396-1.156
					l6.203-3.029c0.428-0.205,0.945-0.031,1.153,0.4l0.156,0.32c0.212,0.432,0.033,0.951-0.392,1.156L-24.738,36.118z"/>
			</g>
		</g>
	</g>
	<path fill="#00A643" d="M-29.173,11.912c-0.81-1.51-2.198-1.543-3.082-0.078l-2.667,4.44v4.814
		c2.634-1.744,5.774-2.783,9.164-2.822L-29.173,11.912z"/>
	<path fill="#00A643" d="M-18.883,19.63c2.155,0.926,4.074,2.295,5.658,3.984V-2.88c0-1.105-0.897-2.008-2.005-2.008h-19.692v5.409
		h16.039V19.63z"/>
	<path fill="#00A643" d="M-12.069,35.019c0-7.57-6.135-13.707-13.706-13.707c-3.52,0-6.717,1.342-9.146,3.525v4.652
		c1.883-3.1,5.259-5.189,9.146-5.189c5.933,0,10.739,4.807,10.739,10.736c0,5.926-4.807,10.736-10.739,10.736
		c-3.888,0-7.264-2.092-9.146-5.191V45.2c2.43,2.184,5.627,3.521,9.146,3.521C-18.204,48.72-12.069,42.589-12.069,35.019z"/>
	<path fill="#00A643" d="M-18.136,31.935l-0.16-0.32c-0.206-0.432-0.724-0.605-1.151-0.398l-5.876,2.867
		c-0.001-0.002-0.002-0.002-0.003-0.002l-0.005,0.002c-0.23-0.109-0.482-0.186-0.756-0.186c-0.973,0-1.759,0.787-1.759,1.764
		c0,0.975,0.788,1.756,1.761,1.756c0.874,0,1.562-0.645,1.707-1.475l-0.362,0.178c-0.428,0.205-0.945,0.031-1.151-0.398l-0.16-0.322
		c-0.104-0.215-0.112-0.453-0.04-0.662c-0.071,0.209-0.062,0.447,0.044,0.66l0.16,0.322c0.206,0.43,0.722,0.604,1.149,0.398
		l0.36-0.178c0.016-0.096,0.056-0.182,0.057-0.283v0.002c0,0.1-0.041,0.188-0.057,0.283l5.849-2.852
		C-18.104,32.884-17.924,32.366-18.136,31.935z"/>
</g>
</svg>
