<?xml version="1.0" encoding="utf-8"?>
<!-- Generator: Adobe Illustrator 16.0.0, SVG Export Plug-In . SVG Version: 6.00 Build 0)  -->
<!DOCTYPE svg PUBLIC "-//W3C//DTD SVG 1.1//EN" "http://www.w3.org/Graphics/SVG/1.1/DTD/svg11.dtd">
<svg version="1.1" id="Capa_1" xmlns="http://www.w3.org/2000/svg" xmlns:xlink="http://www.w3.org/1999/xlink" x="0px" y="0px"
	 width="36.967px" height="55.559px" viewBox="0 -0.467 36.967 55.559" enable-background="new 0 -0.467 36.967 55.559"
	 xml:space="preserve">
<g>
	<g>
		<path fill="none" d="M8.755,24.114c0,0-0.171-0.17-0.507-0.188L6.866,24.24c1.541,2.035,3.597,3.642,5.977,4.615v-0.803
			c0,0,0.051-0.296-0.167-0.438L8.755,24.114z"/>
		<path fill="none" d="M7.602,18.658c0.838-0.211,2.874-1.303,3.528-1.897c0.208-0.12,0.247-0.388,0.247-0.388
			c0.24-0.889,0.467-4.155,0.255-5.069c0,0-0.022-0.245-0.264-0.383c-0.67-0.53-2.646-1.358-3.385-1.395c0,0-0.233-0.051-0.555,0.27
			c-0.888,0.849-2.283,3.521-2.573,4.393c-0.057,0.237-0.021,0.472-0.021,0.472c0.227,1.003,1.696,3.268,2.274,3.878
			C7.11,18.538,7.299,18.783,7.602,18.658z"/>
		<path fill="none" d="M21.313,16.979c-0.266-0.182-0.449-0.12-0.449-0.12c-0.984,0.126-4.137,1.985-4.781,2.714
			c0,0-0.164,0.125-0.164,0.45c-0.073,1.098,0.683,4.036,1.013,4.875c0.062,0.234,0.316,0.344,0.316,0.344
			c0.926,0.441,4.018,0.706,4.977,0.721c0,0,0.303,0.011,0.439-0.136c0.773-0.713,2.363-4.094,2.475-5.045
			c0,0,0.025-0.238-0.146-0.439C24.397,19.5,22.21,17.501,21.313,16.979z"/>
		<path fill="none" d="M8.751,5.239c0,0,0.238,0.109,0.482-0.022l4.558-2.666c0,0,0.168-0.061,0.159-0.435V1.728
			c-2.135,0.67-4.05,1.847-5.632,3.375L8.751,5.239z"/>
		<path fill="none" d="M23.788,4.297c-0.889-0.299-4.872-0.955-5.928-0.706c0,0-0.188-0.045-0.305,0.38
			c-0.367,0.885-1.344,3.378-1.146,4.092c0.009,0.033,0.026,0.073,0.048,0.109c0,0,2.924,3.438,5.186,3.192
			c0.947-0.188,3.039-1.275,3.779-2.017c0,0,0.225-0.133,0.262-0.382c0.002-0.021,0.006-0.041,0-0.061
			c-0.025-0.588-0.969-3.434-1.545-4.312C24.028,4.343,23.788,4.297,23.788,4.297z"/>
		<path fill="none" d="M31.694,11.042c-0.408,0.304-1.33,1.007-1.803,1.514c-0.273,0.21-0.268,0.375-0.268,0.375
			c-0.211,0.566-0.541,4.549-0.416,5.727c0,0,0.004,0.322,0.17,0.428c0.373,0.461,1.465,1.41,1.967,1.831
			c0.674-1.675,1.051-3.504,1.051-5.418C32.396,13.942,32.144,12.448,31.694,11.042z"/>
		<path fill="#00B643" d="M18.16,0.507c-8.171,0-14.816,6.724-14.816,14.992c0,8.265,6.646,14.991,14.816,14.991
			c8.169,0,14.816-6.726,14.816-14.991C32.976,7.229,26.329,0.507,18.16,0.507z M4.856,14.188c0.29-0.872,1.687-3.543,2.574-4.393
			c0.319-0.32,0.554-0.27,0.554-0.27c0.737,0.037,2.715,0.864,3.385,1.395c0.24,0.138,0.264,0.383,0.264,0.383
			c0.212,0.915-0.015,4.18-0.255,5.069c0,0-0.039,0.269-0.247,0.388c-0.654,0.595-2.69,1.686-3.528,1.897
			c-0.302,0.124-0.491-0.121-0.491-0.121c-0.578-0.61-2.049-2.875-2.274-3.878C4.834,14.659,4.799,14.425,4.856,14.188z
			 M12.841,28.055v0.803c-2.38-0.976-4.436-2.582-5.977-4.616l1.384-0.314c0.336,0.018,0.507,0.188,0.507,0.188l3.919,3.501
			C12.893,27.758,12.841,28.055,12.841,28.055z M13.952,2.118c0.009,0.374-0.159,0.435-0.159,0.435L9.234,5.218
			C8.991,5.35,8.751,5.24,8.751,5.24L8.319,5.105C9.901,3.577,11.816,2.4,13.952,1.73V2.118z M25.14,20.781
			c-0.109,0.951-1.699,4.332-2.475,5.045c-0.139,0.146-0.439,0.136-0.439,0.136c-0.959-0.016-4.051-0.279-4.977-0.721
			c0,0-0.255-0.109-0.316-0.344c-0.33-0.839-1.087-3.776-1.013-4.875c0-0.326,0.164-0.45,0.164-0.45
			c0.645-0.729,3.796-2.587,4.781-2.714c0,0,0.186-0.063,0.449,0.12c0.896,0.523,3.084,2.521,3.678,3.363
			C25.165,20.543,25.14,20.781,25.14,20.781z M25.683,8.965c-0.035,0.249-0.262,0.382-0.262,0.382
			c-0.74,0.742-2.832,1.829-3.779,2.017c-2.262,0.246-5.184-3.192-5.184-3.192c-0.021-0.037-0.039-0.077-0.048-0.109
			c-0.196-0.713,0.779-3.206,1.146-4.092c0.116-0.426,0.305-0.38,0.305-0.38c1.057-0.249,5.041,0.407,5.928,0.706
			c0,0,0.24,0.045,0.352,0.296c0.576,0.878,1.52,3.725,1.545,4.312C25.688,8.926,25.687,8.944,25.683,8.965z M29.378,19.086
			c-0.166-0.106-0.17-0.428-0.17-0.428c-0.125-1.179,0.205-5.161,0.416-5.727c0,0-0.006-0.165,0.27-0.375
			c0.471-0.507,1.393-1.21,1.801-1.514c0.449,1.406,0.701,2.899,0.701,4.455c0,1.914-0.377,3.745-1.051,5.418
			C30.843,20.496,29.751,19.547,29.378,19.086z"/>
	</g>
	<path fill="none" d="M7.559,18.658c0.84-0.211,2.876-1.303,3.53-1.897c0.204-0.12,0.245-0.388,0.245-0.388
		c0.241-0.889,0.465-4.155,0.255-5.069c0,0-0.021-0.245-0.263-0.383c-0.67-0.53-2.647-1.36-3.383-1.395c0,0-0.235-0.051-0.555,0.271
		c-0.89,0.849-2.283,3.521-2.578,4.393c-0.053,0.239-0.02,0.473-0.02,0.473c0.228,1.001,1.695,3.268,2.274,3.875
		C7.069,18.538,7.257,18.783,7.559,18.658z"/>
	<path fill="none" d="M8.713,24.112c0,0-0.171-0.17-0.507-0.189l-1.385,0.314c1.541,2.035,3.595,3.643,5.979,4.615v-0.801
		c0,0,0.053-0.297-0.165-0.44L8.713,24.112z"/>
	<path fill="none" d="M15.876,20.027c-0.074,1.098,0.681,4.034,1.009,4.874c0.065,0.234,0.317,0.344,0.317,0.344
		c0.192,0.092,0.488,0.172,0.824,0.249v-7.335c-0.888,0.527-1.696,1.086-1.985,1.417C16.042,19.575,15.876,19.701,15.876,20.027z"/>
	<path fill="none" d="M17.516,3.974c-0.365,0.885-1.344,3.377-1.147,4.092c0.012,0.034,0.03,0.073,0.047,0.109
		c0,0,0.675,0.783,1.613,1.576V3.569c-0.067,0.009-0.156,0.009-0.209,0.023C17.819,3.592,17.635,3.549,17.516,3.974z"/>
	<path fill="none" d="M21.599,11.365c0.949-0.191,3.037-1.277,3.781-2.017c0,0,0.227-0.133,0.264-0.382
		c0.002-0.023,0.004-0.041,0.002-0.059c-0.027-0.587-0.969-3.434-1.547-4.312c-0.107-0.251-0.352-0.296-0.352-0.296
		c-0.84-0.285-4.447-0.878-5.718-0.73V9.75C19.06,10.617,20.419,11.495,21.599,11.365z"/>
	<path fill="none" d="M22.185,25.964c0,0,0.305,0.011,0.439-0.134c0.771-0.716,2.367-4.098,2.475-5.047c0,0,0.021-0.238-0.148-0.436
		c-0.592-0.84-2.783-2.841-3.678-3.364c-0.266-0.184-0.447-0.12-0.447-0.12c-0.539,0.07-1.723,0.663-2.793,1.298v7.331
		C19.329,25.782,21.421,25.953,22.185,25.964z"/>
	<path fill="none" d="M29.339,19.086c0.373,0.461,1.467,1.41,1.961,1.833c0.676-1.675,1.055-3.503,1.055-5.418
		c0-1.555-0.252-3.049-0.703-4.455c-0.408,0.304-1.326,1.007-1.801,1.514c-0.275,0.209-0.27,0.375-0.27,0.375
		c-0.209,0.566-0.539,4.549-0.414,5.727C29.169,18.658,29.171,18.98,29.339,19.086z"/>
	<path fill="#00A643" d="M32.933,15.499c0-8.268-6.646-14.992-14.815-14.992c-0.029,0-0.058,0.003-0.089,0.003v3.06
		c1.27-0.147,4.875,0.443,5.719,0.73c0,0,0.242,0.046,0.35,0.296c0.576,0.878,1.521,3.724,1.547,4.312
		c0.002,0.018,0,0.037-0.002,0.059c-0.039,0.249-0.264,0.383-0.264,0.383c-0.742,0.741-2.832,1.829-3.781,2.017
		c-1.182,0.127-2.537-0.749-3.569-1.616v8.41c1.071-0.636,2.255-1.229,2.794-1.297c0,0,0.186-0.063,0.449,0.119
		c0.893,0.524,3.084,2.523,3.674,3.364c0.176,0.197,0.15,0.436,0.15,0.436c-0.105,0.951-1.701,4.332-2.475,5.045
		c-0.137,0.146-0.439,0.136-0.439,0.136c-0.766-0.011-2.854-0.184-4.155-0.472v4.996c0.031,0,0.059,0.004,0.089,0.004
		C26.286,30.492,32.933,23.764,32.933,15.499z M29.583,12.932c0,0-0.008-0.165,0.268-0.375c0.477-0.507,1.396-1.21,1.803-1.514
		c0.453,1.406,0.705,2.899,0.705,4.455c0,1.914-0.381,3.745-1.053,5.418c-0.498-0.423-1.59-1.369-1.965-1.833
		c-0.168-0.105-0.17-0.428-0.17-0.428C29.042,17.479,29.372,13.498,29.583,12.932z"/>
	<g opacity="0.3">
		<path fill="#CECECE" d="M9.12,18.259c0.737,1.05,1.333,2.245,2.067,3.367c0.738,1.125,1.854,2.243,2.37,3.368
			c-1.26,0.822-3.479,0.15-4.218-1.125c-0.812-1.421-0.296-4.189-0.296-5.833"/>
	</g>
	<g opacity="0.3">
		<path fill="#CECECE" d="M8.748,7.855c0,0.299-0.144,1.202,0,1.426c0.297,0.371,2.146,0.521,2.59,0.221
			c1.849-1.124-1.33-2.469-2.145-2.917"/>
	</g>
	<g opacity="0.3">
		<path fill="#CECECE" d="M28.567,13.394c-0.035,0.824,0.441,3.069,0,3.741c-0.74,1.053-3.695,0.901-4.289-0.3
			c-1.109-2.087,1.996-3.218,3.252-4.262C27.53,12.571,28.63,11.832,28.567,13.394z"/>
	</g>
	<rect x="0.643" y="41.666" fill="#00B643" width="35.483" height="8.962"/>
	<rect x="18.398" y="41.666" fill="#00A643" width="17.728" height="8.962"/>
	<path fill="#00B643" d="M36.06,39.76H0.904c-0.435,0-0.787-0.357-0.787-0.798c0-0.442,0.352-0.8,0.787-0.8H36.06
		c0.438,0,0.789,0.355,0.789,0.8C36.849,39.398,36.499,39.76,36.06,39.76z"/>
	<path fill="#00B643" d="M36.06,54.118H0.904c-0.435,0-0.787-0.354-0.787-0.802c0-0.439,0.352-0.797,0.787-0.797H36.06
		c0.438,0,0.789,0.354,0.789,0.797C36.849,53.766,36.499,54.118,36.06,54.118z"/>
</g>
</svg>
