<?xml version="1.0" encoding="utf-8"?>
<!-- Generator: Adobe Illustrator 16.0.0, SVG Export Plug-In . SVG Version: 6.00 Build 0)  -->
<!DOCTYPE svg PUBLIC "-//W3C//DTD SVG 1.1//EN" "http://www.w3.org/Graphics/SVG/1.1/DTD/svg11.dtd">
<svg version="1.1" id="Capa_1" xmlns="http://www.w3.org/2000/svg" xmlns:xlink="http://www.w3.org/1999/xlink" x="0px" y="0px"
	 width="135.563px" height="22.475px" viewBox="0 0 135.563 22.475" enable-background="new 0 0 135.563 22.475"
	 xml:space="preserve">
<g>
	<path fill="#006443" d="M0,1.61c0.041,0.012,0.077,0.082,0.11,0.188V1.69C0.073,1.656,0.035,1.62,0,1.61z"/>
	<path fill="none" d="M109.389,15.701c0.073,2.259,0.111,4.517,0.124,6.773h0.722c-0.036-1.581-0.017-3.106,0.155-4.479
		c-0.136,1.072,0.203,2.696,0.704,4.479h1.606c-0.64-2.325-1.368-4.633-2.212-6.92C110.281,14.994,109.377,15.031,109.389,15.701z"
		/>
	<path fill="none" d="M0.11,1.798v20.677h0.147c-0.008-0.647-0.017-1.295-0.025-1.941C0.209,18.896,0.687,3.64,0.11,1.798z"/>
	<path fill="#006443" d="M135.438,2.014c-0.074,0.072-0.184,0.145-0.354,0.207c-2.099,0.707-3.148,9.248-3.343,11.188
		c-0.268,2.71-0.281,5.44-0.195,8.15v0.81h3.716l0.08-0.586c-0.085-1.582,0.036,0.21,0-1.375c-0.074-3.112-0.001-9.476,0.048-12.587
		c0.024-1.489,0.305-3.21,0.098-4.673C135.414,2.586,135.414,2.232,135.438,2.014z"/>
	<path fill="#006443" d="M119.138,5.637c-3.404-5.148-3.172-2.269-3.562,1.402c-0.037,0.257-0.366,0.281-0.452,0.109l-0.037,0.037
		c3.928,4.554,6.727,9.763,8.885,15.289h2.58c-1.127-3.406-2.384-6.771-3.839-10.031C121.676,10.101,120.553,7.771,119.138,5.637z"
		/>
	<path fill="#006443" d="M131.998,5.014c-1.208-1.623-2.306-3.342-3.428-5.014c-1.294,1.22-1.99,2.78-2.026,4.599
		c0,0.024-0.025,0.037-0.025,0.062c0.782,2.709,2.184,5.174,4.149,7.418c0.012,0.012,0.012,0.012,0.012,0.024
		c0.354-2.404,0.927-4.733,1.793-6.967C132.326,5.197,132.132,5.173,131.998,5.014z"/>
	<path fill="#006443" d="M114.965,8.76c-2.684-2.367-0.72,0.865-0.207,3.184c0.774,3.467,1.6,6.985,2.386,10.531h5.61
		c-0.792-2.05-1.679-4.06-2.701-6.004C118.735,13.969,117.089,10.639,114.965,8.76z"/>
	<path fill="#006443" d="M130.594,12.688c-0.133,0.098-0.329,0.122-0.487-0.05c-3.148-3.27-4.831-7.552-5.052-12.041
		c-2.122,2.403-3.062,5.381-2.83,8.588c2.269,4.177,3.969,8.751,5.389,13.289h2.709C130.163,19.198,130.184,15.895,130.594,12.688z"
		/>
	<path fill="#006443" d="M113.233,5.161c0.329,0.329,0.634,0.669,0.939,0.999c-0.39-1.914-1.097-3.672-2.233-5.319
		C111.024,2,110.341,3.27,109.89,4.636c-0.708,3.587-1.39,7.186-2.037,10.785l1.537,0.28c-0.012-0.67,0.892-0.707,1.099-0.146
		c0.844,2.287,1.573,4.595,2.212,6.92h3.429c-1.374-5.796-2.824-11.438-3.885-16.742C112.123,5.173,112.793,4.708,113.233,5.161z"/>
	<path fill="#006443" d="M110.39,17.996c-0.172,1.372-0.191,2.897-0.155,4.479h0.859C110.593,20.692,110.254,19.068,110.39,17.996z"
		/>
	<path fill="#006443" d="M107.853,15.421c-0.436,2.351-0.848,4.702-1.257,7.054h2.917c-0.013-2.257-0.051-4.515-0.124-6.773
		L107.853,15.421z"/>
	<path fill="#006443" d="M107.461,11.504c0.305-1.574,2.282-7.051,1.746-8.369c0,0.463-3.161,5.295-3.734,6.49
		c-1.402,2.856-2.538,5.856-3.489,8.883c-0.41,1.312-0.78,2.636-1.121,3.967h4.622c0.09-0.517,0.178-1.034,0.269-1.551
		C106.304,17.776,106.876,14.641,107.461,11.504z"/>
	<path fill="#006443" d="M104.791,7.855c0.244-2.428,0.5-4.854,0.743-7.283c-1.183,0.647-2.245,1.465-3.208,2.429
		c-0.878,0.89-3.246,2.829-2.83,4.21c0.012,0.023-0.025,0.047-0.049,0.035c-0.146-0.072-0.245-0.157-0.33-0.243
		c-0.142,5.277-1.333,10.393-2.833,15.472h3.438c1.284-4.933,2.977-9.726,5.3-14.252C104.875,8.173,104.765,8.051,104.791,7.855z"/>
	<path fill="#006443" d="M98.47,4.782c-0.524-4.709-1.049-1.635-2.513,0.171c-0.757,0.939-1.598,1.72-2.489,2.525
		c-1.769,4.908-3.157,9.909-4.164,14.996h6.145c0.347-1.122,0.684-2.247,0.997-3.381C97.677,14.629,98.983,9.467,98.47,4.782z"/>
	<path fill="#006443" d="M93.065,7.406c-0.049-0.086-0.061-0.195,0.037-0.293c0.049-0.037,0.086-0.099,0.133-0.147
		c0.854-2.232,1.501-4.124,1.269-4.38c-1.586-1.843-6.405,5.051-7.868,7.234c-0.834,4.204-1.62,8.424-2.313,12.654h4.005
		c0.49-2.529,1.077-5.044,1.785-7.541C90.357,14.066,91.882,10.492,93.065,7.406z"/>
	<path fill="#006443" d="M87.124,3.147c-1.184-0.72-6.637,15.188-7.064,17.104c-0.165,0.739-0.315,1.479-0.456,2.223h3.548
		c0.17-1.019,0.339-2.036,0.519-3.052C83.94,17.861,87.355,3.293,87.124,3.147z"/>
	<path fill="#006443" d="M82.317,9.564c-0.146,0.305-0.659,0.365-0.72-0.035c-0.477-2.966-0.952-5.943-1.428-8.908
		c-1.61,4.711-3.611,9.346-6.234,13.58c0.251,2.832,0.775,5.579,1.503,8.273h3.065c0.846-4.445,2.083-8.769,3.898-12.873
		L82.317,9.564z"/>
	<path fill="#006443" d="M73.3,15.213c-0.036,0.061-0.073,0.123-0.109,0.184c-0.146,0.22-0.476,0.024-0.354-0.208
		c0.135-0.255,0.256-0.513,0.391-0.768c-0.219-2.831-0.158-5.625-0.109-8.479c0.024-1.477,0.988-4.746-1.684-3.111
		c-1.331,0.818-1.72,4.881-1.855,6.246c0,0.025-0.012,0.037-0.024,0.062c1.196,4.398,2.16,8.85,2.938,13.336h2.125
		c-0.556-2.108-0.984-4.253-1.245-6.443C73.337,15.763,73.325,15.493,73.3,15.213z"/>
	<path fill="#006443" d="M68.908,10.688c-0.317-1.221-1.646-4.625-1.671-5.93c-0.037,1.391,0.708,5.661,0.768,6.723
		c0.196,3.136,0.379,6.283,0.524,9.418c0.024,0.525,0.044,1.051,0.067,1.576h2.814c-0.178-1.056-0.349-2.112-0.551-3.162
		C70.299,16.422,69.665,13.541,68.908,10.688z"/>
	<path fill="#006443" d="M66.285,11.943c-0.182-4.381-1.891-8.32-4.904-11.432c0.159,2.452,0.346,5.289,0.211,7.729
		c0.232-0.598,0.547-0.942,0.792-1.541c0.207-0.512,0.258-0.2,0.208,0.458c-0.377,5.232-0.588,10.281-0.698,15.317h5.578
		c-0.152-3.431-0.329-6.86-0.529-10.287C66.748,12.396,66.298,12.311,66.285,11.943z"/>
	<path fill="#006443" d="M62.112,8.552c-1.183,0.806-3.123,9.968-3.868,12.591c-0.125,0.442-0.231,0.889-0.351,1.332h3.327
		c0.083-1.571,0.167-3.142,0.258-4.711C61.563,16.568,61.271,9.126,62.112,8.552z"/>
	<path fill="#006443" d="M58.745,13.957c0.17-4.283,0.061-8.443-0.538-12.652c-1.646,5.174-4.392,9.859-8.32,13.664
		c-0.58,2.485-1.068,4.989-1.485,7.506h8.409c0.75-2.78,1.585-5.54,2.506-8.273C59.099,14.371,58.733,14.299,58.745,13.957z"/>
	<path fill="#006443" d="M53.096,1.658c-2.074-1.013-5.723,5.076-7.248,7.857c-0.866,4.309-1.684,8.63-2.411,12.959h4.012
		c0.397-2.407,0.867-4.806,1.437-7.188C49.057,14.592,52.889,1.658,53.096,1.658z"/>
	<path fill="#006443" d="M45.08,7.441c0.305-1.488,0.549-3.002,0.927-4.478c-3.325,6.293-5.768,12.824-7.571,19.511h3.768
		c0.262-1.522,0.534-3.044,0.815-4.564C43.665,14.409,44.36,10.918,45.08,7.441z"/>
	<path fill="#006443" d="M43.08,5.83c-0.025-1.584-0.268-3.05-0.782-4.513c-1.158,3.574-3.037,6.844-5.635,9.565
		c-0.147,0.146-0.342-0.024-0.281-0.184l-0.073-0.023c-1.206,3.937-2.554,7.835-3.677,11.799h4.524
		c1.508-5.646,3.462-11.159,6.01-16.461C43.117,5.965,43.08,5.904,43.08,5.83z"/>
	<path fill="#006443" d="M37.626,2.976c-0.16-5.465-6.552,1.635-7.956,3.722c-0.024,0.024-0.037,0.024-0.061,0.037
		c-1.563,5.181-3.126,10.435-4.167,15.74h6.286c1.071-3.768,2.349-7.474,3.578-11.227C36.088,8.845,37.699,5.539,37.626,2.976z"/>
	<path fill="#006443" d="M28.207,8.967c0.379-1.256,2.453-5.856,1.953-6.686c-1.196-1.953-2.672,0.658-3.965,2.098
		c-1.525,1.697-2.563,3.648-3.343,5.747c0.293-0.428,1.11-0.22,1.05,0.342c-0.452,3.981-0.917,7.988-1.356,12.007h2.089
		c0.396-1.947,0.862-3.894,1.389-5.846C26.718,14.066,27.475,11.516,28.207,8.967z"/>
	<path fill="#006443" d="M21.265,16.373c-0.742,1.993-1.335,4.039-1.83,6.102h1.977c0.208-2.03,0.423-4.061,0.645-6.09
		C22.351,13.725,23.985,9.126,21.265,16.373z"/>
	<path fill="#006443" d="M21.484,11.919c-0.061-3.758-0.634-7.211-2.098-10.614c-0.915,3.795-1.904,7.576-3.111,11.299
		c0.463,3.195,1.171,6.367,2.147,9.49c0.817-3.355,1.939-6.648,3.404-9.857C21.655,12.249,21.496,12.139,21.484,11.919z"/>
	<path fill="#006443" d="M14.872,1.83c-0.354-0.062-1.757,3.538-1.952,4.123c-0.928,2.611-1.317,5.309-1.379,8.028
		c0.809,2.789,1.41,5.625,1.867,8.493h4.319c-1.708-5.25-2.731-10.656-2.892-16.191C14.823,5.83,14.884,1.83,14.872,1.83z"/>
	<path fill="#006443" d="M11.163,16.787c-0.012-0.049-0.012-0.086-0.012-0.133c-0.098-0.403-0.195-0.818-0.305-1.221
		C10.077,12.555,9.1,9.771,7.894,7.051c-0.635-1.428-1.282-3.086-2.197-4.38C5.661,2.623,5.635,2.586,5.612,2.537
		c0.037,0.17,0.084,0.341,0.109,0.573c0.831,6.492,1.576,12.938,2.158,19.364h4.447c-0.307-1.884-0.673-3.757-1.126-5.613
		C11.187,16.836,11.163,16.824,11.163,16.787z"/>
	<path fill="#006443" d="M3.967,20.018c0.065,0.818,0.11,1.638,0.152,2.457h3.009C6.529,15.642,5.642,8.814,4.416,1.988
		C4.299,7.96,4.115,13.979,3.967,20.018z"/>
	<path fill="#006443" d="M3.967,20.018c-0.017-0.206-0.021-0.413-0.039-0.619C3.636,15.97,3.136,12.566,2.319,9.224
		C2.108,8.373,0.89,2.418,0.11,1.69v0.107C0.687,3.64,0.209,18.896,0.232,20.533c0.008,0.646,0.017,1.294,0.025,1.941h3.653
		C3.929,21.655,3.946,20.836,3.967,20.018z"/>
	<path fill="#006443" d="M4.119,22.475c-0.042-0.819-0.087-1.639-0.152-2.457c-0.021,0.818-0.038,1.638-0.056,2.457H4.119z"/>
</g>
</svg>
